<svg width="172" height="38" viewBox="0 0 172 38" fill="none" xmlns="http://www.w3.org/2000/svg">
<g filter="url(#filter0_d_49_13)">
<path d="M14.5105 6.08559L7.6488 27H2.12129L11.4955 1.77102H15.013L14.5105 6.08559ZM20.2113 27L13.3322 6.08559L12.7778 1.77102H16.3299L25.7561 27H20.2113ZM19.8994 17.6084V21.6804H6.57448V17.6084H19.8994ZM39.6529 8.25154H44.1754V26.3762C44.1754 28.0859 43.7942 29.5356 43.0317 30.7254C42.2809 31.9268 41.2297 32.8336 39.8781 33.4459C38.5266 34.0697 36.9555 34.3816 35.165 34.3816C34.3795 34.3816 33.5478 34.2776 32.6698 34.0697C31.8035 33.8617 30.9717 33.5383 30.1747 33.0993C29.3892 32.6603 28.7307 32.1059 28.1993 31.4359L30.3999 28.4902C30.9775 29.1602 31.6475 29.68 32.4099 30.0497C33.1723 30.4309 34.0156 30.6215 34.9398 30.6215C35.8408 30.6215 36.6032 30.454 37.227 30.119C37.8508 29.7955 38.3302 29.3161 38.6652 28.6808C39.0002 28.057 39.1677 27.3003 39.1677 26.4109V12.5834L39.6529 8.25154ZM27.0384 17.851V17.4872C27.0384 16.0547 27.2116 14.7552 27.5582 13.5884C27.9163 12.4102 28.4188 11.3994 29.0657 10.5561C29.7242 9.71284 30.5212 9.06016 31.4569 8.5981C32.3926 8.13603 33.4496 7.90499 34.6279 7.90499C35.8754 7.90499 36.9209 8.13603 37.7642 8.5981C38.6074 9.06016 39.3005 9.71861 39.8435 10.5734C40.3864 11.4167 40.808 12.4159 41.1084 13.5711C41.4203 14.7147 41.6629 15.9681 41.8361 17.3312V18.1283C41.6629 19.4336 41.4029 20.6465 41.0564 21.7671C40.7098 22.8876 40.2536 23.8695 39.6875 24.7128C39.1215 25.5445 38.4168 26.1914 37.5736 26.6534C36.7418 27.1155 35.7484 27.3466 34.5932 27.3466C33.438 27.3466 32.3926 27.1097 31.4569 26.6361C30.5328 26.1625 29.7415 25.4983 29.083 24.6434C28.4246 23.7886 27.9163 22.7836 27.5582 21.6284C27.2116 20.4733 27.0384 19.2141 27.0384 17.851ZM32.0287 17.4872V17.851C32.0287 18.625 32.1038 19.347 32.254 20.017C32.4042 20.687 32.6352 21.2819 32.9471 21.8017C33.2705 22.31 33.6691 22.7085 34.1427 22.9973C34.6279 23.2746 35.1997 23.4132 35.8581 23.4132C36.7707 23.4132 37.5158 23.2226 38.0934 22.8414C38.671 22.4486 39.1042 21.9115 39.3929 21.2299C39.6817 20.5484 39.8492 19.7628 39.8954 18.8734V16.6034C39.8723 15.8757 39.7742 15.223 39.6009 14.6454C39.4276 14.0563 39.185 13.5538 38.8731 13.1379C38.5612 12.7221 38.1569 12.3986 37.6602 12.1676C37.1635 11.9365 36.5743 11.821 35.8928 11.821C35.2343 11.821 34.6625 11.9712 34.1773 12.2715C33.7037 12.5603 33.3052 12.9589 32.9817 13.4671C32.6698 13.9754 32.433 14.5761 32.2713 15.2692C32.1096 15.9508 32.0287 16.6901 32.0287 17.4872ZM53.0471 12.3409V27H48.0567V8.25154H52.7525L53.0471 12.3409ZM58.6959 8.13025L58.6092 12.7567C58.3667 12.7221 58.0721 12.6932 57.7255 12.6701C57.3905 12.6354 57.0844 12.6181 56.8072 12.6181C56.1025 12.6181 55.4903 12.7105 54.9705 12.8953C54.4622 13.0686 54.0348 13.3285 53.6882 13.6751C53.3532 14.0216 53.0991 14.4433 52.9258 14.94C52.7641 15.4367 52.6717 16.0028 52.6486 16.6381L51.6436 16.3262C51.6436 15.1133 51.7649 13.9985 52.0074 12.982C52.25 11.9539 52.6024 11.0586 53.0644 10.2962C53.538 9.53379 54.1156 8.94465 54.7972 8.52879C55.4787 8.11292 56.2585 7.90499 57.1364 7.90499C57.4136 7.90499 57.6967 7.9281 57.9855 7.9743C58.2742 8.00896 58.5111 8.06094 58.6959 8.13025ZM59.7355 17.8164V17.4525C59.7355 16.0778 59.9319 14.8129 60.3247 13.6578C60.7174 12.491 61.2893 11.4803 62.0401 10.6254C62.791 9.7706 63.7151 9.10637 64.8125 8.63275C65.9099 8.14758 67.1691 7.90499 68.5899 7.90499C70.0108 7.90499 71.2757 8.14758 72.3847 8.63275C73.4937 9.10637 74.4236 9.7706 75.1744 10.6254C75.9368 11.4803 76.5144 12.491 76.9072 13.6578C77.2999 14.8129 77.4963 16.0778 77.4963 17.4525V17.8164C77.4963 19.1795 77.2999 20.4444 76.9072 21.6111C76.5144 22.7663 75.9368 23.7771 75.1744 24.6434C74.4236 25.4983 73.4994 26.1625 72.402 26.6361C71.3046 27.1097 70.0455 27.3466 68.6246 27.3466C67.2037 27.3466 65.9388 27.1097 64.8299 26.6361C63.7324 26.1625 62.8025 25.4983 62.0401 24.6434C61.2893 23.7771 60.7174 22.7663 60.3247 21.6111C59.9319 20.4444 59.7355 19.1795 59.7355 17.8164ZM64.7259 17.4525V17.8164C64.7259 18.6019 64.7952 19.3354 64.9338 20.017C65.0724 20.6985 65.2919 21.2992 65.5923 21.819C65.9042 22.3273 66.3085 22.7259 66.8052 23.0147C67.3019 23.3034 67.9084 23.4478 68.6246 23.4478C69.3177 23.4478 69.9126 23.3034 70.4093 23.0147C70.9061 22.7259 71.3046 22.3273 71.6049 21.819C71.9053 21.2992 72.1248 20.6985 72.2634 20.017C72.4136 19.3354 72.4887 18.6019 72.4887 17.8164V17.4525C72.4887 16.6901 72.4136 15.9739 72.2634 15.3039C72.1248 14.6223 71.8995 14.0216 71.5876 13.5018C71.2873 12.9704 70.8887 12.5546 70.392 12.2542C69.8953 11.9539 69.2946 11.8037 68.5899 11.8037C67.8853 11.8037 67.2846 11.9539 66.7879 12.2542C66.3027 12.5546 65.9042 12.9704 65.5923 13.5018C65.2919 14.0216 65.0724 14.6223 64.9338 15.3039C64.7952 15.9739 64.7259 16.6901 64.7259 17.4525ZM92.1555 1.77102V27H86.9745V1.77102H92.1555ZM99.9182 1.77102V5.84301H79.3331V1.77102H99.9182ZM106.347 12.3409V27H101.356V8.25154H106.052L106.347 12.3409ZM111.996 8.13025L111.909 12.7567C111.666 12.7221 111.372 12.6932 111.025 12.6701C110.69 12.6354 110.384 12.6181 110.107 12.6181C109.402 12.6181 108.79 12.7105 108.27 12.8953C107.762 13.0686 107.334 13.3285 106.988 13.6751C106.653 14.0216 106.399 14.4433 106.225 14.94C106.064 15.4367 105.971 16.0028 105.948 16.6381L104.943 16.3262C104.943 15.1133 105.065 13.9985 105.307 12.982C105.55 11.9539 105.902 11.0586 106.364 10.2962C106.838 9.53379 107.415 8.94465 108.097 8.52879C108.778 8.11292 109.558 7.90499 110.436 7.90499C110.713 7.90499 110.996 7.9281 111.285 7.9743C111.574 8.00896 111.811 8.06094 111.996 8.13025ZM125.442 22.5122V8.25154H130.432V27H125.736L125.442 22.5122ZM125.996 18.6654L127.469 18.6308C127.469 19.8784 127.325 21.0393 127.036 22.1136C126.747 23.1764 126.314 24.1005 125.736 24.886C125.159 25.66 124.431 26.2665 123.553 26.7054C122.675 27.1328 121.641 27.3466 120.451 27.3466C119.539 27.3466 118.696 27.2195 117.922 26.9653C117.159 26.6997 116.501 26.2896 115.946 25.7351C115.403 25.1691 114.976 24.4471 114.664 23.5691C114.364 22.6797 114.214 21.6111 114.214 20.3635V8.25154H119.204V20.3982C119.204 20.9527 119.267 21.4205 119.394 21.8017C119.533 22.1829 119.724 22.4948 119.966 22.7374C120.209 22.98 120.492 23.1533 120.815 23.2572C121.15 23.3612 121.52 23.4132 121.924 23.4132C122.952 23.4132 123.761 23.2053 124.35 22.7894C124.951 22.3735 125.372 21.8075 125.615 21.0913C125.869 20.3635 125.996 19.5549 125.996 18.6654ZM141.99 23.4478C142.602 23.4478 143.145 23.3323 143.618 23.1013C144.092 22.8587 144.462 22.5237 144.727 22.0963C145.005 21.6573 145.149 21.1433 145.161 20.5541H149.856C149.845 21.871 149.492 23.0435 148.799 24.0716C148.106 25.0882 147.176 25.891 146.01 26.4802C144.843 27.0578 143.538 27.3466 142.094 27.3466C140.638 27.3466 139.367 27.104 138.282 26.6188C137.207 26.1336 136.312 25.4636 135.596 24.6088C134.88 23.7424 134.342 22.7374 133.984 21.5938C133.626 20.4386 133.447 19.2026 133.447 17.8857V17.3832C133.447 16.0547 133.626 14.8187 133.984 13.6751C134.342 12.5199 134.88 11.5149 135.596 10.6601C136.312 9.7937 137.207 9.11792 138.282 8.63275C139.356 8.14758 140.615 7.90499 142.059 7.90499C143.595 7.90499 144.941 8.19956 146.096 8.7887C147.263 9.37784 148.176 10.2211 148.834 11.3185C149.504 12.4044 149.845 13.6924 149.856 15.1826H145.161C145.149 14.5588 145.016 13.9928 144.762 13.4845C144.519 12.9762 144.161 12.5719 143.688 12.2715C143.226 11.9596 142.654 11.8037 141.972 11.8037C141.245 11.8037 140.65 11.9596 140.188 12.2715C139.725 12.5719 139.367 12.9878 139.113 13.5191C138.859 14.039 138.68 14.6339 138.576 15.3039C138.484 15.9623 138.437 16.6554 138.437 17.3832V17.8857C138.437 18.6134 138.484 19.3123 138.576 19.9823C138.669 20.6523 138.842 21.2472 139.096 21.7671C139.362 22.2869 139.725 22.697 140.188 22.9973C140.65 23.2977 141.25 23.4478 141.99 23.4478ZM157.74 0.367489V27H152.75V0.367489H157.74ZM169.558 8.25154L161.414 17.5391L157.047 21.9577L155.228 18.3535L158.693 13.9523L163.562 8.25154H169.558ZM164.377 27L158.832 18.3362L162.28 15.3212L170.13 27H164.377Z" fill="#459938"/>
<path d="M14.5105 6.08559L14.6861 6.14321L14.692 6.1255L14.6941 6.10698L14.5105 6.08559ZM7.6488 27V27.1848H7.78268L7.82441 27.0576L7.6488 27ZM2.12129 27L1.94804 26.9356L1.85544 27.1848H2.12129V27ZM11.4955 1.77102V1.5862H11.367L11.3223 1.70665L11.4955 1.77102ZM15.013 1.77102L15.1966 1.79241L15.2206 1.5862H15.013V1.77102ZM20.2113 27L20.0357 27.0577L20.0775 27.1848H20.2113V27ZM13.3322 6.08559L13.1489 6.10915L13.1512 6.12662L13.1567 6.14334L13.3322 6.08559ZM12.7778 1.77102V1.5862H12.5677L12.5944 1.79458L12.7778 1.77102ZM16.3299 1.77102L16.5031 1.70633L16.4582 1.5862H16.3299V1.77102ZM25.7561 27V27.1848H26.0225L25.9293 26.9353L25.7561 27ZM19.8994 17.6084H20.0842V17.4236H19.8994V17.6084ZM19.8994 21.6804V21.8653H20.0842V21.6804H19.8994ZM6.57448 21.6804H6.38966V21.8653H6.57448V21.6804ZM6.57448 17.6084V17.4236H6.38966V17.6084H6.57448ZM14.3349 6.02798L7.47318 26.9424L7.82441 27.0576L14.6861 6.14321L14.3349 6.02798ZM7.6488 26.8152H2.12129V27.1848H7.6488V26.8152ZM2.29455 27.0644L11.6688 1.8354L11.3223 1.70665L1.94804 26.9356L2.29455 27.0644ZM11.4955 1.95585H15.013V1.5862H11.4955V1.95585ZM14.8294 1.74964L14.3269 6.06421L14.6941 6.10698L15.1966 1.79241L14.8294 1.74964ZM20.3869 26.9423L13.5078 6.02785L13.1567 6.14334L20.0357 27.0577L20.3869 26.9423ZM13.5156 6.06204L12.9611 1.74746L12.5944 1.79458L13.1489 6.10915L13.5156 6.06204ZM12.7778 1.95585H16.3299V1.5862H12.7778V1.95585ZM16.1568 1.83571L25.583 27.0647L25.9293 26.9353L16.5031 1.70633L16.1568 1.83571ZM25.7561 26.8152H20.2113V27.1848H25.7561V26.8152ZM19.7146 17.6084V21.6804H20.0842V17.6084H19.7146ZM19.8994 21.4956H6.57448V21.8653H19.8994V21.4956ZM6.75931 21.6804V17.6084H6.38966V21.6804H6.75931ZM6.57448 17.7933H19.8994V17.4236H6.57448V17.7933ZM39.6529 8.25154V8.06672H39.4876L39.4692 8.23097L39.6529 8.25154ZM44.1754 8.25154H44.3602V8.06672H44.1754V8.25154ZM43.0317 30.7254L42.8761 30.6257L42.875 30.6275L43.0317 30.7254ZM39.8781 33.4459L39.8019 33.2775L39.8007 33.278L39.8781 33.4459ZM32.6698 34.0697L32.6267 34.2494L32.6272 34.2495L32.6698 34.0697ZM30.1747 33.0993L30.0845 33.2607L30.0855 33.2612L30.1747 33.0993ZM28.1993 31.4359L28.0513 31.3252L27.9661 31.4392L28.0545 31.5507L28.1993 31.4359ZM30.3999 28.4902L30.5399 28.3695L30.3896 28.1951L30.2519 28.3796L30.3999 28.4902ZM32.4099 30.0497L32.4926 29.8843L32.4906 29.8833L32.4099 30.0497ZM37.227 30.119L37.1419 29.9549L37.1396 29.9561L37.227 30.119ZM38.6652 28.6808L38.5024 28.5933L38.5017 28.5946L38.6652 28.6808ZM39.1677 12.5834L38.984 12.5629L38.9829 12.5731V12.5834H39.1677ZM27.5582 13.5884L27.3814 13.5347L27.381 13.5358L27.5582 13.5884ZM29.0657 10.5561L28.92 10.4424L28.9191 10.4436L29.0657 10.5561ZM39.8435 10.5734L39.6874 10.6725L39.6881 10.6735L39.8435 10.5734ZM41.1084 13.5711L40.9295 13.6176L40.9301 13.6197L41.1084 13.5711ZM41.8361 17.3312H42.021V17.3195L42.0195 17.3079L41.8361 17.3312ZM41.8361 18.1283L42.0194 18.1526L42.021 18.1405V18.1283H41.8361ZM39.6875 24.7128L39.8403 24.8167L39.841 24.8158L39.6875 24.7128ZM37.5736 26.6534L37.4847 26.4914L37.4838 26.4919L37.5736 26.6534ZM31.4569 26.6361L31.3726 26.8006L31.3734 26.801L31.4569 26.6361ZM27.5582 21.6284L27.3812 21.6816L27.3817 21.6832L27.5582 21.6284ZM32.9471 21.8017L32.7885 21.8968L32.7912 21.901L32.9471 21.8017ZM34.1427 22.9973L34.0464 23.1552L34.051 23.1578L34.1427 22.9973ZM38.0934 22.8414L38.1952 22.9957L38.1973 22.9942L38.0934 22.8414ZM39.8954 18.8734L40.0803 18.883V18.8734H39.8954ZM39.8954 16.6034H40.0804L40.0802 16.5976L39.8954 16.6034ZM39.6009 14.6454L39.4236 14.6976L39.4238 14.6985L39.6009 14.6454ZM34.1773 12.2715L34.2736 12.4294L34.2746 12.4287L34.1773 12.2715ZM32.9817 13.4671L32.8258 13.3679L32.8242 13.3705L32.9817 13.4671ZM32.2713 15.2692L32.4511 15.3119L32.4513 15.3112L32.2713 15.2692ZM39.6529 8.43637H44.1754V8.06672H39.6529V8.43637ZM43.9905 8.25154V26.3762H44.3602V8.25154H43.9905ZM43.9905 26.3762C43.9905 28.058 43.6158 29.4714 42.8761 30.6257L43.1874 30.8252C43.9725 29.5998 44.3602 28.1137 44.3602 26.3762H43.9905ZM42.875 30.6275C42.1444 31.7965 41.1219 32.6795 39.8019 33.2775L39.9544 33.6142C41.3375 32.9877 42.4174 32.0572 43.1885 30.8234L42.875 30.6275ZM39.8007 33.278C38.4778 33.8886 36.9341 34.1967 35.165 34.1967V34.5664C36.9769 34.5664 38.5753 34.2507 39.9556 33.6137L39.8007 33.278ZM35.165 34.1967C34.3958 34.1967 33.5784 34.0949 32.7124 33.8898L32.6272 34.2495C33.5171 34.4603 34.3632 34.5664 35.165 34.5664V34.1967ZM32.713 33.8899C31.863 33.6859 31.0467 33.3686 30.2638 32.9374L30.0855 33.2612C30.8967 33.708 31.7439 34.0375 32.6267 34.2494L32.713 33.8899ZM30.2648 32.938C29.4993 32.5102 28.8597 31.9711 28.3441 31.321L28.0545 31.5507C28.6017 32.2406 29.279 32.8105 30.0845 33.2607L30.2648 32.938ZM28.3474 31.5465L30.548 28.6008L30.2519 28.3796L28.0513 31.3252L28.3474 31.5465ZM30.2599 28.6109C30.8532 29.2991 31.5432 29.8348 32.3293 30.216L32.4906 29.8833C31.7518 29.5252 31.1018 29.0213 30.5399 28.3695L30.2599 28.6109ZM32.3273 30.215C33.1175 30.6101 33.9894 30.8063 34.9398 30.8063V30.4366C34.0418 30.4366 33.2272 30.2517 32.4926 29.8843L32.3273 30.215ZM34.9398 30.8063C35.8632 30.8063 36.6574 30.6346 37.3144 30.2818L37.1396 29.9561C36.549 30.2733 35.8184 30.4366 34.9398 30.4366V30.8063ZM37.3121 30.283C37.9701 29.9418 38.4765 29.4349 38.8287 28.767L38.5017 28.5946C38.1839 29.1974 37.7315 29.6492 37.1419 29.9549L37.3121 30.283ZM38.828 28.7682C39.1807 28.1115 39.3525 27.3232 39.3525 26.4109H38.9829C38.9829 27.2775 38.8197 28.0025 38.5024 28.5933L38.828 28.7682ZM39.3525 26.4109V12.5834H38.9829V26.4109H39.3525ZM39.3514 12.604L39.8365 8.27212L39.4692 8.23097L38.984 12.5629L39.3514 12.604ZM27.2232 17.851V17.4872H26.8535V17.851H27.2232ZM27.2232 17.4872C27.2232 16.0695 27.3947 14.788 27.7354 13.6411L27.381 13.5358C27.0286 14.7223 26.8535 16.04 26.8535 17.4872H27.2232ZM27.735 13.6422C28.0877 12.4818 28.5809 11.4917 29.2124 10.6686L28.9191 10.4436C28.2567 11.3071 27.7449 12.3385 27.3814 13.5347L27.735 13.6422ZM29.2114 10.6699C29.8532 9.84792 30.6286 9.21327 31.5387 8.76382L31.3751 8.43237C30.4138 8.90706 29.5951 9.57776 28.92 10.4424L29.2114 10.6699ZM31.5387 8.76382C32.4459 8.31585 33.4743 8.08982 34.6279 8.08982V7.72016C33.4249 7.72016 32.3393 7.9562 31.3751 8.43237L31.5387 8.76382ZM34.6279 8.08982C35.8534 8.08982 36.8662 8.31682 37.6753 8.76018L37.853 8.43601C36.9756 7.95523 35.8975 7.72016 34.6279 7.72016V8.08982ZM37.6753 8.76018C38.4898 9.20646 39.1603 9.84259 39.6874 10.6725L39.9995 10.4743C39.4407 9.59464 38.7251 8.91387 37.853 8.43601L37.6753 8.76018ZM39.6881 10.6735C40.2186 11.4975 40.6332 12.4779 40.9295 13.6176L41.2873 13.5246C40.9829 12.354 40.5542 11.3359 39.9989 10.4734L39.6881 10.6735ZM40.9301 13.6197C41.2394 14.7539 41.4804 15.9986 41.6528 17.3545L42.0195 17.3079C41.8453 15.9376 41.6012 14.6756 41.2867 13.5225L40.9301 13.6197ZM41.6513 17.3312V18.1283H42.021V17.3312H41.6513ZM41.6529 18.104C41.4808 19.4003 41.223 20.6029 40.8798 21.7125L41.233 21.8217C41.5829 20.6902 41.8449 19.467 42.0194 18.1526L41.6529 18.104ZM40.8798 21.7125C40.5378 22.8184 40.0887 23.7835 39.5341 24.6097L39.841 24.8158C40.4184 23.9555 40.8819 22.9568 41.233 21.8217L40.8798 21.7125ZM39.5347 24.6088C38.9843 25.4175 38.3012 26.044 37.4847 26.4914L37.6624 26.8155C38.5325 26.3388 39.2586 25.6715 39.8403 24.8167L39.5347 24.6088ZM37.4838 26.4919C36.6848 26.9357 35.7237 27.1617 34.5932 27.1617V27.5314C35.7731 27.5314 36.7988 27.2953 37.6633 26.815L37.4838 26.4919ZM34.5932 27.1617C33.464 27.1617 32.4477 26.9305 31.5404 26.4712L31.3734 26.801C32.3375 27.289 33.412 27.5314 34.5932 27.5314V27.1617ZM31.5412 26.4716C30.6423 26.0109 29.8719 25.3648 29.2295 24.5307L28.9366 24.7562C29.611 25.6318 30.4232 26.3141 31.3726 26.8006L31.5412 26.4716ZM29.2295 24.5307C28.5859 23.6952 28.0871 22.7104 27.7347 21.5737L27.3817 21.6832C27.7455 22.8568 28.2632 23.882 28.9366 24.7562L29.2295 24.5307ZM27.7352 21.5753C27.3945 20.4395 27.2232 19.1984 27.2232 17.851H26.8535C26.8535 19.2298 27.0288 20.5071 27.3812 21.6816L27.7352 21.5753ZM31.8439 17.4872V17.851H32.2135V17.4872H31.8439ZM31.8439 17.851C31.8439 18.6369 31.9201 19.3726 32.0736 20.0574L32.4343 19.9766C32.2875 19.3214 32.2135 18.6131 32.2135 17.851H31.8439ZM32.0736 20.0574C32.2276 20.7442 32.4653 21.358 32.7886 21.8968L33.1056 21.7066C32.8051 21.2058 32.5807 20.6298 32.4343 19.9766L32.0736 20.0574ZM32.7912 21.901C33.1284 22.431 33.5467 22.8504 34.0465 23.1551L34.2389 22.8395C33.7914 22.5667 33.4126 22.189 33.103 21.7025L32.7912 21.901ZM34.051 23.1578C34.5687 23.4536 35.1733 23.598 35.8581 23.598V23.2284C35.2261 23.2284 34.687 23.0955 34.2344 22.8369L34.051 23.1578ZM35.8581 23.598C36.7956 23.598 37.5791 23.4022 38.1952 22.9956L37.9916 22.6871C37.4524 23.0429 36.7458 23.2284 35.8581 23.2284V23.598ZM38.1973 22.9942C38.8061 22.5803 39.2613 22.0142 39.5631 21.302L39.2228 21.1578C38.947 21.8087 38.5359 22.317 37.9894 22.6885L38.1973 22.9942ZM39.5631 21.302C39.8618 20.5971 40.0329 19.7897 40.08 18.8829L39.7109 18.8638C39.6656 19.736 39.5016 20.4997 39.2228 21.1578L39.5631 21.302ZM40.0803 18.8734V16.6034H39.7106V18.8734H40.0803ZM40.0802 16.5976C40.0567 15.857 39.9566 15.188 39.7779 14.5923L39.4238 14.6985C39.5917 15.258 39.688 15.8944 39.7107 16.6093L40.0802 16.5976ZM39.7782 14.5933C39.5998 13.9867 39.3483 13.4634 39.021 13.027L38.7253 13.2488C39.0217 13.6441 39.2554 14.1259 39.4236 14.6976L39.7782 14.5933ZM39.021 13.027C38.6898 12.5855 38.2609 12.2432 37.7381 12L37.5822 12.3352C38.0529 12.5541 38.4326 12.8586 38.7253 13.2488L39.021 13.027ZM37.7381 12C37.2118 11.7552 36.5949 11.6362 35.8928 11.6362V12.0059C36.5538 12.0059 37.1151 12.1179 37.5822 12.3352L37.7381 12ZM35.8928 11.6362C35.2053 11.6362 34.5987 11.7933 34.0801 12.1144L34.2746 12.4287C34.7263 12.1491 35.2633 12.0059 35.8928 12.0059V11.6362ZM34.0811 12.1137C33.5814 12.4185 33.1631 12.8379 32.8258 13.3679L33.1377 13.5664C33.4473 13.0798 33.8261 12.7022 34.2736 12.4294L34.0811 12.1137ZM32.8242 13.3705C32.5002 13.8986 32.2567 14.5184 32.0913 15.2272L32.4513 15.3112C32.6094 14.6338 32.8395 14.0523 33.1393 13.5638L32.8242 13.3705ZM32.0915 15.2265C31.926 15.9238 31.8439 16.6776 31.8439 17.4872H32.2135C32.2135 16.7025 32.2932 15.9777 32.4511 15.3119L32.0915 15.2265ZM53.0471 12.3409H53.2324L53.2314 12.3276L53.0471 12.3409ZM53.0471 27V27.1848H53.2319V27H53.0471ZM48.0567 27H47.8719V27.1848H48.0567V27ZM48.0567 8.25154V8.06672H47.8719V8.25154H48.0567ZM52.7525 8.25154L52.9369 8.23826L52.9245 8.06672H52.7525V8.25154ZM58.6959 8.13025L58.8807 8.13371L58.8831 8.00307L58.7608 7.95719L58.6959 8.13025ZM58.6092 12.7567L58.5831 12.9397L58.7901 12.9693L58.794 12.7602L58.6092 12.7567ZM57.7255 12.6701L57.7065 12.854L57.7132 12.8545L57.7255 12.6701ZM54.9705 12.8953L55.0301 13.0703L55.0324 13.0695L54.9705 12.8953ZM53.6882 13.6751L53.5575 13.5444L53.5553 13.5466L53.6882 13.6751ZM52.9258 14.94L52.7512 14.8791L52.7501 14.8828L52.9258 14.94ZM52.6486 16.6381L52.5938 16.8146L52.8245 16.8862L52.8333 16.6448L52.6486 16.6381ZM51.6436 16.3262H51.4587V16.4624L51.5888 16.5027L51.6436 16.3262ZM52.0074 12.982L52.1872 13.0249L52.1873 13.0244L52.0074 12.982ZM53.0644 10.2962L52.9074 10.1987L52.9064 10.2004L53.0644 10.2962ZM54.7972 8.52879L54.7009 8.37101L54.7972 8.52879ZM57.9855 7.9743L57.9562 8.15695L57.9634 8.15781L57.9855 7.9743ZM52.8623 12.3409V27H53.2319V12.3409H52.8623ZM53.0471 26.8152H48.0567V27.1848H53.0471V26.8152ZM48.2416 27V8.25154H47.8719V27H48.2416ZM48.0567 8.43637H52.7525V8.06672H48.0567V8.43637ZM52.5682 8.26482L52.8627 12.3541L53.2314 12.3276L52.9369 8.23826L52.5682 8.26482ZM58.5111 8.12679L58.4245 12.7533L58.794 12.7602L58.8807 8.13371L58.5111 8.12679ZM58.6354 12.5737C58.3868 12.5382 58.0873 12.509 57.7378 12.4857L57.7132 12.8545C58.0569 12.8774 58.3466 12.9059 58.5831 12.9397L58.6354 12.5737ZM57.7446 12.4862C57.4045 12.4511 57.0919 12.4333 56.8072 12.4333V12.8029C57.0769 12.8029 57.3766 12.8198 57.7065 12.8539L57.7446 12.4862ZM56.8072 12.4333C56.087 12.4333 55.4529 12.5276 54.9085 12.7212L55.0324 13.0695C55.5277 12.8934 56.1181 12.8029 56.8072 12.8029V12.4333ZM54.9108 12.7204C54.3784 12.9019 53.9259 13.176 53.5575 13.5444L53.8189 13.8058C54.1436 13.4811 54.546 13.2353 55.0301 13.0703L54.9108 12.7204ZM53.5553 13.5466C53.2001 13.9141 52.9326 14.3595 52.7513 14.8791L53.1003 15.0009C53.2656 14.5271 53.5064 14.1291 53.8211 13.8035L53.5553 13.5466ZM52.7501 14.8828C52.582 15.3989 52.4874 15.9824 52.4639 16.6314L52.8333 16.6448C52.8559 16.0231 52.9461 15.4745 53.1015 14.9972L52.7501 14.8828ZM52.7033 16.4616L51.6983 16.1497L51.5888 16.5027L52.5938 16.8146L52.7033 16.4616ZM51.8284 16.3262C51.8284 15.1255 51.9485 14.0253 52.1872 13.0249L51.8277 12.9391C51.5812 13.9717 51.4587 15.1011 51.4587 16.3262H51.8284ZM52.1873 13.0244C52.4263 12.0118 52.7721 11.1351 53.2225 10.392L52.9064 10.2004C52.4326 10.9821 52.0738 11.896 51.8275 12.9395L52.1873 13.0244ZM53.2214 10.3937C53.6817 9.65279 54.2395 9.08559 54.8934 8.68656L54.7009 8.37101C53.9918 8.80371 53.3944 9.41478 52.9074 10.1987L53.2214 10.3937ZM54.8934 8.68656C55.5432 8.29013 56.2889 8.08982 57.1364 8.08982V7.72016C56.228 7.72016 55.4143 7.93572 54.7009 8.37101L54.8934 8.68656ZM57.1364 8.08982C57.4033 8.08982 57.6766 8.11206 57.9563 8.15681L58.0147 7.7918C57.7167 7.74413 57.4239 7.72016 57.1364 7.72016V8.08982ZM57.9634 8.15781C58.2438 8.19146 58.4648 8.241 58.631 8.30331L58.7608 7.95719C58.5573 7.88088 58.3047 7.82646 58.0075 7.79079L57.9634 8.15781ZM60.3247 13.6578L60.4997 13.7172L60.4999 13.7167L60.3247 13.6578ZM62.0401 10.6254L62.179 10.7474L62.0401 10.6254ZM64.8125 8.63275L64.8858 8.80246L64.8873 8.80179L64.8125 8.63275ZM72.3847 8.63275L72.3106 8.80209L72.3121 8.80273L72.3847 8.63275ZM75.1744 10.6254L75.0356 10.7474L75.0365 10.7484L75.1744 10.6254ZM76.9072 13.6578L76.732 13.7167L76.7322 13.7172L76.9072 13.6578ZM76.9072 21.6111L77.0822 21.6706L77.0824 21.6701L76.9072 21.6111ZM75.1744 24.6434L75.0357 24.5213L75.0356 24.5215L75.1744 24.6434ZM64.8299 26.6361L64.7566 26.8058L64.7573 26.8061L64.8299 26.6361ZM62.0401 24.6434L61.9004 24.7645L61.9022 24.7665L62.0401 24.6434ZM60.3247 21.6111L60.1495 21.6701L60.1497 21.6706L60.3247 21.6111ZM65.5923 21.819L65.4322 21.9115L65.4347 21.9157L65.5923 21.819ZM70.4093 23.0147L70.3164 22.8549L70.4093 23.0147ZM71.6049 21.819L71.7641 21.9131L71.765 21.9115L71.6049 21.819ZM72.2634 20.017L72.0829 19.9772L72.0823 19.9801L72.2634 20.017ZM72.2634 15.3039L72.0822 15.3407L72.083 15.3443L72.2634 15.3039ZM71.5876 13.5018L71.4267 13.5928L71.4291 13.5969L71.5876 13.5018ZM66.7879 12.2542L66.6922 12.096L66.6906 12.0971L66.7879 12.2542ZM65.5923 13.5018L65.4329 13.4082L65.4322 13.4093L65.5923 13.5018ZM64.9338 15.3039L65.1148 15.3413L65.1149 15.3407L64.9338 15.3039ZM59.9204 17.8164V17.4525H59.5507V17.8164H59.9204ZM59.9204 17.4525C59.9204 16.0955 60.1142 14.851 60.4997 13.7172L60.1497 13.5983C59.7497 14.7748 59.5507 16.0601 59.5507 17.4525H59.9204ZM60.4999 13.7167C60.8854 12.5713 61.4456 11.5824 62.179 10.7474L61.9012 10.5034C61.1329 11.3781 60.5494 12.4108 60.1495 13.5988L60.4999 13.7167ZM62.179 10.7474C62.9109 9.91418 63.8122 9.26578 64.8858 8.80245L64.7393 8.46305C63.618 8.94696 62.6711 9.62701 61.9012 10.5034L62.179 10.7474ZM64.8873 8.80179C65.9572 8.32877 67.1901 8.08982 68.5899 8.08982V7.72016C67.148 7.72016 65.8627 7.96639 64.7378 8.46371L64.8873 8.80179ZM68.5899 8.08982C69.9897 8.08982 71.2287 8.32875 72.3106 8.80208L72.4588 8.46342C71.3227 7.96641 70.0319 7.72016 68.5899 7.72016V8.08982ZM72.3121 8.80273C73.3972 9.26616 74.304 9.91456 75.0356 10.7474L75.3133 10.5034C74.5431 9.62664 73.5901 8.94658 72.4573 8.46278L72.3121 8.80273ZM75.0365 10.7484C75.7811 11.5833 76.3466 12.5719 76.732 13.7167L77.0824 13.5988C76.6822 12.4102 76.0926 11.3772 75.3124 10.5024L75.0365 10.7484ZM76.7322 13.7172C77.1177 14.851 77.3115 16.0955 77.3115 17.4525H77.6812C77.6812 16.0601 77.4822 14.7748 77.0822 13.5983L76.7322 13.7172ZM77.3115 17.4525V17.8164H77.6812V17.4525H77.3115ZM77.3115 17.8164C77.3115 19.1616 77.1177 20.4064 76.732 21.5522L77.0824 21.6701C77.4822 20.4824 77.6812 19.1974 77.6812 17.8164H77.3115ZM76.7322 21.5516C76.3468 22.6851 75.7811 23.6743 75.0357 24.5213L75.3132 24.7655C76.0926 23.8799 76.682 22.8475 77.0822 21.6706L76.7322 21.5516ZM75.0356 24.5215C74.3037 25.3547 73.4024 26.0031 72.3288 26.4664L72.4753 26.8058C73.5965 26.3219 74.5434 25.6419 75.3133 24.7654L75.0356 24.5215ZM72.3288 26.4664C71.2584 26.9284 70.0249 27.1617 68.6246 27.1617V27.5314C70.066 27.5314 71.3508 27.2911 72.4753 26.8058L72.3288 26.4664ZM68.6246 27.1617C67.2243 27.1617 65.9848 26.9284 64.9024 26.4661L64.7573 26.8061C65.8929 27.2911 67.1832 27.5314 68.6246 27.5314V27.1617ZM64.9031 26.4664C63.8293 26.003 62.9218 25.3543 62.178 24.5204L61.9022 24.7665C62.6833 25.6423 63.6356 26.322 64.7566 26.8058L64.9031 26.4664ZM62.1798 24.5224C61.4455 23.6752 60.8852 22.6857 60.4997 21.5516L60.1497 21.6706C60.5496 22.8469 61.133 23.8789 61.9004 24.7645L62.1798 24.5224ZM60.4999 21.5522C60.1141 20.4064 59.9204 19.1616 59.9204 17.8164H59.5507C59.5507 19.1974 59.7497 20.4824 60.1495 21.6701L60.4999 21.5522ZM64.5411 17.4525V17.8164H64.9107V17.4525H64.5411ZM64.5411 17.8164C64.5411 18.6127 64.6113 19.3587 64.7527 20.0538L65.1149 19.9801C64.9791 19.3122 64.9107 18.5911 64.9107 17.8164H64.5411ZM64.7527 20.0538C64.8947 20.7519 65.1205 21.3719 65.4322 21.9115L65.7523 21.7266C65.4634 21.2265 65.2502 20.6452 65.1149 19.9801L64.7527 20.0538ZM65.4347 21.9157C65.762 22.449 66.1881 22.8697 66.7123 23.1744L66.8981 22.8549C66.4288 22.582 66.0463 22.2056 65.7498 21.7224L65.4347 21.9157ZM66.7123 23.1744C67.2434 23.4832 67.8837 23.6327 68.6246 23.6327V23.263C67.9331 23.263 67.3604 23.1237 66.8981 22.8549L66.7123 23.1744ZM68.6246 23.6327C69.3436 23.6327 69.972 23.4827 70.5022 23.1744L70.3164 22.8549C69.8532 23.1242 69.2918 23.263 68.6246 23.263V23.6327ZM70.5022 23.1744C71.0271 22.8693 71.4481 22.4478 71.7641 21.9131L71.4458 21.725C71.1611 22.2069 70.7851 22.5824 70.3164 22.8549L70.5022 23.1744ZM71.765 21.9115C72.0768 21.3719 72.3025 20.7519 72.4445 20.0538L72.0823 19.9801C71.947 20.6452 71.7338 21.2265 71.4449 21.7266L71.765 21.9115ZM72.4439 20.0568C72.5973 19.3606 72.6735 18.6136 72.6735 17.8164H72.3038C72.3038 18.5902 72.2299 19.3102 72.0829 19.9772L72.4439 20.0568ZM72.6735 17.8164V17.4525H72.3038V17.8164H72.6735ZM72.6735 17.4525C72.6735 16.678 72.5972 15.9481 72.4437 15.2635L72.083 15.3443C72.2299 15.9997 72.3038 16.7022 72.3038 17.4525H72.6735ZM72.4445 15.267C72.3023 14.5679 72.0703 13.947 71.7461 13.4067L71.4291 13.5969C71.7288 14.0963 71.9472 14.6767 72.0823 15.3407L72.4445 15.267ZM71.7485 13.4109C71.4334 12.8533 71.013 12.4137 70.4876 12.0961L70.2964 12.4124C70.7645 12.6954 71.1412 13.0875 71.4267 13.5928L71.7485 13.4109ZM70.4876 12.0961C69.9565 11.7749 69.3211 11.6189 68.5899 11.6189V11.9885C69.2681 11.9885 69.8341 12.1329 70.2964 12.4124L70.4876 12.0961ZM68.5899 11.6189C67.8588 11.6189 67.2234 11.7749 66.6922 12.0961L66.8835 12.4124C67.3458 12.1329 67.9118 11.9885 68.5899 11.9885V11.6189ZM66.6906 12.0971C66.1778 12.4145 65.7587 12.8531 65.4329 13.4082L65.7517 13.5954C66.0496 13.0878 66.4276 12.6946 66.8852 12.4114L66.6906 12.0971ZM65.4322 13.4093C65.1205 13.9489 64.8947 14.569 64.7527 15.267L65.1149 15.3407C65.2502 14.6757 65.4634 14.0943 65.7523 13.5943L65.4322 13.4093ZM64.7528 15.2664C64.6114 15.9501 64.5411 16.6789 64.5411 17.4525H64.9107C64.9107 16.7013 64.979 15.9977 65.1148 15.3413L64.7528 15.2664ZM92.1555 1.77102H92.3403V1.5862H92.1555V1.77102ZM92.1555 27V27.1848H92.3403V27H92.1555ZM86.9745 27H86.7897V27.1848H86.9745V27ZM86.9745 1.77102V1.5862H86.7897V1.77102H86.9745ZM99.9182 1.77102H100.103V1.5862H99.9182V1.77102ZM99.9182 5.84301V6.02784H100.103V5.84301H99.9182ZM79.3331 5.84301H79.1482V6.02784H79.3331V5.84301ZM79.3331 1.77102V1.5862H79.1482V1.77102H79.3331ZM91.9706 1.77102V27H92.3403V1.77102H91.9706ZM92.1555 26.8152H86.9745V27.1848H92.1555V26.8152ZM87.1593 27V1.77102H86.7897V27H87.1593ZM86.9745 1.95585H92.1555V1.5862H86.9745V1.95585ZM99.7334 1.77102V5.84301H100.103V1.77102H99.7334ZM99.9182 5.65818H79.3331V6.02784H99.9182V5.65818ZM79.5179 5.84301V1.77102H79.1482V5.84301H79.5179ZM79.3331 1.95585H99.9182V1.5862H79.3331V1.95585ZM106.347 12.3409H106.532L106.531 12.3276L106.347 12.3409ZM106.347 27V27.1848H106.532V27H106.347ZM101.356 27H101.172V27.1848H101.356V27ZM101.356 8.25154V8.06672H101.172V8.25154H101.356ZM106.052 8.25154L106.237 8.23826L106.224 8.06672H106.052V8.25154ZM111.996 8.13025L112.18 8.13371L112.183 8.00307L112.06 7.95719L111.996 8.13025ZM111.909 12.7567L111.883 12.9397L112.09 12.9693L112.094 12.7602L111.909 12.7567ZM111.025 12.6701L111.006 12.854L111.013 12.8545L111.025 12.6701ZM108.27 12.8953L108.33 13.0703L108.332 13.0695L108.27 12.8953ZM106.988 13.6751L106.857 13.5444L106.855 13.5466L106.988 13.6751ZM106.225 14.94L106.051 14.8791L106.05 14.8828L106.225 14.94ZM105.948 16.6381L105.893 16.8146L106.124 16.8862L106.133 16.6448L105.948 16.6381ZM104.943 16.3262H104.758V16.4624L104.888 16.5027L104.943 16.3262ZM105.307 12.982L105.487 13.0249L105.487 13.0244L105.307 12.982ZM106.364 10.2962L106.207 10.1987L106.206 10.2004L106.364 10.2962ZM108.097 8.52879L108.001 8.37101L108.097 8.52879ZM111.285 7.9743L111.256 8.15695L111.263 8.15781L111.285 7.9743ZM106.162 12.3409V27H106.532V12.3409H106.162ZM106.347 26.8152H101.356V27.1848H106.347V26.8152ZM101.541 27V8.25154H101.172V27H101.541ZM101.356 8.43637H106.052V8.06672H101.356V8.43637ZM105.868 8.26482L106.162 12.3541L106.531 12.3276L106.237 8.23826L105.868 8.26482ZM111.811 8.12679L111.724 12.7533L112.094 12.7602L112.18 8.13371L111.811 8.12679ZM111.935 12.5737C111.686 12.5382 111.387 12.509 111.038 12.4857L111.013 12.8545C111.357 12.8774 111.646 12.9059 111.883 12.9397L111.935 12.5737ZM111.044 12.4862C110.704 12.4511 110.392 12.4333 110.107 12.4333V12.8029C110.377 12.8029 110.676 12.8198 111.006 12.8539L111.044 12.4862ZM110.107 12.4333C109.387 12.4333 108.753 12.5276 108.208 12.7212L108.332 13.0695C108.827 12.8934 109.418 12.8029 110.107 12.8029V12.4333ZM108.21 12.7204C107.678 12.9019 107.226 13.176 106.857 13.5444L107.119 13.8058C107.443 13.4811 107.846 13.2353 108.33 13.0703L108.21 12.7204ZM106.855 13.5466C106.5 13.9141 106.232 14.3595 106.051 14.8791L106.4 15.0009C106.565 14.5271 106.806 14.1291 107.121 13.8035L106.855 13.5466ZM106.05 14.8828C105.882 15.3989 105.787 15.9824 105.764 16.6314L106.133 16.6448C106.156 16.0231 106.246 15.4745 106.401 14.9972L106.05 14.8828ZM106.003 16.4616L104.998 16.1497L104.888 16.5027L105.893 16.8146L106.003 16.4616ZM105.128 16.3262C105.128 15.1255 105.248 14.0253 105.487 13.0249L105.127 12.9391C104.881 13.9717 104.758 15.1011 104.758 16.3262H105.128ZM105.487 13.0244C105.726 12.0118 106.072 11.1351 106.522 10.392L106.206 10.2004C105.732 10.9821 105.373 11.896 105.127 12.9395L105.487 13.0244ZM106.521 10.3937C106.981 9.65279 107.539 9.08559 108.193 8.68656L108.001 8.37101C107.291 8.80371 106.694 9.41478 106.207 10.1987L106.521 10.3937ZM108.193 8.68656C108.843 8.29013 109.589 8.08982 110.436 8.08982V7.72016C109.528 7.72016 108.714 7.93572 108.001 8.37101L108.193 8.68656ZM110.436 8.08982C110.703 8.08982 110.976 8.11206 111.256 8.15681L111.314 7.7918C111.016 7.74413 110.724 7.72016 110.436 7.72016V8.08982ZM111.263 8.15781C111.543 8.19146 111.765 8.241 111.931 8.30331L112.06 7.95719C111.857 7.88088 111.604 7.82646 111.307 7.79079L111.263 8.15781ZM125.442 22.5122H125.257L125.257 22.5243L125.442 22.5122ZM125.442 8.25154V8.06672H125.257V8.25154H125.442ZM130.432 8.25154H130.617V8.06672H130.432V8.25154ZM130.432 27V27.1848H130.617V27H130.432ZM125.736 27L125.552 27.0121L125.563 27.1848H125.736V27ZM125.996 18.6654L125.992 18.4807L125.811 18.4849V18.6654H125.996ZM127.469 18.6308H127.654V18.4415L127.465 18.446L127.469 18.6308ZM127.036 22.1136L127.214 22.1621L127.214 22.1616L127.036 22.1136ZM125.736 24.886L125.884 24.9966L125.885 24.9955L125.736 24.886ZM123.553 26.7054L123.634 26.8716L123.636 26.8707L123.553 26.7054ZM117.922 26.9653L117.861 27.1399L117.864 27.1409L117.922 26.9653ZM115.946 25.7351L115.813 25.8631L115.816 25.8658L115.946 25.7351ZM114.664 23.5691L114.489 23.6283L114.49 23.631L114.664 23.5691ZM114.214 8.25154V8.06672H114.029V8.25154H114.214ZM119.204 8.25154H119.389V8.06672H119.204V8.25154ZM119.394 21.8017L119.219 21.8602L119.221 21.8649L119.394 21.8017ZM120.815 23.2572L120.759 23.4332L120.761 23.4338L120.815 23.2572ZM124.35 22.7894L124.245 22.6374L124.244 22.6384L124.35 22.7894ZM125.615 21.0913L125.441 21.0304L125.44 21.032L125.615 21.0913ZM125.627 22.5122V8.25154H125.257V22.5122H125.627ZM125.442 8.43637H130.432V8.06672H125.442V8.43637ZM130.247 8.25154V27H130.617V8.25154H130.247ZM130.432 26.8152H125.736V27.1848H130.432V26.8152ZM125.921 26.9879L125.626 22.5L125.257 22.5243L125.552 27.0121L125.921 26.9879ZM126.001 18.8502L127.473 18.8155L127.465 18.446L125.992 18.4807L126.001 18.8502ZM127.284 18.6308C127.284 19.8641 127.142 21.0087 126.857 22.0656L127.214 22.1616C127.508 21.0699 127.654 19.8926 127.654 18.6308H127.284ZM126.858 22.0652C126.574 23.1088 126.15 24.0116 125.587 24.7765L125.885 24.9955C126.478 24.1894 126.92 23.244 127.214 22.1621L126.858 22.0652ZM125.588 24.7755C125.028 25.526 124.323 26.1138 123.47 26.5401L123.636 26.8707C124.539 26.4191 125.289 25.794 125.884 24.9966L125.588 24.7755ZM123.472 26.5393C122.624 26.952 121.619 27.1617 120.451 27.1617V27.5314C121.663 27.5314 122.726 27.3137 123.634 26.8716L123.472 26.5393ZM120.451 27.1617C119.556 27.1617 118.733 27.0371 117.979 26.7897L117.864 27.1409C118.659 27.4019 119.522 27.5314 120.451 27.5314V27.1617ZM117.982 26.7908C117.246 26.534 116.611 26.1386 116.077 25.6044L115.816 25.8658C116.39 26.4405 117.073 26.8653 117.861 27.1399L117.982 26.7908ZM116.08 25.6071C115.558 25.0632 115.143 24.3651 114.838 23.5073L114.49 23.631C114.809 24.529 115.249 25.2749 115.813 25.863L116.08 25.6071ZM114.839 23.51C114.547 22.6447 114.398 21.5972 114.398 20.3635H114.029C114.029 21.625 114.18 22.7146 114.489 23.6283L114.839 23.51ZM114.398 20.3635V8.25154H114.029V20.3635H114.398ZM114.214 8.43637H119.204V8.06672H114.214V8.43637ZM119.019 8.25154V20.3982H119.389V8.25154H119.019ZM119.019 20.3982C119.019 20.9656 119.084 21.4545 119.219 21.8602L119.57 21.7433C119.451 21.3866 119.389 20.9398 119.389 20.3982H119.019ZM119.221 21.8649C119.367 22.2669 119.571 22.6033 119.836 22.8681L120.097 22.6067C119.877 22.3864 119.699 22.099 119.568 21.7386L119.221 21.8649ZM119.836 22.8681C120.099 23.1312 120.407 23.3202 120.759 23.4332L120.872 23.0813C120.577 22.9864 120.319 22.8288 120.097 22.6067L119.836 22.8681ZM120.761 23.4338C121.116 23.544 121.504 23.598 121.924 23.598V23.2284C121.536 23.2284 121.185 23.1784 120.87 23.0807L120.761 23.4338ZM121.924 23.598C122.975 23.598 123.826 23.3858 124.457 22.9404L124.244 22.6384C123.696 23.0247 122.93 23.2284 121.924 23.2284V23.598ZM124.455 22.9414C125.09 22.5021 125.535 21.903 125.79 21.1506L125.44 21.032C125.21 21.712 124.812 22.245 124.245 22.6374L124.455 22.9414ZM125.79 21.1522C126.051 20.4021 126.181 19.5725 126.181 18.6654H125.811C125.811 19.5373 125.687 20.3249 125.441 21.0304L125.79 21.1522ZM143.618 23.1013L143.699 23.2674L143.703 23.2658L143.618 23.1013ZM144.727 22.0963L144.571 21.9976L144.57 21.9987L144.727 22.0963ZM145.161 20.5541V20.3693H144.979L144.976 20.5505L145.161 20.5541ZM149.856 20.5541L150.041 20.5558L150.043 20.3693H149.856V20.5541ZM148.799 24.0716L148.952 24.1758L148.953 24.175L148.799 24.0716ZM146.01 26.4802L146.092 26.6458L146.093 26.6452L146.01 26.4802ZM138.282 26.6188L138.205 26.7872L138.206 26.7875L138.282 26.6188ZM135.596 24.6088L135.453 24.7266L135.454 24.7275L135.596 24.6088ZM133.984 21.5938L133.808 21.6485L133.808 21.649L133.984 21.5938ZM133.984 13.6751L134.161 13.7303L134.161 13.7298L133.984 13.6751ZM135.596 10.6601L135.737 10.7788L135.738 10.7778L135.596 10.6601ZM146.096 8.7887L146.012 8.95335L146.013 8.95369L146.096 8.7887ZM148.834 11.3185L148.676 11.4136L148.677 11.4156L148.834 11.3185ZM149.856 15.1826V15.3674H150.043L150.041 15.1811L149.856 15.1826ZM145.161 15.1826L144.976 15.186L144.979 15.3674H145.161V15.1826ZM144.762 13.4845L144.595 13.5641L144.597 13.5671L144.762 13.4845ZM143.688 12.2715L143.584 12.4248L143.589 12.4276L143.688 12.2715ZM140.188 12.2715L140.288 12.4265L140.291 12.4247L140.188 12.2715ZM139.113 13.5191L139.279 13.6003L139.28 13.5989L139.113 13.5191ZM138.576 15.3039L138.393 15.2755L138.393 15.2782L138.576 15.3039ZM139.096 21.7671L138.93 21.8483L138.931 21.8512L139.096 21.7671ZM140.188 22.9973L140.087 23.1523L140.188 22.9973ZM141.99 23.6327C142.625 23.6327 143.197 23.5126 143.699 23.2674L143.537 22.9352C143.093 23.1521 142.578 23.263 141.99 23.263V23.6327ZM143.703 23.2658C144.204 23.0088 144.6 22.6514 144.884 22.1939L144.57 21.9987C144.323 22.396 143.98 22.7086 143.534 22.9368L143.703 23.2658ZM144.884 22.195C145.181 21.7238 145.333 21.1759 145.345 20.5578L144.976 20.5505C144.965 21.1106 144.828 21.5908 144.571 21.9976L144.884 22.195ZM145.161 20.739H149.856V20.3693H145.161V20.739ZM149.672 20.5525C149.66 21.8355 149.318 22.9722 148.646 23.9683L148.953 24.175C149.667 23.1149 150.029 21.9065 150.041 20.5558L149.672 20.5525ZM148.647 23.9675C147.972 24.9566 147.067 25.7392 145.926 26.3152L146.093 26.6452C147.286 26.0428 148.24 25.2198 148.952 24.1758L148.647 23.9675ZM145.928 26.3145C144.789 26.8782 143.512 27.1617 142.094 27.1617V27.5314C143.563 27.5314 144.897 27.2373 146.092 26.6458L145.928 26.3145ZM142.094 27.1617C140.658 27.1617 139.414 26.9225 138.357 26.45L138.206 26.7875C139.32 27.2854 140.618 27.5314 142.094 27.5314V27.1617ZM138.358 26.4503C137.307 25.9759 136.435 25.3224 135.737 24.4901L135.454 24.7275C136.189 25.6048 137.107 26.2913 138.205 26.7872L138.358 26.4503ZM135.738 24.491C135.038 23.6443 134.512 22.6609 134.161 21.5386L133.808 21.649C134.173 22.814 134.721 23.8405 135.453 24.7266L135.738 24.491ZM134.161 21.5391C133.809 20.4031 133.632 19.1857 133.632 17.8857H133.262C133.262 19.2195 133.444 20.4741 133.808 21.6485L134.161 21.5391ZM133.632 17.8857V17.3832H133.262V17.8857H133.632ZM133.632 17.3832C133.632 16.0715 133.809 14.8542 134.161 13.7303L133.808 13.6198C133.444 14.7832 133.262 16.038 133.262 17.3832H133.632ZM134.161 13.7298C134.512 12.5961 135.038 11.6133 135.737 10.7788L135.454 10.5414C134.721 11.4165 134.172 12.4437 133.808 13.6204L134.161 13.7298ZM135.738 10.7778C136.436 9.93426 137.308 9.27534 138.358 8.8012L138.205 8.4643C137.107 8.9605 136.188 9.65314 135.453 10.5423L135.738 10.7778ZM138.358 8.8012C139.403 8.32897 140.635 8.08982 142.059 8.08982V7.72016C140.595 7.72016 139.308 7.96619 138.205 8.4643L138.358 8.8012ZM142.059 8.08982C143.572 8.08982 144.888 8.37972 146.012 8.95335L146.18 8.62405C144.995 8.01941 143.619 7.72016 142.059 7.72016V8.08982ZM146.013 8.95369C147.149 9.52745 148.035 10.3468 148.676 11.4136L148.993 11.2234C148.316 10.0954 147.377 9.22823 146.18 8.62371L146.013 8.95369ZM148.677 11.4156C149.326 12.4682 149.66 13.7219 149.672 15.184L150.041 15.1811C150.029 13.6629 149.682 12.3406 148.991 11.2215L148.677 11.4156ZM149.856 14.9978H145.161V15.3674H149.856V14.9978ZM145.345 15.1792C145.333 14.5306 145.195 13.9371 144.927 13.4018L144.597 13.5671C144.837 14.0484 144.965 14.587 144.976 15.186L145.345 15.1792ZM144.929 13.4049C144.671 12.8654 144.29 12.4345 143.787 12.1155L143.589 12.4276C144.033 12.7093 144.368 13.087 144.595 13.5641L144.929 13.4049ZM143.791 12.1184C143.292 11.7816 142.682 11.6189 141.972 11.6189V11.9885C142.625 11.9885 143.159 12.1377 143.584 12.4247L143.791 12.1184ZM141.972 11.6189C141.219 11.6189 140.585 11.7804 140.084 12.1184L140.291 12.4247C140.714 12.1389 141.27 11.9885 141.972 11.9885V11.6189ZM140.087 12.1166C139.594 12.4367 139.214 12.8795 138.947 13.4394L139.28 13.5989C139.521 13.096 139.857 12.707 140.288 12.4265L140.087 12.1166ZM138.947 13.438C138.684 13.977 138.5 14.5903 138.393 15.2755L138.759 15.3322C138.86 14.6775 139.035 14.1009 139.279 13.6003L138.947 13.438ZM138.393 15.2782C138.299 15.9459 138.253 16.6476 138.253 17.3832H138.622C138.622 16.6632 138.668 15.9787 138.759 15.3296L138.393 15.2782ZM138.253 17.3832V17.8857H138.622V17.3832H138.253ZM138.253 17.8857C138.253 18.6213 138.299 19.3286 138.393 20.0076L138.759 19.9571C138.668 19.296 138.622 18.6056 138.622 17.8857H138.253ZM138.393 20.0076C138.488 20.6938 138.666 21.3081 138.93 21.8482L139.262 21.6859C139.018 21.1864 138.849 20.6108 138.759 19.9571L138.393 20.0076ZM138.931 21.8512C139.211 22.398 139.596 22.8333 140.087 23.1523L140.288 22.8424C139.855 22.5607 139.512 22.1758 139.261 21.6829L138.931 21.8512ZM140.087 23.1523C140.588 23.4777 141.226 23.6327 141.99 23.6327V23.263C141.274 23.263 140.712 23.1176 140.288 22.8424L140.087 23.1523ZM157.74 0.367489H157.925V0.182661H157.74V0.367489ZM157.74 27V27.1848H157.925V27H157.74ZM152.75 27H152.565V27.1848H152.75V27ZM152.75 0.367489V0.182661H152.565V0.367489H152.75ZM169.558 8.25154L169.697 8.3734L169.966 8.06672H169.558V8.25154ZM161.414 17.5391L161.546 17.6693L161.553 17.661L161.414 17.5391ZM157.047 21.9577L156.882 22.041L156.998 22.2704L157.179 22.0876L157.047 21.9577ZM155.228 18.3535L155.083 18.2392L155.01 18.3317L155.063 18.4368L155.228 18.3535ZM158.693 13.9523L158.553 13.8322L158.548 13.838L158.693 13.9523ZM163.562 8.25154V8.06672H163.477L163.422 8.13151L163.562 8.25154ZM164.377 27L164.221 27.0996L164.276 27.1848H164.377V27ZM158.832 18.3362L158.71 18.1971L158.591 18.3018L158.676 18.4358L158.832 18.3362ZM162.28 15.3212L162.434 15.2181L162.317 15.0439L162.159 15.1821L162.28 15.3212ZM170.13 27V27.1848H170.477L170.283 26.8969L170.13 27ZM157.556 0.367489V27H157.925V0.367489H157.556ZM157.74 26.8152H152.75V27.1848H157.74V26.8152ZM152.935 27V0.367489H152.565V27H152.935ZM152.75 0.552316H157.74V0.182661H152.75V0.552316ZM169.419 8.12969L161.275 17.4173L161.553 17.661L169.697 8.3734L169.419 8.12969ZM161.282 17.4092L156.916 21.8278L157.179 22.0876L161.545 17.6691L161.282 17.4092ZM157.212 21.8744L155.393 18.2702L155.063 18.4368L156.882 22.041L157.212 21.8744ZM155.373 18.4679L158.839 14.0667L158.548 13.838L155.083 18.2392L155.373 18.4679ZM158.834 14.0724L163.703 8.37158L163.422 8.13151L158.553 13.8323L158.834 14.0724ZM163.562 8.43637H169.558V8.06672H163.562V8.43637ZM164.533 26.9004L158.988 18.2366L158.676 18.4358L164.221 27.0996L164.533 26.9004ZM158.954 18.4753L162.402 15.4603L162.159 15.1821L158.71 18.1971L158.954 18.4753ZM162.127 15.4243L169.976 27.1031L170.283 26.8969L162.434 15.2181L162.127 15.4243ZM170.13 26.8152H164.377V27.1848H170.13V26.8152Z" fill="black"/>
</g>
<defs>
<filter id="filter0_d_49_13" x="0.642717" y="0.367432" width="170.966" height="36.9714" filterUnits="userSpaceOnUse" color-interpolation-filters="sRGB">
<feFlood flood-opacity="0" result="BackgroundImageFix"/>
<feColorMatrix in="SourceAlpha" type="matrix" values="0 0 0 0 0 0 0 0 0 0 0 0 0 0 0 0 0 0 127 0" result="hardAlpha"/>
<feOffset dy="1.47862"/>
<feGaussianBlur stdDeviation="0.739311"/>
<feComposite in2="hardAlpha" operator="out"/>
<feColorMatrix type="matrix" values="0 0 0 0 0 0 0 0 0 0 0 0 0 0 0 0 0 0 0.25 0"/>
<feBlend mode="normal" in2="BackgroundImageFix" result="effect1_dropShadow_49_13"/>
<feBlend mode="normal" in="SourceGraphic" in2="effect1_dropShadow_49_13" result="shape"/>
</filter>
</defs>
</svg>
