<svg width="684" height="182" viewBox="0 0 684 182" fill="none" xmlns="http://www.w3.org/2000/svg">
<g filter="url(#filter0_d_45_2)">
<path d="M243.844 92.4219L225.281 149H210.328L235.688 80.75H245.203L243.844 92.4219ZM259.266 149L240.656 92.4219L239.156 80.75H248.766L274.266 149H259.266ZM258.422 123.594V134.609H222.375V123.594H258.422ZM311.859 98.2812H324.094V147.312C324.094 151.938 323.062 155.859 321 159.078C318.969 162.328 316.125 164.781 312.469 166.438C308.812 168.125 304.562 168.969 299.719 168.969C297.594 168.969 295.344 168.688 292.969 168.125C290.625 167.562 288.375 166.688 286.219 165.5C284.094 164.312 282.312 162.812 280.875 161L286.828 153.031C288.391 154.844 290.203 156.25 292.266 157.25C294.328 158.281 296.609 158.797 299.109 158.797C301.547 158.797 303.609 158.344 305.297 157.438C306.984 156.562 308.281 155.266 309.188 153.547C310.094 151.859 310.547 149.812 310.547 147.406V110L311.859 98.2812ZM277.734 124.25V123.266C277.734 119.391 278.203 115.875 279.141 112.719C280.109 109.531 281.469 106.797 283.219 104.516C285 102.234 287.156 100.469 289.688 99.2188C292.219 97.9688 295.078 97.3438 298.266 97.3438C301.641 97.3438 304.469 97.9688 306.75 99.2188C309.031 100.469 310.906 102.25 312.375 104.562C313.844 106.844 314.984 109.547 315.797 112.672C316.641 115.766 317.297 119.156 317.766 122.844V125C317.297 128.531 316.594 131.812 315.656 134.844C314.719 137.875 313.484 140.531 311.953 142.812C310.422 145.062 308.516 146.812 306.234 148.062C303.984 149.312 301.297 149.938 298.172 149.938C295.047 149.938 292.219 149.297 289.688 148.016C287.188 146.734 285.047 144.938 283.266 142.625C281.484 140.312 280.109 137.594 279.141 134.469C278.203 131.344 277.734 127.938 277.734 124.25ZM291.234 123.266V124.25C291.234 126.344 291.438 128.297 291.844 130.109C292.25 131.922 292.875 133.531 293.719 134.938C294.594 136.312 295.672 137.391 296.953 138.172C298.266 138.922 299.812 139.297 301.594 139.297C304.062 139.297 306.078 138.781 307.641 137.75C309.203 136.688 310.375 135.234 311.156 133.391C311.938 131.547 312.391 129.422 312.516 127.016V120.875C312.453 118.906 312.188 117.141 311.719 115.578C311.25 113.984 310.594 112.625 309.75 111.5C308.906 110.375 307.812 109.5 306.469 108.875C305.125 108.25 303.531 107.938 301.688 107.938C299.906 107.938 298.359 108.344 297.047 109.156C295.766 109.938 294.688 111.016 293.812 112.391C292.969 113.766 292.328 115.391 291.891 117.266C291.453 119.109 291.234 121.109 291.234 123.266ZM348.094 109.344V149H334.594V98.2812H347.297L348.094 109.344ZM363.375 97.9531L363.141 110.469C362.484 110.375 361.688 110.297 360.75 110.234C359.844 110.141 359.016 110.094 358.266 110.094C356.359 110.094 354.703 110.344 353.297 110.844C351.922 111.312 350.766 112.016 349.828 112.953C348.922 113.891 348.234 115.031 347.766 116.375C347.328 117.719 347.078 119.25 347.016 120.969L344.297 120.125C344.297 116.844 344.625 113.828 345.281 111.078C345.938 108.297 346.891 105.875 348.141 103.812C349.422 101.75 350.984 100.156 352.828 99.0312C354.672 97.9062 356.781 97.3438 359.156 97.3438C359.906 97.3438 360.672 97.4062 361.453 97.5312C362.234 97.625 362.875 97.7656 363.375 97.9531ZM366.188 124.156V123.172C366.188 119.453 366.719 116.031 367.781 112.906C368.844 109.75 370.391 107.016 372.422 104.703C374.453 102.391 376.953 100.594 379.922 99.3125C382.891 98 386.297 97.3438 390.141 97.3438C393.984 97.3438 397.406 98 400.406 99.3125C403.406 100.594 405.922 102.391 407.953 104.703C410.016 107.016 411.578 109.75 412.641 112.906C413.703 116.031 414.234 119.453 414.234 123.172V124.156C414.234 127.844 413.703 131.266 412.641 134.422C411.578 137.547 410.016 140.281 407.953 142.625C405.922 144.938 403.422 146.734 400.453 148.016C397.484 149.297 394.078 149.938 390.234 149.938C386.391 149.938 382.969 149.297 379.969 148.016C377 146.734 374.484 144.938 372.422 142.625C370.391 140.281 368.844 137.547 367.781 134.422C366.719 131.266 366.188 127.844 366.188 124.156ZM379.688 123.172V124.156C379.688 126.281 379.875 128.266 380.25 130.109C380.625 131.953 381.219 133.578 382.031 134.984C382.875 136.359 383.969 137.438 385.312 138.219C386.656 139 388.297 139.391 390.234 139.391C392.109 139.391 393.719 139 395.062 138.219C396.406 137.438 397.484 136.359 398.297 134.984C399.109 133.578 399.703 131.953 400.078 130.109C400.484 128.266 400.688 126.281 400.688 124.156V123.172C400.688 121.109 400.484 119.172 400.078 117.359C399.703 115.516 399.094 113.891 398.25 112.484C397.438 111.047 396.359 109.922 395.016 109.109C393.672 108.297 392.047 107.891 390.141 107.891C388.234 107.891 386.609 108.297 385.266 109.109C383.953 109.922 382.875 111.047 382.031 112.484C381.219 113.891 380.625 115.516 380.25 117.359C379.875 119.172 379.688 121.109 379.688 123.172ZM453.891 80.75V149H439.875V80.75H453.891ZM474.891 80.75V91.7656H419.203V80.75H474.891ZM492.281 109.344V149H478.781V98.2812H491.484L492.281 109.344ZM507.562 97.9531L507.328 110.469C506.672 110.375 505.875 110.297 504.938 110.234C504.031 110.141 503.203 110.094 502.453 110.094C500.547 110.094 498.891 110.344 497.484 110.844C496.109 111.312 494.953 112.016 494.016 112.953C493.109 113.891 492.422 115.031 491.953 116.375C491.516 117.719 491.266 119.25 491.203 120.969L488.484 120.125C488.484 116.844 488.812 113.828 489.469 111.078C490.125 108.297 491.078 105.875 492.328 103.812C493.609 101.75 495.172 100.156 497.016 99.0312C498.859 97.9062 500.969 97.3438 503.344 97.3438C504.094 97.3438 504.859 97.4062 505.641 97.5312C506.422 97.625 507.062 97.7656 507.562 97.9531ZM543.938 136.859V98.2812H557.438V149H544.734L543.938 136.859ZM545.438 126.453L549.422 126.359C549.422 129.734 549.031 132.875 548.25 135.781C547.469 138.656 546.297 141.156 544.734 143.281C543.172 145.375 541.203 147.016 538.828 148.203C536.453 149.359 533.656 149.938 530.438 149.938C527.969 149.938 525.688 149.594 523.594 148.906C521.531 148.188 519.75 147.078 518.25 145.578C516.781 144.047 515.625 142.094 514.781 139.719C513.969 137.312 513.562 134.422 513.562 131.047V98.2812H527.062V131.141C527.062 132.641 527.234 133.906 527.578 134.938C527.953 135.969 528.469 136.812 529.125 137.469C529.781 138.125 530.547 138.594 531.422 138.875C532.328 139.156 533.328 139.297 534.422 139.297C537.203 139.297 539.391 138.734 540.984 137.609C542.609 136.484 543.75 134.953 544.406 133.016C545.094 131.047 545.438 128.859 545.438 126.453ZM588.703 139.391C590.359 139.391 591.828 139.078 593.109 138.453C594.391 137.797 595.391 136.891 596.109 135.734C596.859 134.547 597.25 133.156 597.281 131.562H609.984C609.953 135.125 609 138.297 607.125 141.078C605.25 143.828 602.734 146 599.578 147.594C596.422 149.156 592.891 149.938 588.984 149.938C585.047 149.938 581.609 149.281 578.672 147.969C575.766 146.656 573.344 144.844 571.406 142.531C569.469 140.188 568.016 137.469 567.047 134.375C566.078 131.25 565.594 127.906 565.594 124.344V122.984C565.594 119.391 566.078 116.047 567.047 112.953C568.016 109.828 569.469 107.109 571.406 104.797C573.344 102.453 575.766 100.625 578.672 99.3125C581.578 98 584.984 97.3438 588.891 97.3438C593.047 97.3438 596.688 98.1406 599.812 99.7344C602.969 101.328 605.438 103.609 607.219 106.578C609.031 109.516 609.953 113 609.984 117.031H597.281C597.25 115.344 596.891 113.812 596.203 112.438C595.547 111.062 594.578 109.969 593.297 109.156C592.047 108.312 590.5 107.891 588.656 107.891C586.688 107.891 585.078 108.312 583.828 109.156C582.578 109.969 581.609 111.094 580.922 112.531C580.234 113.938 579.75 115.547 579.469 117.359C579.219 119.141 579.094 121.016 579.094 122.984V124.344C579.094 126.312 579.219 128.203 579.469 130.016C579.719 131.828 580.188 133.438 580.875 134.844C581.594 136.25 582.578 137.359 583.828 138.172C585.078 138.984 586.703 139.391 588.703 139.391ZM631.312 76.9531V149H617.812V76.9531H631.312ZM663.281 98.2812L641.25 123.406L629.438 135.359L624.516 125.609L633.891 113.703L647.062 98.2812H663.281ZM649.266 149L634.266 125.562L643.594 117.406L664.828 149H649.266Z" fill="#459938"/>
<path d="M243.844 92.4219L244.319 92.5777L244.335 92.5298L244.34 92.4797L243.844 92.4219ZM225.281 149V149.5H225.643L225.756 149.156L225.281 149ZM210.328 149L209.859 148.826L209.609 149.5H210.328V149ZM235.688 80.75V80.25H235.34L235.219 80.5758L235.688 80.75ZM245.203 80.75L245.7 80.8078L245.765 80.25H245.203V80.75ZM259.266 149L258.791 149.156L258.904 149.5H259.266V149ZM240.656 92.4219L240.16 92.4856L240.166 92.5329L240.181 92.5781L240.656 92.4219ZM239.156 80.75V80.25H238.588L238.66 80.8137L239.156 80.75ZM248.766 80.75L249.234 80.575L249.113 80.25H248.766V80.75ZM274.266 149V149.5H274.986L274.734 148.825L274.266 149ZM258.422 123.594H258.922V123.094H258.422V123.594ZM258.422 134.609V135.109H258.922V134.609H258.422ZM222.375 134.609H221.875V135.109H222.375V134.609ZM222.375 123.594V123.094H221.875V123.594H222.375ZM243.369 92.266L224.806 148.844L225.756 149.156L244.319 92.5777L243.369 92.266ZM225.281 148.5H210.328V149.5H225.281V148.5ZM210.797 149.174L236.156 80.9242L235.219 80.5758L209.859 148.826L210.797 149.174ZM235.688 81.25H245.203V80.25H235.688V81.25ZM244.706 80.6922L243.347 92.364L244.34 92.4797L245.7 80.8078L244.706 80.6922ZM259.741 148.844L241.131 92.2657L240.181 92.5781L258.791 149.156L259.741 148.844ZM241.152 92.3581L239.652 80.6863L238.66 80.8137L240.16 92.4856L241.152 92.3581ZM239.156 81.25H248.766V80.25H239.156V81.25ZM248.297 80.925L273.797 149.175L274.734 148.825L249.234 80.575L248.297 80.925ZM274.266 148.5H259.266V149.5H274.266V148.5ZM257.922 123.594V134.609H258.922V123.594H257.922ZM258.422 134.109H222.375V135.109H258.422V134.109ZM222.875 134.609V123.594H221.875V134.609H222.875ZM222.375 124.094H258.422V123.094H222.375V124.094ZM311.859 98.2812V97.7812H311.412L311.362 98.2256L311.859 98.2812ZM324.094 98.2812H324.594V97.7812H324.094V98.2812ZM321 159.078L320.579 158.808L320.576 158.813L321 159.078ZM312.469 166.438L312.262 165.982L312.259 165.984L312.469 166.438ZM292.969 168.125L292.852 168.611L292.854 168.612L292.969 168.125ZM286.219 165.5L285.975 165.936L285.978 165.938L286.219 165.5ZM280.875 161L280.474 160.701L280.244 161.009L280.483 161.311L280.875 161ZM286.828 153.031L287.207 152.705L286.8 152.233L286.428 152.732L286.828 153.031ZM292.266 157.25L292.489 156.803L292.484 156.8L292.266 157.25ZM305.297 157.438L305.067 156.994L305.06 156.997L305.297 157.438ZM309.188 153.547L308.747 153.31L308.745 153.314L309.188 153.547ZM310.547 110L310.05 109.944L310.047 109.972V110H310.547ZM279.141 112.719L278.662 112.573L278.661 112.576L279.141 112.719ZM283.219 104.516L282.825 104.208L282.822 104.211L283.219 104.516ZM312.375 104.562L311.953 104.831L311.955 104.833L312.375 104.562ZM315.797 112.672L315.313 112.798L315.314 112.803L315.797 112.672ZM317.766 122.844H318.266V122.812L318.262 122.781L317.766 122.844ZM317.766 125L318.261 125.066L318.266 125.033V125H317.766ZM311.953 142.812L312.366 143.094L312.368 143.091L311.953 142.812ZM306.234 148.062L305.994 147.624L305.992 147.625L306.234 148.062ZM289.688 148.016L289.459 148.461L289.462 148.462L289.688 148.016ZM279.141 134.469L278.662 134.612L278.663 134.617L279.141 134.469ZM293.719 134.938L293.29 135.195L293.297 135.206L293.719 134.938ZM296.953 138.172L296.693 138.599L296.699 138.602L296.705 138.606L296.953 138.172ZM307.641 137.75L307.916 138.167L307.922 138.163L307.641 137.75ZM312.516 127.016L313.015 127.042L313.016 127.029V127.016H312.516ZM312.516 120.875H313.016V120.867L313.015 120.859L312.516 120.875ZM311.719 115.578L311.239 115.719L311.24 115.722L311.719 115.578ZM297.047 109.156L297.307 109.583L297.31 109.581L297.047 109.156ZM293.812 112.391L293.391 112.122L293.386 112.129L293.812 112.391ZM291.891 117.266L292.377 117.381L292.378 117.379L291.891 117.266ZM311.859 98.7812H324.094V97.7812H311.859V98.7812ZM323.594 98.2812V147.312H324.594V98.2812H323.594ZM323.594 147.312C323.594 151.862 322.58 155.686 320.579 158.808L321.421 159.348C323.545 156.033 324.594 152.013 324.594 147.312H323.594ZM320.576 158.813C318.6 161.976 315.833 164.364 312.262 165.982L312.675 166.893C316.417 165.198 319.338 162.681 321.424 159.343L320.576 158.813ZM312.259 165.984C308.681 167.635 304.505 168.469 299.719 168.469V169.469C304.62 169.469 308.944 168.615 312.678 166.891L312.259 165.984ZM299.719 168.469C297.638 168.469 295.427 168.193 293.084 167.638L292.854 168.612C295.261 169.182 297.55 169.469 299.719 169.469V168.469ZM293.085 167.639C290.786 167.087 288.578 166.228 286.46 165.062L285.978 165.938C288.172 167.147 290.464 168.038 292.852 168.611L293.085 167.639ZM286.463 165.064C284.392 163.906 282.662 162.448 281.267 160.689L280.483 161.311C281.963 163.177 283.796 164.719 285.975 165.936L286.463 165.064ZM281.276 161.299L287.229 153.33L286.428 152.732L280.474 160.701L281.276 161.299ZM286.449 153.358C288.054 155.22 289.921 156.669 292.047 157.7L292.484 156.8C290.485 155.831 288.727 154.468 287.207 152.705L286.449 153.358ZM292.042 157.697C294.18 158.766 296.538 159.297 299.109 159.297V158.297C296.68 158.297 294.477 157.796 292.489 156.803L292.042 157.697ZM299.109 159.297C301.607 159.297 303.756 158.833 305.533 157.878L305.06 156.997C303.463 157.855 301.486 158.297 299.109 158.297V159.297ZM305.527 157.881C307.307 156.958 308.677 155.587 309.63 153.78L308.745 153.314C307.885 154.944 306.662 156.167 305.067 156.994L305.527 157.881ZM309.628 153.783C310.582 152.007 311.047 149.874 311.047 147.406H310.047C310.047 149.751 309.605 151.712 308.747 153.31L309.628 153.783ZM311.047 147.406V110H310.047V147.406H311.047ZM311.044 110.056L312.356 98.3369L311.362 98.2256L310.05 109.944L311.044 110.056ZM278.234 124.25V123.266H277.234V124.25H278.234ZM278.234 123.266C278.234 119.431 278.698 115.964 279.62 112.861L278.661 112.576C277.708 115.786 277.234 119.351 277.234 123.266H278.234ZM279.619 112.864C280.573 109.725 281.907 107.047 283.615 104.82L282.822 104.211C281.03 106.547 279.646 109.337 278.662 112.573L279.619 112.864ZM283.613 104.823C285.349 102.6 287.447 100.883 289.909 99.6671L289.466 98.7704C286.866 100.055 284.651 101.869 282.825 104.208L283.613 104.823ZM289.909 99.6671C292.363 98.4552 295.145 97.8438 298.266 97.8438V96.8438C295.011 96.8438 292.075 97.4823 289.466 98.7704L289.909 99.6671ZM298.266 97.8438C301.581 97.8438 304.321 98.4578 306.51 99.6572L306.99 98.7803C304.617 97.4797 301.7 96.8438 298.266 96.8438V97.8438ZM306.51 99.6572C308.713 100.865 310.527 102.585 311.953 104.831L312.797 104.294C311.286 101.915 309.349 100.073 306.99 98.7803L306.51 99.6572ZM311.955 104.833C313.39 107.062 314.511 109.715 315.313 112.798L316.281 112.546C315.457 109.379 314.298 106.625 312.795 104.292L311.955 104.833ZM315.314 112.803C316.151 115.871 316.803 119.239 317.27 122.907L318.262 122.781C317.79 119.074 317.13 115.66 316.279 112.54L315.314 112.803ZM317.266 122.844V125H318.266V122.844H317.266ZM317.27 124.934C316.804 128.441 316.107 131.695 315.179 134.696L316.134 134.991C317.081 131.93 317.789 128.621 318.261 125.066L317.27 124.934ZM315.179 134.696C314.253 137.688 313.038 140.299 311.538 142.534L312.368 143.091C313.93 140.764 315.184 138.062 316.134 134.991L315.179 134.696ZM311.54 142.531C310.051 144.719 308.203 146.414 305.994 147.624L306.475 148.501C308.828 147.211 310.793 145.406 312.366 143.094L311.54 142.531ZM305.992 147.625C303.83 148.826 301.23 149.438 298.172 149.438V150.438C301.364 150.438 304.139 149.799 306.477 148.5L305.992 147.625ZM298.172 149.438C295.117 149.438 292.368 148.812 289.913 147.57L289.462 148.462C292.07 149.782 294.977 150.438 298.172 150.438V149.438ZM289.916 147.571C287.484 146.324 285.4 144.576 283.662 142.32L282.87 142.93C284.694 145.299 286.891 147.144 289.459 148.461L289.916 147.571ZM283.662 142.32C281.921 140.06 280.571 137.396 279.618 134.321L278.663 134.617C279.647 137.792 281.048 140.565 282.87 142.93L283.662 142.32ZM279.62 134.325C278.698 131.252 278.234 127.895 278.234 124.25H277.234C277.234 127.98 277.709 131.435 278.662 134.612L279.62 134.325ZM290.734 123.266V124.25H291.734V123.266H290.734ZM290.734 124.25C290.734 126.376 290.941 128.366 291.356 130.219L292.332 130C291.934 128.228 291.734 126.312 291.734 124.25H290.734ZM291.356 130.219C291.772 132.077 292.415 133.737 293.29 135.195L294.147 134.68C293.335 133.325 292.728 131.767 292.332 130L291.356 130.219ZM293.297 135.206C294.209 136.64 295.341 137.774 296.693 138.599L297.213 137.745C296.003 137.007 294.978 135.985 294.141 134.669L293.297 135.206ZM296.705 138.606C298.106 139.406 299.741 139.797 301.594 139.797V138.797C299.884 138.797 298.426 138.437 297.201 137.738L296.705 138.606ZM301.594 139.797C304.13 139.797 306.25 139.267 307.916 138.167L307.365 137.333C305.907 138.295 303.995 138.797 301.594 138.797V139.797ZM307.922 138.163C309.569 137.044 310.8 135.512 311.617 133.586L310.696 133.196C309.95 134.956 308.838 136.331 307.359 137.337L307.922 138.163ZM311.617 133.586C312.425 131.679 312.888 129.495 313.015 127.042L312.016 126.99C311.894 129.349 311.45 131.415 310.696 133.196L311.617 133.586ZM313.016 127.016V120.875H312.016V127.016H313.016ZM313.015 120.859C312.952 118.856 312.681 117.046 312.198 115.434L311.24 115.722C311.694 117.235 311.954 118.957 312.016 120.891L313.015 120.859ZM312.198 115.437C311.716 113.796 311.035 112.381 310.15 111.2L309.35 111.8C310.152 112.869 310.784 114.173 311.239 115.719L312.198 115.437ZM310.15 111.2C309.254 110.006 308.094 109.079 306.68 108.422L306.258 109.328C307.531 109.921 308.558 110.744 309.35 111.8L310.15 111.2ZM306.68 108.422C305.256 107.759 303.587 107.438 301.688 107.438V108.438C303.476 108.438 304.994 108.741 306.258 109.328L306.68 108.422ZM301.688 107.438C299.828 107.438 298.187 107.863 296.784 108.731L297.31 109.581C298.532 108.825 299.985 108.438 301.688 108.438V107.438ZM296.787 108.729C295.435 109.554 294.303 110.688 293.391 112.122L294.234 112.659C295.072 111.343 296.097 110.321 297.307 109.583L296.787 108.729ZM293.386 112.129C292.51 113.558 291.851 115.235 291.404 117.152L292.378 117.379C292.805 115.547 293.428 113.974 294.239 112.652L293.386 112.129ZM291.404 117.15C290.957 119.037 290.734 121.076 290.734 123.266H291.734C291.734 121.143 291.95 119.182 292.377 117.381L291.404 117.15ZM348.094 109.344H348.594V109.326L348.592 109.308L348.094 109.344ZM348.094 149V149.5H348.594V149H348.094ZM334.594 149H334.094V149.5H334.594V149ZM334.594 98.2812V97.7812H334.094V98.2812H334.594ZM347.297 98.2812L347.796 98.2453L347.762 97.7812H347.297V98.2812ZM363.375 97.9531L363.875 97.9625L363.882 97.6091L363.551 97.485L363.375 97.9531ZM363.141 110.469L363.07 110.964L363.63 111.044L363.641 110.478L363.141 110.469ZM360.75 110.234L360.699 110.732L360.708 110.733L360.717 110.733L360.75 110.234ZM353.297 110.844L353.458 111.317L353.464 111.315L353.297 110.844ZM349.828 112.953L349.475 112.6L349.469 112.606L349.828 112.953ZM347.766 116.375L347.293 116.21L347.29 116.22L347.766 116.375ZM347.016 120.969L346.867 121.446L347.492 121.64L347.515 120.987L347.016 120.969ZM344.297 120.125H343.797V120.493L344.149 120.603L344.297 120.125ZM345.281 111.078L345.768 111.194L345.768 111.193L345.281 111.078ZM348.141 103.812L347.716 103.549L347.713 103.553L348.141 103.812ZM361.453 97.5312L361.374 98.025L361.384 98.0265L361.394 98.0277L361.453 97.5312ZM347.594 109.344V149H348.594V109.344H347.594ZM348.094 148.5H334.594V149.5H348.094V148.5ZM335.094 149V98.2812H334.094V149H335.094ZM334.594 98.7812H347.297V97.7812H334.594V98.7812ZM346.798 98.3172L347.595 109.38L348.592 109.308L347.796 98.2453L346.798 98.3172ZM362.875 97.9438L362.641 110.459L363.641 110.478L363.875 97.9625L362.875 97.9438ZM363.211 109.974C362.539 109.878 361.729 109.799 360.783 109.735L360.717 110.733C361.646 110.795 362.43 110.872 363.07 110.964L363.211 109.974ZM360.801 109.737C359.882 109.642 359.036 109.594 358.266 109.594V110.594C358.995 110.594 359.806 110.639 360.699 110.732L360.801 109.737ZM358.266 109.594C356.317 109.594 354.602 109.849 353.129 110.373L353.464 111.315C354.804 110.838 356.401 110.594 358.266 110.594V109.594ZM353.136 110.37C351.695 110.862 350.471 111.603 349.475 112.6L350.182 113.307C351.06 112.428 352.149 111.763 353.458 111.317L353.136 110.37ZM349.469 112.606C348.508 113.6 347.784 114.805 347.294 116.21L348.238 116.54C348.685 115.258 349.336 114.181 350.188 113.301L349.469 112.606ZM347.29 116.22C346.836 117.617 346.58 119.195 346.516 120.951L347.515 120.987C347.576 119.305 347.821 117.821 348.241 116.53L347.29 116.22ZM347.164 120.491L344.445 119.647L344.149 120.603L346.867 121.446L347.164 120.491ZM344.797 120.125C344.797 116.877 345.122 113.901 345.768 111.194L344.795 110.962C344.128 113.756 343.797 116.811 343.797 120.125H344.797ZM345.768 111.193C346.414 108.453 347.35 106.082 348.568 104.072L347.713 103.553C346.431 105.668 345.461 108.14 344.795 110.963L345.768 111.193ZM348.565 104.076C349.811 102.072 351.319 100.538 353.089 99.4581L352.568 98.6044C350.649 99.775 349.033 101.428 347.716 103.549L348.565 104.076ZM353.089 99.4581C354.846 98.3856 356.864 97.8438 359.156 97.8438V96.8438C356.699 96.8438 354.498 97.4269 352.568 98.6044L353.089 99.4581ZM359.156 97.8438C359.878 97.8438 360.618 97.9039 361.374 98.025L361.532 97.0375C360.726 96.9086 359.934 96.8438 359.156 96.8438V97.8438ZM361.394 98.0277C362.152 98.1187 362.75 98.2527 363.199 98.4213L363.551 97.485C363 97.2785 362.317 97.1313 361.513 97.0348L361.394 98.0277ZM367.781 112.906L368.255 113.067L368.255 113.066L367.781 112.906ZM379.922 99.3125L380.12 99.7716L380.124 99.7698L379.922 99.3125ZM400.406 99.3125L400.206 99.7706L400.21 99.7723L400.406 99.3125ZM407.953 104.703L407.577 105.033L407.58 105.036L407.953 104.703ZM412.641 112.906L412.167 113.066L412.167 113.067L412.641 112.906ZM412.641 134.422L413.114 134.583L413.115 134.581L412.641 134.422ZM407.953 142.625L407.578 142.295L407.577 142.295L407.953 142.625ZM379.969 148.016L379.771 148.475L379.772 148.475L379.969 148.016ZM372.422 142.625L372.044 142.952L372.049 142.958L372.422 142.625ZM367.781 134.422L367.307 134.581L367.308 134.583L367.781 134.422ZM382.031 134.984L381.598 135.235L381.605 135.246L382.031 134.984ZM398.297 134.984L398.727 135.239L398.73 135.235L398.297 134.984ZM400.078 130.109L399.59 130.002L399.588 130.01L400.078 130.109ZM400.078 117.359L399.588 117.459L399.59 117.469L400.078 117.359ZM398.25 112.484L397.815 112.73L397.821 112.742L398.25 112.484ZM385.266 109.109L385.007 108.681L385.002 108.684L385.266 109.109ZM382.031 112.484L381.6 112.231L381.598 112.234L382.031 112.484ZM380.25 117.359L380.74 117.461L380.74 117.459L380.25 117.359ZM366.688 124.156V123.172H365.688V124.156H366.688ZM366.688 123.172C366.688 119.501 367.212 116.134 368.255 113.067L367.308 112.745C366.226 115.928 365.688 119.405 365.688 123.172H366.688ZM368.255 113.066C369.298 109.967 370.813 107.292 372.798 105.033L372.046 104.373C369.968 106.739 368.389 109.533 367.307 112.747L368.255 113.066ZM372.798 105.033C374.777 102.779 377.216 101.025 380.12 99.7716L379.724 98.8534C376.691 100.163 374.129 102.002 372.046 104.373L372.798 105.033ZM380.124 99.7698C383.018 98.4902 386.354 97.8438 390.141 97.8438V96.8438C386.24 96.8438 382.763 97.5098 379.72 98.8552L380.124 99.7698ZM390.141 97.8438C393.927 97.8438 397.279 98.4901 400.206 99.7706L400.607 98.8544C397.533 97.5099 394.042 96.8438 390.141 96.8438V97.8438ZM400.21 99.7723C403.145 101.026 405.598 102.78 407.577 105.033L408.329 104.373C406.245 102.001 403.667 100.161 400.603 98.8527L400.21 99.7723ZM407.58 105.036C409.594 107.294 411.124 109.969 412.167 113.066L413.115 112.747C412.032 109.531 410.437 106.737 408.326 104.37L407.58 105.036ZM412.167 113.067C413.21 116.134 413.734 119.501 413.734 123.172H414.734C414.734 119.405 414.196 115.928 413.114 112.745L412.167 113.067ZM413.734 123.172V124.156H414.734V123.172H413.734ZM413.734 124.156C413.734 127.795 413.21 131.163 412.167 134.262L413.115 134.581C414.196 131.369 414.734 127.892 414.734 124.156H413.734ZM412.167 134.261C411.125 137.327 409.594 140.003 407.578 142.295L408.328 142.955C410.437 140.559 412.032 137.767 413.114 134.583L412.167 134.261ZM407.577 142.295C405.598 144.549 403.159 146.303 400.255 147.557L400.651 148.475C403.684 147.166 406.246 145.326 408.329 142.955L407.577 142.295ZM400.255 147.557C397.359 148.806 394.023 149.438 390.234 149.438V150.438C394.134 150.438 397.609 149.788 400.651 148.475L400.255 147.557ZM390.234 149.438C386.446 149.438 383.093 148.806 380.165 147.556L379.772 148.475C382.844 149.787 386.335 150.438 390.234 150.438V149.438ZM380.167 147.557C377.262 146.303 374.807 144.548 372.795 142.292L372.049 142.958C374.162 145.327 376.738 147.166 379.771 148.475L380.167 147.557ZM372.8 142.298C370.813 140.006 369.298 137.329 368.255 134.261L367.308 134.583C368.39 137.765 369.968 140.557 372.044 142.952L372.8 142.298ZM368.255 134.262C367.212 131.163 366.688 127.795 366.688 124.156H365.688C365.688 127.892 366.226 131.369 367.307 134.581L368.255 134.262ZM379.188 123.172V124.156H380.188V123.172H379.188ZM379.188 124.156C379.188 126.31 379.378 128.329 379.76 130.209L380.74 130.01C380.372 128.203 380.188 126.252 380.188 124.156H379.188ZM379.76 130.209C380.144 132.097 380.755 133.775 381.598 135.235L382.464 134.734C381.683 133.381 381.106 131.809 380.74 130.01L379.76 130.209ZM381.605 135.246C382.49 136.689 383.643 137.827 385.061 138.651L385.564 137.786C384.294 137.048 383.26 136.03 382.457 134.723L381.605 135.246ZM385.061 138.651C386.498 139.486 388.23 139.891 390.234 139.891V138.891C388.364 138.891 386.815 138.514 385.564 137.786L385.061 138.651ZM390.234 139.891C392.179 139.891 393.879 139.485 395.314 138.651L394.811 137.786C393.558 138.515 392.039 138.891 390.234 138.891V139.891ZM395.314 138.651C396.734 137.826 397.873 136.685 398.727 135.239L397.866 134.73C397.096 136.033 396.079 137.049 394.811 137.786L395.314 138.651ZM398.73 135.235C399.573 133.775 400.184 132.097 400.568 130.209L399.588 130.01C399.222 131.809 398.646 133.381 397.864 134.734L398.73 135.235ZM400.566 130.217C400.981 128.334 401.188 126.313 401.188 124.156H400.188C400.188 126.25 399.987 128.197 399.59 130.002L400.566 130.217ZM401.188 124.156V123.172H400.188V124.156H401.188ZM401.188 123.172C401.188 121.077 400.981 119.102 400.566 117.25L399.59 117.469C399.988 119.242 400.188 121.142 400.188 123.172H401.188ZM400.568 117.26C400.183 115.368 399.556 113.689 398.679 112.227L397.821 112.742C398.632 114.093 399.223 115.663 399.588 117.459L400.568 117.26ZM398.685 112.238C397.833 110.73 396.695 109.541 395.274 108.682L394.757 109.537C396.023 110.303 397.042 111.364 397.815 112.73L398.685 112.238ZM395.274 108.682C393.837 107.813 392.119 107.391 390.141 107.391V108.391C391.975 108.391 393.506 108.781 394.757 109.537L395.274 108.682ZM390.141 107.391C388.163 107.391 386.444 107.813 385.007 108.682L385.524 109.537C386.775 108.781 388.306 108.391 390.141 108.391V107.391ZM385.002 108.684C383.615 109.543 382.482 110.729 381.6 112.231L382.462 112.737C383.268 111.364 384.291 110.301 385.529 109.535L385.002 108.684ZM381.598 112.234C380.755 113.694 380.144 115.371 379.76 117.26L380.74 117.459C381.106 115.66 381.683 114.087 382.464 112.735L381.598 112.234ZM379.76 117.258C379.378 119.107 379.188 121.079 379.188 123.172H380.188C380.188 121.14 380.372 119.236 380.74 117.461L379.76 117.258ZM453.891 80.75H454.391V80.25H453.891V80.75ZM453.891 149V149.5H454.391V149H453.891ZM439.875 149H439.375V149.5H439.875V149ZM439.875 80.75V80.25H439.375V80.75H439.875ZM474.891 80.75H475.391V80.25H474.891V80.75ZM474.891 91.7656V92.2656H475.391V91.7656H474.891ZM419.203 91.7656H418.703V92.2656H419.203V91.7656ZM419.203 80.75V80.25H418.703V80.75H419.203ZM453.391 80.75V149H454.391V80.75H453.391ZM453.891 148.5H439.875V149.5H453.891V148.5ZM440.375 149V80.75H439.375V149H440.375ZM439.875 81.25H453.891V80.25H439.875V81.25ZM474.391 80.75V91.7656H475.391V80.75H474.391ZM474.891 91.2656H419.203V92.2656H474.891V91.2656ZM419.703 91.7656V80.75H418.703V91.7656H419.703ZM419.203 81.25H474.891V80.25H419.203V81.25ZM492.281 109.344H492.781V109.326L492.78 109.308L492.281 109.344ZM492.281 149V149.5H492.781V149H492.281ZM478.781 149H478.281V149.5H478.781V149ZM478.781 98.2812V97.7812H478.281V98.2812H478.781ZM491.484 98.2812L491.983 98.2453L491.95 97.7812H491.484V98.2812ZM507.562 97.9531L508.062 97.9625L508.069 97.6091L507.738 97.485L507.562 97.9531ZM507.328 110.469L507.257 110.964L507.817 111.044L507.828 110.478L507.328 110.469ZM504.938 110.234L504.886 110.732L504.895 110.733L504.904 110.733L504.938 110.234ZM497.484 110.844L497.646 111.317L497.652 111.315L497.484 110.844ZM494.016 112.953L493.662 112.6L493.656 112.606L494.016 112.953ZM491.953 116.375L491.481 116.21L491.478 116.22L491.953 116.375ZM491.203 120.969L491.055 121.446L491.679 121.64L491.703 120.987L491.203 120.969ZM488.484 120.125H487.984V120.493L488.336 120.603L488.484 120.125ZM489.469 111.078L489.955 111.194L489.955 111.193L489.469 111.078ZM492.328 103.812L491.903 103.549L491.901 103.553L492.328 103.812ZM505.641 97.5312L505.562 98.025L505.571 98.0265L505.581 98.0277L505.641 97.5312ZM491.781 109.344V149H492.781V109.344H491.781ZM492.281 148.5H478.781V149.5H492.281V148.5ZM479.281 149V98.2812H478.281V149H479.281ZM478.781 98.7812H491.484V97.7812H478.781V98.7812ZM490.986 98.3172L491.783 109.38L492.78 109.308L491.983 98.2453L490.986 98.3172ZM507.063 97.9438L506.828 110.459L507.828 110.478L508.062 97.9625L507.063 97.9438ZM507.399 109.974C506.726 109.878 505.916 109.799 504.971 109.735L504.904 110.733C505.834 110.795 506.618 110.872 507.257 110.964L507.399 109.974ZM504.989 109.737C504.069 109.642 503.223 109.594 502.453 109.594V110.594C503.183 110.594 503.993 110.639 504.886 110.732L504.989 109.737ZM502.453 109.594C500.505 109.594 498.789 109.849 497.317 110.373L497.652 111.315C498.992 110.838 500.589 110.594 502.453 110.594V109.594ZM497.323 110.37C495.883 110.862 494.659 111.603 493.662 112.6L494.369 113.307C495.248 112.428 496.336 111.763 497.646 111.317L497.323 110.37ZM493.656 112.606C492.695 113.6 491.971 114.805 491.481 116.21L492.425 116.54C492.872 115.258 493.524 114.181 494.375 113.301L493.656 112.606ZM491.478 116.22C491.023 117.617 490.767 119.195 490.703 120.951L491.703 120.987C491.764 119.305 492.008 117.821 492.429 116.53L491.478 116.22ZM491.351 120.491L488.633 119.647L488.336 120.603L491.055 121.446L491.351 120.491ZM488.984 120.125C488.984 116.877 489.309 113.901 489.955 111.194L488.982 110.962C488.316 113.756 487.984 116.811 487.984 120.125H488.984ZM489.955 111.193C490.602 108.453 491.537 106.082 492.756 104.072L491.901 103.553C490.619 105.668 489.648 108.14 488.982 110.963L489.955 111.193ZM492.753 104.076C493.998 102.072 495.507 100.538 497.276 99.4581L496.755 98.6044C494.837 99.775 493.221 101.428 491.903 103.549L492.753 104.076ZM497.276 99.4581C499.034 98.3856 501.051 97.8438 503.344 97.8438V96.8438C500.886 96.8438 498.685 97.4269 496.755 98.6044L497.276 99.4581ZM503.344 97.8438C504.066 97.8438 504.805 97.9039 505.562 98.025L505.72 97.0375C504.914 96.9086 504.122 96.8438 503.344 96.8438V97.8438ZM505.581 98.0277C506.339 98.1187 506.937 98.2527 507.387 98.4213L507.738 97.485C507.188 97.2785 506.504 97.1313 505.7 97.0348L505.581 98.0277ZM543.938 136.859H543.438V136.876L543.439 136.892L543.938 136.859ZM543.938 98.2812V97.7812H543.438V98.2812H543.938ZM557.438 98.2812H557.938V97.7812H557.438V98.2812ZM557.438 149V149.5H557.938V149H557.438ZM544.734 149L544.235 149.033L544.266 149.5H544.734V149ZM545.438 126.453L545.426 125.953L544.938 125.965V126.453H545.438ZM549.422 126.359H549.922V125.847L549.41 125.86L549.422 126.359ZM548.25 135.781L548.733 135.912L548.733 135.911L548.25 135.781ZM544.734 143.281L545.135 143.58L545.137 143.577L544.734 143.281ZM538.828 148.203L539.047 148.653L539.052 148.65L538.828 148.203ZM523.594 148.906L523.429 149.378L523.438 149.381L523.594 148.906ZM518.25 145.578L517.889 145.924L517.896 145.932L518.25 145.578ZM514.781 139.719L514.307 139.879L514.31 139.886L514.781 139.719ZM513.562 98.2812V97.7812H513.062V98.2812H513.562ZM527.062 98.2812H527.562V97.7812H527.062V98.2812ZM527.578 134.938L527.104 135.096L527.108 135.108L527.578 134.938ZM531.422 138.875L531.269 139.351L531.274 139.353L531.422 138.875ZM540.984 137.609L540.7 137.198L540.696 137.201L540.984 137.609ZM544.406 133.016L543.934 132.851L543.933 132.855L544.406 133.016ZM544.438 136.859V98.2812H543.438V136.859H544.438ZM543.938 98.7812H557.438V97.7812H543.938V98.7812ZM556.938 98.2812V149H557.938V98.2812H556.938ZM557.438 148.5H544.734V149.5H557.438V148.5ZM545.233 148.967L544.436 136.827L543.439 136.892L544.235 149.033L545.233 148.967ZM545.449 126.953L549.434 126.859L549.41 125.86L545.426 125.953L545.449 126.953ZM548.922 126.359C548.922 129.696 548.536 132.792 547.767 135.651L548.733 135.911C549.527 132.958 549.922 129.773 549.922 126.359H548.922ZM547.767 135.65C547 138.473 545.853 140.916 544.332 142.985L545.137 143.577C546.741 141.397 547.937 138.839 548.733 135.912L547.767 135.65ZM544.334 142.982C542.819 145.012 540.911 146.603 538.605 147.756L539.052 148.65C541.495 147.429 543.525 145.738 545.135 143.58L544.334 142.982ZM538.609 147.754C536.316 148.87 533.597 149.438 530.438 149.438V150.438C533.716 150.438 536.591 149.849 539.047 148.653L538.609 147.754ZM530.438 149.438C528.015 149.438 525.787 149.1 523.75 148.431L523.438 149.381C525.588 150.087 527.922 150.438 530.438 150.438V149.438ZM523.758 148.434C521.765 147.739 520.049 146.67 518.604 145.225L517.896 145.932C519.451 147.487 521.298 148.636 523.429 149.378L523.758 148.434ZM518.611 145.232C517.199 143.761 516.077 141.872 515.252 139.551L514.31 139.886C515.173 142.315 516.363 144.333 517.889 145.924L518.611 145.232ZM515.255 139.559C514.465 137.218 514.062 134.384 514.062 131.047H513.062C513.062 134.459 513.473 137.407 514.308 139.879L515.255 139.559ZM514.062 131.047V98.2812H513.062V131.047H514.062ZM513.562 98.7812H527.062V97.7812H513.562V98.7812ZM526.562 98.2812V131.141H527.562V98.2812H526.562ZM526.562 131.141C526.562 132.675 526.738 133.998 527.104 135.096L528.052 134.779C527.731 133.814 527.562 132.606 527.562 131.141H526.562ZM527.108 135.108C527.504 136.196 528.055 137.106 528.771 137.822L529.479 137.115C528.883 136.519 528.403 135.742 528.048 134.767L527.108 135.108ZM528.771 137.822C529.483 138.534 530.317 139.045 531.269 139.351L531.575 138.399C530.776 138.142 530.079 137.716 529.479 137.115L528.771 137.822ZM531.274 139.353C532.235 139.651 533.285 139.797 534.422 139.797V138.797C533.371 138.797 532.422 138.662 531.57 138.397L531.274 139.353ZM534.422 139.797C537.264 139.797 539.566 139.223 541.273 138.018L540.696 137.201C539.216 138.246 537.142 138.797 534.422 138.797V139.797ZM541.269 138.02C542.986 136.832 544.19 135.211 544.88 133.176L543.933 132.855C543.31 134.695 542.233 136.137 540.7 137.198L541.269 138.02ZM544.878 133.18C545.587 131.151 545.938 128.907 545.938 126.453H544.938C544.938 128.812 544.601 130.942 543.934 132.851L544.878 133.18ZM593.109 138.453L593.329 138.903L593.337 138.898L593.109 138.453ZM596.109 135.734L595.687 135.467L595.685 135.47L596.109 135.734ZM597.281 131.562V131.062H596.791L596.781 131.553L597.281 131.562ZM609.984 131.562L610.484 131.567L610.489 131.062H609.984V131.562ZM607.125 141.078L607.538 141.36L607.54 141.358L607.125 141.078ZM599.578 147.594L599.8 148.042L599.803 148.04L599.578 147.594ZM578.672 147.969L578.466 148.424L578.468 148.425L578.672 147.969ZM571.406 142.531L571.021 142.85L571.023 142.852L571.406 142.531ZM567.047 134.375L566.569 134.523L566.57 134.524L567.047 134.375ZM567.047 112.953L567.524 113.103L567.524 113.101L567.047 112.953ZM571.406 104.797L571.79 105.118L571.792 105.115L571.406 104.797ZM599.812 99.7344L599.585 100.18L599.587 100.181L599.812 99.7344ZM607.219 106.578L606.79 106.835L606.793 106.841L607.219 106.578ZM609.984 117.031V117.531H610.488L610.484 117.027L609.984 117.031ZM597.281 117.031L596.781 117.041L596.79 117.531H597.281V117.031ZM596.203 112.438L595.752 112.653L595.756 112.661L596.203 112.438ZM593.297 109.156L593.017 109.571L593.023 109.575L593.029 109.579L593.297 109.156ZM583.828 109.156L584.101 109.576L584.108 109.571L583.828 109.156ZM580.922 112.531L581.371 112.751L581.373 112.747L580.922 112.531ZM579.469 117.359L578.975 117.283L578.974 117.29L579.469 117.359ZM580.875 134.844L580.426 135.063L580.43 135.071L580.875 134.844ZM588.703 139.891C590.423 139.891 591.969 139.566 593.329 138.903L592.89 138.004C591.687 138.59 590.296 138.891 588.703 138.891V139.891ZM593.337 138.898C594.695 138.203 595.765 137.236 596.534 135.998L595.685 135.47C595.017 136.545 594.087 137.391 592.881 138.008L593.337 138.898ZM596.532 136.001C597.337 134.727 597.748 133.245 597.781 131.572L596.781 131.553C596.752 133.068 596.382 134.367 595.687 135.467L596.532 136.001ZM597.281 132.062H609.984V131.062H597.281V132.062ZM609.484 131.558C609.454 135.029 608.527 138.104 606.71 140.799L607.54 141.358C609.473 138.49 610.452 135.221 610.484 131.567L609.484 131.558ZM606.712 140.796C604.888 143.472 602.438 145.589 599.353 147.147L599.803 148.04C603.03 146.411 605.612 144.184 607.538 141.36L606.712 140.796ZM599.356 147.146C596.276 148.67 592.822 149.438 588.984 149.438V150.438C592.959 150.438 596.568 149.642 599.8 148.042L599.356 147.146ZM588.984 149.438C585.102 149.438 581.736 148.79 578.876 147.512L578.468 148.425C581.482 149.772 584.992 150.438 588.984 150.438V149.438ZM578.878 147.513C576.036 146.23 573.676 144.462 571.79 142.21L571.023 142.852C573.012 145.226 575.495 147.083 578.466 148.424L578.878 147.513ZM571.792 142.213C569.898 139.922 568.475 137.262 567.524 134.226L566.57 134.524C567.557 137.676 569.039 140.453 571.021 142.85L571.792 142.213ZM567.524 134.227C566.572 131.154 566.094 127.86 566.094 124.344H565.094C565.094 127.952 565.584 131.346 566.569 134.523L567.524 134.227ZM566.094 124.344V122.984H565.094V124.344H566.094ZM566.094 122.984C566.094 119.436 566.572 116.143 567.524 113.103L566.57 112.804C565.584 115.951 565.094 119.345 565.094 122.984H566.094ZM567.524 113.101C568.475 110.034 569.898 107.375 571.79 105.118L571.023 104.476C569.039 106.843 567.556 109.622 566.569 112.805L567.524 113.101ZM571.792 105.115C573.678 102.833 576.037 101.051 578.878 99.7682L578.466 98.8568C575.494 100.199 573.009 102.073 571.021 104.478L571.792 105.115ZM578.878 99.7682C581.706 98.4907 585.04 97.8438 588.891 97.8438V96.8438C584.929 96.8438 581.45 97.5093 578.466 98.8568L578.878 99.7682ZM588.891 97.8438C592.982 97.8438 596.543 98.628 599.585 100.18L600.04 99.289C596.832 97.6533 593.111 96.8438 588.891 96.8438V97.8438ZM599.587 100.181C602.661 101.733 605.058 103.949 606.79 106.835L607.647 106.321C605.817 103.269 603.277 100.923 600.038 99.288L599.587 100.181ZM606.793 106.841C608.55 109.688 609.454 113.08 609.484 117.035L610.484 117.027C610.453 112.92 609.512 109.343 607.644 106.316L606.793 106.841ZM609.984 116.531H597.281V117.531H609.984V116.531ZM597.781 117.022C597.749 115.267 597.374 113.662 596.65 112.214L595.756 112.661C596.407 113.963 596.751 115.42 596.781 117.041L597.781 117.022ZM596.654 112.222C595.958 110.763 594.926 109.597 593.565 108.734L593.029 109.579C594.231 110.34 595.136 111.362 595.752 112.653L596.654 112.222ZM593.577 108.742C592.227 107.831 590.577 107.391 588.656 107.391V108.391C590.423 108.391 591.867 108.794 593.017 109.571L593.577 108.742ZM588.656 107.391C586.618 107.391 584.903 107.828 583.548 108.742L584.108 109.571C585.253 108.797 586.757 108.391 588.656 108.391V107.391ZM583.556 108.737C582.223 109.603 581.195 110.801 580.471 112.316L581.373 112.747C582.024 111.386 582.933 110.334 584.101 109.575L583.556 108.737ZM580.473 112.312C579.76 113.77 579.262 115.429 578.975 117.283L579.963 117.436C580.238 115.665 580.709 114.105 581.371 112.751L580.473 112.312ZM578.974 117.29C578.72 119.096 578.594 120.995 578.594 122.984H579.594C579.594 121.037 579.717 119.185 579.964 117.429L578.974 117.29ZM578.594 122.984V124.344H579.594V122.984H578.594ZM578.594 124.344C578.594 126.334 578.72 128.247 578.973 130.084L579.964 129.947C579.717 128.159 579.594 126.291 579.594 124.344H578.594ZM578.973 130.084C579.229 131.94 579.711 133.602 580.426 135.063L581.324 134.624C580.664 133.273 580.208 131.716 579.964 129.947L578.973 130.084ZM580.43 135.071C581.186 136.551 582.228 137.728 583.556 138.591L584.101 137.753C582.928 136.991 582.002 135.949 581.32 134.616L580.43 135.071ZM583.556 138.591C584.91 139.471 586.639 139.891 588.703 139.891V138.891C586.768 138.891 585.246 138.497 584.101 137.753L583.556 138.591ZM631.312 76.9531H631.812V76.4531H631.312V76.9531ZM631.312 149V149.5H631.812V149H631.312ZM617.812 149H617.312V149.5H617.812V149ZM617.812 76.9531V76.4531H617.312V76.9531H617.812ZM663.281 98.2812L663.657 98.6109L664.385 97.7812H663.281V98.2812ZM641.25 123.406L641.606 123.758L641.616 123.747L641.626 123.736L641.25 123.406ZM629.438 135.359L628.991 135.585L629.304 136.205L629.793 135.711L629.438 135.359ZM624.516 125.609L624.123 125.3L623.926 125.55L624.069 125.835L624.516 125.609ZM633.891 113.703L633.51 113.378L633.504 113.386L633.498 113.394L633.891 113.703ZM647.062 98.2812V97.7812H646.832L646.682 97.9565L647.062 98.2812ZM649.266 149L648.844 149.27L648.992 149.5H649.266V149ZM634.266 125.562L633.936 125.186L633.612 125.469L633.844 125.832L634.266 125.562ZM643.594 117.406L644.009 117.127L643.692 116.656L643.265 117.03L643.594 117.406ZM664.828 149V149.5H665.767L665.243 148.721L664.828 149ZM630.812 76.9531V149H631.812V76.9531H630.812ZM631.312 148.5H617.812V149.5H631.312V148.5ZM618.312 149V76.9531H617.312V149H618.312ZM617.812 77.4531H631.312V76.4531H617.812V77.4531ZM662.905 97.9516L640.874 123.077L641.626 123.736L663.657 98.6109L662.905 97.9516ZM640.894 123.055L629.082 135.008L629.793 135.711L641.606 123.758L640.894 123.055ZM629.884 135.134L624.962 125.384L624.069 125.835L628.991 135.585L629.884 135.134ZM624.908 125.919L634.283 114.012L633.498 113.394L624.123 125.3L624.908 125.919ZM634.271 114.028L647.443 98.606L646.682 97.9565L633.51 113.378L634.271 114.028ZM647.062 98.7812H663.281V97.7812H647.062V98.7812ZM649.687 148.73L634.687 125.293L633.844 125.832L648.844 149.27L649.687 148.73ZM634.595 125.939L643.923 117.783L643.265 117.03L633.936 125.186L634.595 125.939ZM643.179 117.685L664.413 149.279L665.243 148.721L644.009 117.127L643.179 117.685ZM664.828 148.5H649.266V149.5H664.828V148.5Z" fill="black"/>
</g>
<g filter="url(#filter1_i_45_2)">
<g clip-path="url(#clip0_45_2)">
<path fill-rule="evenodd" clip-rule="evenodd" d="M123.914 120.515C117.188 120.515 111.76 125.978 111.76 132.669C111.76 139.395 117.223 144.823 123.914 144.823C130.64 144.823 136.068 139.36 136.068 132.669C136.068 125.943 130.604 120.515 123.914 120.515ZM72.9961 121.6C66.86 121.6 61.9276 126.58 61.9276 132.669C61.9276 138.805 66.9072 143.737 72.9961 143.737C79.1322 143.737 84.0646 138.758 84.0646 132.669C84.0646 126.533 79.085 121.6 72.9961 121.6ZM72.9961 128.409C70.6479 128.409 68.7363 130.321 68.7363 132.669C68.7363 135.017 70.6479 136.929 72.9961 136.929C75.3443 136.929 77.256 135.017 77.256 132.669C77.256 130.321 75.3443 128.409 72.9961 128.409ZM28.4506 121.6C22.3146 121.6 17.3821 126.58 17.3821 132.669C17.3821 138.805 22.3618 143.737 28.4506 143.737C34.5867 143.737 39.5191 138.758 39.5191 132.669C39.5309 126.533 34.5513 121.6 28.4506 121.6ZM28.4506 128.409C26.1024 128.409 24.1908 130.321 24.1908 132.669C24.1908 135.017 26.1024 136.929 28.4506 136.929C30.7988 136.929 32.7105 135.017 32.7105 132.669C32.7105 130.321 30.8106 128.409 28.4506 128.409ZM55.8977 135.843H44.959V132.291H55.8977V135.843ZM12.3434 135.843H6.64398C4.81496 135.843 3.16294 135.064 1.97113 133.825C0.779313 132.586 0.0241048 130.875 0.0241048 129.082V82.1879C0.0241048 79.3087 -0.4007 76.9486 1.93573 74.6122C3.13934 73.4204 4.77956 72.677 6.60858 72.677H93.1271C94.9562 72.677 96.6082 73.4204 97.8 74.624C98.9918 75.8158 99.747 77.4679 99.747 79.2969V87.8638L111.866 87.9464L116.137 87.97C116.999 88.9022 117.789 89.858 118.509 90.8256C121.707 95.1209 123.501 100.195 123.843 105.116L143.171 112.514L145.001 131.996H139.089C136.363 110.721 109.553 113.305 108.727 131.996H99.747V134.049C99.747 135.064 98.9564 135.843 97.9534 135.843H90.0591V132.256H96.148V79.2969C96.148 78.4709 95.8176 77.7275 95.2512 77.1611C94.6848 76.5946 93.9413 76.2642 93.1153 76.2642H6.60858C5.78257 76.2642 5.03916 76.6064 4.47275 77.1611C3.25734 78.3057 3.62314 80.2645 3.62314 81.7631V129.082C3.62314 129.943 4.00075 130.769 4.55535 131.359C5.12176 131.925 5.82977 132.291 6.64398 132.291H12.3316V135.843H12.3434ZM111.465 93.7874L104.585 93.6812V105.116H117.589C116.963 100.974 115.04 97.3393 111.465 93.7874ZM123.914 127.996C121.329 127.996 119.241 130.085 119.241 132.669C119.241 135.253 121.329 137.342 123.914 137.342C126.498 137.342 128.587 135.253 128.587 132.669C128.587 130.085 126.498 127.996 123.914 127.996Z" fill="#459938"/>
</g>
<line x1="53.595" y1="44.02" x2="39.095" y2="22.27" stroke="black" stroke-width="1.875"/>
<g clip-path="url(#clip1_45_2)">
<path d="M21.1571 48.9959C33.0978 64.8838 61.1649 67.3653 61.1649 67.3653C61.1649 67.3653 69.3852 40.4148 59.1321 23.389C51.5625 10.8192 40.612 8.74127 30.6643 11.1111C30.8862 11.3404 31.1083 11.5704 31.3349 11.8044C31.9347 12.4051 32.494 13.0751 33.0946 13.7297C33.69 14.3904 34.3003 15.0613 34.8783 15.7802C35.4656 16.4886 36.0617 17.2098 36.666 17.9394C37.2389 18.6909 37.8194 19.452 38.4044 20.2194C38.6942 20.6028 38.9856 20.9885 39.2782 21.3753C39.5553 21.7729 39.8323 22.1721 40.1108 22.5718C40.6645 23.3711 41.2203 24.1732 41.7757 24.975C42.2966 25.7989 42.816 26.6241 43.3347 27.4445C43.5927 27.855 43.8505 28.2639 44.107 28.672C44.3608 29.0814 44.5874 29.5075 44.8265 29.9212C45.7696 31.5873 46.7219 33.2064 47.509 34.848C47.9178 35.658 48.3197 36.4547 48.7129 37.2346C49.1006 38.0154 49.4234 38.8089 49.7671 39.5641C50.4366 41.0843 51.0987 42.5026 51.5853 43.8673C51.671 44.0921 51.5657 44.3444 51.3455 44.4419C51.1255 44.5387 50.8681 44.4466 50.7595 44.2318C50.7541 44.221 50.7486 44.2105 50.7436 44.2005C50.1131 42.8932 49.3059 41.5465 48.4797 40.1038C48.0586 39.3878 47.6538 38.6339 47.1875 37.8953C46.7156 37.16 46.2334 36.4086 45.743 35.6455C44.7903 34.0963 43.68 32.5811 42.5727 31.0232C42.2932 30.6367 42.0227 30.2391 41.7319 29.8558C41.4358 29.477 41.1384 29.0968 40.8406 28.7156C40.2435 27.9528 39.6444 27.1884 39.0451 26.4223C38.4137 25.6824 37.7815 24.9432 37.1528 24.2057C36.8374 23.8374 36.5229 23.4692 36.2084 23.1029C35.8805 22.7488 35.5537 22.3958 35.2283 22.0434C34.5734 21.3416 33.924 20.6461 33.281 19.9576C32.6118 19.2957 31.95 18.6412 31.2982 17.998C30.6567 17.3437 29.9872 16.7398 29.3342 16.1447C28.675 15.556 28.0572 14.9512 27.4061 14.4143C26.7612 13.8692 26.1348 13.3395 25.5287 12.8274C24.9178 12.3181 24.3005 11.8555 23.7216 11.3958C23.4301 11.168 23.1452 10.9446 22.8662 10.7262C22.5782 10.5176 22.297 10.3138 22.0235 10.114C21.4723 9.71893 20.9597 9.33296 20.4586 8.98971C19.4426 8.3115 18.5879 7.7177 17.7698 7.23714C17.377 6.99876 17.0259 6.78639 16.7211 6.60091C16.4404 6.44461 16.2019 6.31064 16.0085 6.20271C15.6206 5.986 15.4143 5.87023 15.4143 5.87023C15.3599 5.84018 15.2942 5.80638 15.2384 5.77888C13.4615 4.90998 11.3159 5.64651 10.4474 7.42439C9.57932 9.20202 10.3165 11.3459 12.0929 12.2153L12.1047 12.2211C12.1047 12.2211 12.3173 12.3252 12.7162 12.5193C12.9151 12.617 13.1611 12.7367 13.4506 12.8781C13.7027 13.0138 13.9917 13.1707 14.3165 13.3457C14.948 13.6669 15.7756 14.1747 16.7099 14.7256C17.1774 15.0077 17.6636 15.3352 18.1837 15.6649C18.4424 15.8323 18.7084 16.0043 18.9805 16.179C19.2469 16.3651 19.52 16.5554 19.7988 16.7503C20.1324 16.9863 20.4804 17.2272 20.8328 17.4731C14.6181 25.8699 12.1528 37.016 21.1571 48.9959Z" fill="#459938"/>
<ellipse cx="32.6246" cy="16.3125" rx="7.25" ry="5.4375" fill="#459938"/>
<ellipse cx="37.6687" cy="28.4259" rx="13.8656" ry="13.8656" fill="#459938"/>
</g>
</g>
<defs>
<filter id="filter0_d_45_2" x="206.328" y="76.9531" width="462.5" height="100.016" filterUnits="userSpaceOnUse" color-interpolation-filters="sRGB">
<feFlood flood-opacity="0" result="BackgroundImageFix"/>
<feColorMatrix in="SourceAlpha" type="matrix" values="0 0 0 0 0 0 0 0 0 0 0 0 0 0 0 0 0 0 127 0" result="hardAlpha"/>
<feOffset dy="4"/>
<feGaussianBlur stdDeviation="2"/>
<feComposite in2="hardAlpha" operator="out"/>
<feColorMatrix type="matrix" values="0 0 0 0 0 0 0 0 0 0 0 0 0 0 0 0 0 0 0.25 0"/>
<feBlend mode="normal" in2="BackgroundImageFix" result="effect1_dropShadow_45_2"/>
<feBlend mode="normal" in="SourceGraphic" in2="effect1_dropShadow_45_2" result="shape"/>
</filter>
<filter id="filter1_i_45_2" x="0" y="0" width="145" height="185.25" filterUnits="userSpaceOnUse" color-interpolation-filters="sRGB">
<feFlood flood-opacity="0" result="BackgroundImageFix"/>
<feBlend mode="normal" in="SourceGraphic" in2="BackgroundImageFix" result="shape"/>
<feColorMatrix in="SourceAlpha" type="matrix" values="0 0 0 0 0 0 0 0 0 0 0 0 0 0 0 0 0 0 127 0" result="hardAlpha"/>
<feOffset dy="4"/>
<feGaussianBlur stdDeviation="2"/>
<feComposite in2="hardAlpha" operator="arithmetic" k2="-1" k3="1"/>
<feColorMatrix type="matrix" values="0 0 0 0 0 0 0 0 0 0 0 0 0 0 0 0 0 0 0.25 0"/>
<feBlend mode="normal" in2="shape" result="effect1_innerShadow_45_2"/>
</filter>
<clipPath id="clip0_45_2">
<rect width="145" height="145" fill="white" transform="translate(0 36.25)"/>
</clipPath>
<clipPath id="clip1_45_2">
<rect width="61.625" height="61.625" fill="white" transform="translate(72.2579 11.7666) rotate(101.008)"/>
</clipPath>
</defs>
</svg>
