<svg width="54" height="67" viewBox="0 0 54 67" fill="none" xmlns="http://www.w3.org/2000/svg">
<g filter="url(#filter0_i_49_14)">
<g clip-path="url(#clip0_49_14)">
<path fill-rule="evenodd" clip-rule="evenodd" d="M45.9611 44.5488C43.4747 44.5488 41.4682 46.5684 41.4682 49.0417C41.4682 51.528 43.4878 53.5345 45.9611 53.5345C48.4474 53.5345 50.4539 51.5149 50.4539 49.0417C50.4539 46.5553 48.4343 44.5488 45.9611 44.5488ZM27.1391 44.9501C24.8709 44.9501 23.0476 46.7909 23.0476 49.0417C23.0476 51.3099 24.8883 53.1332 27.1391 53.1332C29.4073 53.1332 31.2306 51.2925 31.2306 49.0417C31.2306 46.7734 29.3899 44.9501 27.1391 44.9501ZM27.1391 47.467C26.2711 47.467 25.5644 48.1736 25.5644 49.0417C25.5644 49.9097 26.2711 50.6163 27.1391 50.6163C28.0071 50.6163 28.7138 49.9097 28.7138 49.0417C28.7138 48.1736 28.0071 47.467 27.1391 47.467ZM10.6726 44.9501C8.40439 44.9501 6.58108 46.7909 6.58108 49.0417C6.58108 51.3099 8.42184 53.1332 10.6726 53.1332C12.9409 53.1332 14.7642 51.2925 14.7642 49.0417C14.7685 46.7734 12.9278 44.9501 10.6726 44.9501ZM10.6726 47.467C9.80459 47.467 9.09795 48.1736 9.09795 49.0417C9.09795 49.9097 9.80459 50.6163 10.6726 50.6163C11.5407 50.6163 12.2473 49.9097 12.2473 49.0417C12.2473 48.1736 11.545 47.467 10.6726 47.467ZM20.8186 50.215H16.775V48.9021H20.8186V50.215ZM4.71852 50.215H2.61168C1.93557 50.215 1.3249 49.9272 0.884336 49.4691C0.443776 49.0111 0.164609 48.3786 0.164609 47.7156V30.3811C0.164609 29.3168 0.00757771 28.4444 0.87125 27.5807C1.31617 27.1402 1.92249 26.8654 2.59859 26.8654H34.5806C35.2567 26.8654 35.8674 27.1402 36.308 27.5851C36.7485 28.0256 37.0277 28.6363 37.0277 29.3124V32.4792L41.5075 32.5098L43.0865 32.5185C43.4049 32.8631 43.6972 33.2164 43.9633 33.5741C45.1454 35.1618 45.8084 37.0375 45.9349 38.8564L53.0798 41.5914L53.7559 48.793H51.5706C50.5629 40.9284 40.6525 41.8837 40.3472 48.793H37.0277V49.552C37.0277 49.9272 36.7355 50.215 36.3647 50.215H33.4465V48.889H35.6973V29.3124C35.6973 29.0071 35.5752 28.7323 35.3658 28.5229C35.1564 28.3135 34.8816 28.1914 34.5763 28.1914H2.59859C2.29326 28.1914 2.01845 28.3179 1.80908 28.5229C1.35979 28.946 1.49501 29.6701 1.49501 30.2241V47.7156C1.49501 48.0341 1.6346 48.3394 1.83961 48.5575C2.04898 48.7669 2.3107 48.9021 2.61168 48.9021H4.71416V50.215H4.71852ZM41.3592 34.6689L38.8161 34.6297V38.8564H43.623C43.3918 37.3254 42.6808 35.9819 41.3592 34.6689ZM45.9611 47.3143C45.0058 47.3143 44.2337 48.0864 44.2337 49.0417C44.2337 49.9969 45.0058 50.769 45.9611 50.769C46.9163 50.769 47.6884 49.9969 47.6884 49.0417C47.6884 48.0864 46.9163 47.3143 45.9611 47.3143Z" fill="#459938"/>
</g>
<line x1="19.9674" y1="16.2722" x2="14.6074" y2="8.23218" stroke="black" stroke-width="0.693104"/>
<g clip-path="url(#clip1_49_14)">
<path d="M7.97656 18.1114C12.3905 23.9845 22.7657 24.9018 22.7657 24.9018C22.7657 24.9018 25.8043 14.9394 22.0142 8.6457C19.2161 3.99923 15.1682 3.2311 11.4909 4.10713C11.573 4.19189 11.6551 4.2769 11.7388 4.3634C11.9606 4.58545 12.1673 4.83314 12.3893 5.07509C12.6094 5.31933 12.835 5.56732 13.0487 5.83307C13.2658 6.09495 13.4861 6.36153 13.7095 6.63124C13.9213 6.90903 14.1359 7.19039 14.3521 7.47404C14.4593 7.61579 14.5669 7.75834 14.6751 7.90133C14.7775 8.04831 14.88 8.19587 14.9829 8.34365C15.1876 8.63908 15.393 8.93561 15.5983 9.23198C15.7909 9.53654 15.9829 9.84158 16.1746 10.1448C16.27 10.2966 16.3653 10.4478 16.4601 10.5986C16.5539 10.7499 16.6377 10.9074 16.7261 11.0604C17.0747 11.6762 17.4267 12.2748 17.7177 12.8816C17.8688 13.181 18.0174 13.4755 18.1627 13.7638C18.306 14.0524 18.4253 14.3458 18.5524 14.6249C18.7999 15.1869 19.0446 15.7112 19.2245 16.2156C19.2562 16.2987 19.2173 16.392 19.1359 16.428C19.0545 16.4638 18.9594 16.4298 18.9193 16.3504C18.9172 16.3464 18.9152 16.3425 18.9134 16.3388C18.6803 15.8555 18.3819 15.3577 18.0765 14.8244C17.9209 14.5598 17.7712 14.2811 17.5988 14.008C17.4244 13.7362 17.2461 13.4585 17.0649 13.1764C16.7127 12.6037 16.3023 12.0436 15.893 11.4677C15.7896 11.3249 15.6896 11.1779 15.5821 11.0362C15.4727 10.8962 15.3628 10.7556 15.2527 10.6147C15.0319 10.3327 14.8105 10.0502 14.589 9.767C14.3556 9.49348 14.1219 9.22025 13.8895 8.94761C13.7729 8.81145 13.6566 8.67536 13.5403 8.53995C13.4191 8.40905 13.2983 8.27856 13.178 8.14829C12.936 7.88887 12.6959 7.63179 12.4582 7.37727C12.2109 7.13259 11.9662 6.89065 11.7253 6.65291C11.4881 6.41103 11.2407 6.18779 10.9993 5.96783C10.7556 5.75021 10.5272 5.52663 10.2865 5.32815C10.0482 5.12665 9.81658 4.93088 9.59256 4.74156C9.36671 4.55328 9.13854 4.3823 8.92456 4.21234C8.81678 4.12814 8.71146 4.04558 8.60835 3.96484C8.50186 3.88773 8.39793 3.81239 8.29684 3.73854C8.09306 3.5925 7.9036 3.44982 7.71837 3.32294C7.3428 3.07223 7.02683 2.85273 6.72442 2.67509C6.57923 2.58697 6.44945 2.50847 6.33677 2.4399C6.23302 2.38213 6.14484 2.3326 6.07335 2.29271C5.92997 2.2126 5.8537 2.1698 5.8537 2.1698C5.83358 2.1587 5.80932 2.1462 5.78868 2.13604C5.13185 1.81484 4.33871 2.08711 4.01767 2.74431C3.69677 3.40142 3.96928 4.19392 4.62595 4.51531L4.63029 4.51743C4.63029 4.51743 4.70889 4.55593 4.85635 4.62766C4.92985 4.66377 5.0208 4.70804 5.12783 4.7603C5.221 4.81045 5.32784 4.86848 5.44789 4.93314C5.68134 5.05188 5.98725 5.2396 6.33264 5.44324C6.50544 5.54752 6.68518 5.66859 6.87741 5.79045C6.97306 5.85234 7.07139 5.9159 7.17196 5.98049C7.27043 6.0493 7.37139 6.11965 7.47446 6.19168C7.59778 6.27891 7.72642 6.36798 7.85669 6.45888C5.55939 9.5628 4.64806 13.683 7.97656 18.1114Z" fill="#459938"/>
<ellipse cx="12.2155" cy="6.0299" rx="2.68" ry="2.01" fill="#459938"/>
<circle cx="14.0802" cy="10.5078" r="5.1255" fill="#459938"/>
</g>
</g>
<defs>
<filter id="filter0_i_49_14" x="0.155762" y="-0.00012207" width="53.6" height="68.4786" filterUnits="userSpaceOnUse" color-interpolation-filters="sRGB">
<feFlood flood-opacity="0" result="BackgroundImageFix"/>
<feBlend mode="normal" in="SourceGraphic" in2="BackgroundImageFix" result="shape"/>
<feColorMatrix in="SourceAlpha" type="matrix" values="0 0 0 0 0 0 0 0 0 0 0 0 0 0 0 0 0 0 127 0" result="hardAlpha"/>
<feOffset dy="1.47862"/>
<feGaussianBlur stdDeviation="0.739311"/>
<feComposite in2="hardAlpha" operator="arithmetic" k2="-1" k3="1"/>
<feColorMatrix type="matrix" values="0 0 0 0 0 0 0 0 0 0 0 0 0 0 0 0 0 0 0.25 0"/>
<feBlend mode="normal" in2="shape" result="effect1_innerShadow_49_14"/>
</filter>
<clipPath id="clip0_49_14">
<rect width="53.6" height="53.6" fill="white" transform="translate(0.155762 13.3999)"/>
</clipPath>
<clipPath id="clip1_49_14">
<rect width="22.78" height="22.78" fill="white" transform="translate(26.8662 4.34949) rotate(101.008)"/>
</clipPath>
</defs>
</svg>
