<svg width="252" height="67" viewBox="0 0 252 67" fill="none" xmlns="http://www.w3.org/2000/svg">
<g filter="url(#filter0_d_49_12)">
<path d="M88.5105 31.0856L81.6488 52H76.1213L85.4955 26.771H89.013L88.5105 31.0856ZM94.2113 52L87.3322 31.0856L86.7778 26.771H90.3299L99.7561 52H94.2113ZM93.8994 42.6084V46.6804H80.5745V42.6084H93.8994ZM113.653 33.2515H118.175V51.3762C118.175 53.0859 117.794 54.5356 117.032 55.7254C116.281 56.9268 115.23 57.8336 113.878 58.4459C112.527 59.0697 110.956 59.3816 109.165 59.3816C108.379 59.3816 107.548 59.2776 106.67 59.0697C105.803 58.8617 104.972 58.5383 104.175 58.0993C103.389 57.6603 102.731 57.1059 102.199 56.4359L104.4 53.4902C104.978 54.1602 105.648 54.68 106.41 55.0497C107.172 55.4309 108.016 55.6215 108.94 55.6215C109.841 55.6215 110.603 55.454 111.227 55.119C111.851 54.7955 112.33 54.3161 112.665 53.6808C113 53.057 113.168 52.3003 113.168 51.4109V37.5834L113.653 33.2515ZM101.038 42.851V42.4872C101.038 41.0547 101.212 39.7552 101.558 38.5884C101.916 37.4102 102.419 36.3994 103.066 35.5561C103.724 34.7128 104.521 34.0602 105.457 33.5981C106.393 33.136 107.45 32.905 108.628 32.905C109.875 32.905 110.921 33.136 111.764 33.5981C112.607 34.0602 113.301 34.7186 113.843 35.5734C114.386 36.4167 114.808 37.4159 115.108 38.5711C115.42 39.7147 115.663 40.9681 115.836 42.3312V43.1283C115.663 44.4336 115.403 45.6465 115.056 46.7671C114.71 47.8876 114.254 48.8695 113.688 49.7128C113.121 50.5445 112.417 51.1914 111.574 51.6534C110.742 52.1155 109.748 52.3466 108.593 52.3466C107.438 52.3466 106.393 52.1097 105.457 51.6361C104.533 51.1625 103.741 50.4983 103.083 49.6434C102.425 48.7886 101.916 47.7836 101.558 46.6284C101.212 45.4733 101.038 44.2141 101.038 42.851ZM106.029 42.4872V42.851C106.029 43.625 106.104 44.347 106.254 45.017C106.404 45.687 106.635 46.2819 106.947 46.8017C107.271 47.31 107.669 47.7085 108.143 47.9973C108.628 48.2746 109.2 48.4132 109.858 48.4132C110.771 48.4132 111.516 48.2226 112.093 47.8414C112.671 47.4486 113.104 46.9115 113.393 46.2299C113.682 45.5484 113.849 44.7628 113.895 43.8734V41.6034C113.872 40.8757 113.774 40.223 113.601 39.6454C113.428 39.0563 113.185 38.5538 112.873 38.1379C112.561 37.7221 112.157 37.3986 111.66 37.1676C111.163 36.9365 110.574 36.821 109.893 36.821C109.234 36.821 108.663 36.9712 108.177 37.2715C107.704 37.5603 107.305 37.9589 106.982 38.4671C106.67 38.9754 106.433 39.5761 106.271 40.2692C106.11 40.9508 106.029 41.6901 106.029 42.4872ZM127.047 37.3409V52H122.057V33.2515H126.753L127.047 37.3409ZM132.696 33.1303L132.609 37.7567C132.367 37.7221 132.072 37.6932 131.726 37.6701C131.391 37.6354 131.084 37.6181 130.807 37.6181C130.103 37.6181 129.49 37.7105 128.97 37.8953C128.462 38.0686 128.035 38.3285 127.688 38.6751C127.353 39.0216 127.099 39.4433 126.926 39.94C126.764 40.4367 126.672 41.0028 126.649 41.6381L125.644 41.3262C125.644 40.1133 125.765 38.9985 126.007 37.982C126.25 36.9539 126.602 36.0586 127.064 35.2962C127.538 34.5338 128.116 33.9446 128.797 33.5288C129.479 33.1129 130.258 32.905 131.136 32.905C131.414 32.905 131.697 32.9281 131.985 32.9743C132.274 33.009 132.511 33.0609 132.696 33.1303ZM133.736 42.8164V42.4525C133.736 41.0778 133.932 39.8129 134.325 38.6578C134.717 37.491 135.289 36.4803 136.04 35.6254C136.791 34.7706 137.715 34.1064 138.813 33.6328C139.91 33.1476 141.169 32.905 142.59 32.905C144.011 32.905 145.276 33.1476 146.385 33.6328C147.494 34.1064 148.424 34.7706 149.174 35.6254C149.937 36.4803 150.514 37.491 150.907 38.6578C151.3 39.8129 151.496 41.0778 151.496 42.4525V42.8164C151.496 44.1795 151.3 45.4444 150.907 46.6111C150.514 47.7663 149.937 48.7771 149.174 49.6434C148.424 50.4983 147.499 51.1625 146.402 51.6361C145.305 52.1097 144.045 52.3466 142.625 52.3466C141.204 52.3466 139.939 52.1097 138.83 51.6361C137.732 51.1625 136.803 50.4983 136.04 49.6434C135.289 48.7771 134.717 47.7663 134.325 46.6111C133.932 45.4444 133.736 44.1795 133.736 42.8164ZM138.726 42.4525V42.8164C138.726 43.6019 138.795 44.3354 138.934 45.017C139.072 45.6985 139.292 46.2992 139.592 46.819C139.904 47.3273 140.308 47.7259 140.805 48.0147C141.302 48.3034 141.908 48.4478 142.625 48.4478C143.318 48.4478 143.913 48.3034 144.409 48.0147C144.906 47.7259 145.305 47.3273 145.605 46.819C145.905 46.2992 146.125 45.6985 146.263 45.017C146.414 44.3354 146.489 43.6019 146.489 42.8164V42.4525C146.489 41.6901 146.414 40.9739 146.263 40.3039C146.125 39.6223 145.9 39.0216 145.588 38.5018C145.287 37.9704 144.889 37.5546 144.392 37.2542C143.895 36.9539 143.295 36.8037 142.59 36.8037C141.885 36.8037 141.285 36.9539 140.788 37.2542C140.303 37.5546 139.904 37.9704 139.592 38.5018C139.292 39.0216 139.072 39.6223 138.934 40.3039C138.795 40.9739 138.726 41.6901 138.726 42.4525ZM166.155 26.771V52H160.975V26.771H166.155ZM173.918 26.771V30.843H153.333V26.771H173.918ZM180.347 37.3409V52H175.356V33.2515H180.052L180.347 37.3409ZM185.996 33.1303L185.909 37.7567C185.666 37.7221 185.372 37.6932 185.025 37.6701C184.69 37.6354 184.384 37.6181 184.107 37.6181C183.402 37.6181 182.79 37.7105 182.27 37.8953C181.762 38.0686 181.334 38.3285 180.988 38.6751C180.653 39.0216 180.399 39.4433 180.225 39.94C180.064 40.4367 179.971 41.0028 179.948 41.6381L178.943 41.3262C178.943 40.1133 179.065 38.9985 179.307 37.982C179.55 36.9539 179.902 36.0586 180.364 35.2962C180.838 34.5338 181.415 33.9446 182.097 33.5288C182.778 33.1129 183.558 32.905 184.436 32.905C184.713 32.905 184.996 32.9281 185.285 32.9743C185.574 33.009 185.811 33.0609 185.996 33.1303ZM199.442 47.5122V33.2515H204.432V52H199.736L199.442 47.5122ZM199.996 43.6654L201.469 43.6308C201.469 44.8784 201.325 46.0393 201.036 47.1136C200.747 48.1764 200.314 49.1005 199.736 49.886C199.159 50.66 198.431 51.2665 197.553 51.7054C196.675 52.1328 195.641 52.3466 194.451 52.3466C193.539 52.3466 192.696 52.2195 191.922 51.9653C191.159 51.6997 190.501 51.2896 189.946 50.7351C189.403 50.1691 188.976 49.4471 188.664 48.5691C188.364 47.6797 188.214 46.6111 188.214 45.3635V33.2515H193.204V45.3982C193.204 45.9527 193.267 46.4205 193.394 46.8017C193.533 47.1829 193.724 47.4948 193.966 47.7374C194.209 47.98 194.492 48.1533 194.815 48.2572C195.15 48.3612 195.52 48.4132 195.924 48.4132C196.952 48.4132 197.761 48.2053 198.35 47.7894C198.951 47.3735 199.372 46.8075 199.615 46.0913C199.869 45.3635 199.996 44.5549 199.996 43.6654ZM215.99 48.4478C216.602 48.4478 217.145 48.3323 217.618 48.1013C218.092 47.8587 218.462 47.5237 218.727 47.0963C219.005 46.6573 219.149 46.1433 219.161 45.5541H223.856C223.845 46.871 223.492 48.0435 222.799 49.0716C222.106 50.0882 221.176 50.891 220.01 51.4802C218.843 52.0578 217.538 52.3466 216.094 52.3466C214.638 52.3466 213.367 52.104 212.282 51.6188C211.207 51.1336 210.312 50.4636 209.596 49.6088C208.88 48.7424 208.342 47.7374 207.984 46.5938C207.626 45.4386 207.447 44.2026 207.447 42.8857V42.3832C207.447 41.0547 207.626 39.8187 207.984 38.6751C208.342 37.5199 208.88 36.5149 209.596 35.6601C210.312 34.7937 211.207 34.1179 212.282 33.6328C213.356 33.1476 214.615 32.905 216.059 32.905C217.595 32.905 218.941 33.1996 220.096 33.7887C221.263 34.3778 222.176 35.2211 222.834 36.3185C223.504 37.4044 223.845 38.6924 223.856 40.1826H219.161C219.149 39.5588 219.016 38.9928 218.762 38.4845C218.519 37.9762 218.161 37.5719 217.688 37.2715C217.226 36.9596 216.654 36.8037 215.972 36.8037C215.245 36.8037 214.65 36.9596 214.188 37.2715C213.725 37.5719 213.367 37.9878 213.113 38.5191C212.859 39.039 212.68 39.6339 212.576 40.3039C212.484 40.9623 212.437 41.6554 212.437 42.3832V42.8857C212.437 43.6134 212.484 44.3123 212.576 44.9823C212.669 45.6523 212.842 46.2472 213.096 46.7671C213.362 47.2869 213.725 47.697 214.188 47.9973C214.65 48.2977 215.25 48.4478 215.99 48.4478ZM231.74 25.3675V52H226.75V25.3675H231.74ZM243.558 33.2515L235.414 42.5391L231.047 46.9577L229.228 43.3535L232.693 38.9523L237.562 33.2515H243.558ZM238.377 52L232.832 43.3362L236.28 40.3212L244.13 52H238.377Z" fill="#459938"/>
<path d="M88.5105 31.0856L88.6861 31.1432L88.692 31.1255L88.6941 31.107L88.5105 31.0856ZM81.6488 52V52.1848H81.7827L81.8244 52.0576L81.6488 52ZM76.1213 52L75.948 51.9356L75.8554 52.1848H76.1213V52ZM85.4955 26.771V26.5862H85.367L85.3223 26.7066L85.4955 26.771ZM89.013 26.771L89.1966 26.7924L89.2206 26.5862H89.013V26.771ZM94.2113 52L94.0357 52.0577L94.0775 52.1848H94.2113V52ZM87.3322 31.0856L87.1489 31.1092L87.1512 31.1266L87.1567 31.1433L87.3322 31.0856ZM86.7778 26.771V26.5862H86.5677L86.5944 26.7946L86.7778 26.771ZM90.3299 26.771L90.5031 26.7063L90.4582 26.5862H90.3299V26.771ZM99.7561 52V52.1848H100.022L99.9293 51.9353L99.7561 52ZM93.8994 42.6084H94.0842V42.4236H93.8994V42.6084ZM93.8994 46.6804V46.8653H94.0842V46.6804H93.8994ZM80.5745 46.6804H80.3897V46.8653H80.5745V46.6804ZM80.5745 42.6084V42.4236H80.3897V42.6084H80.5745ZM88.3349 31.028L81.4732 51.9424L81.8244 52.0576L88.6861 31.1432L88.3349 31.028ZM81.6488 51.8152H76.1213V52.1848H81.6488V51.8152ZM76.2945 52.0644L85.6688 26.8354L85.3223 26.7066L75.948 51.9356L76.2945 52.0644ZM85.4955 26.9559H89.013V26.5862H85.4955V26.9559ZM88.8294 26.7496L88.3269 31.0642L88.6941 31.107L89.1966 26.7924L88.8294 26.7496ZM94.3869 51.9423L87.5078 31.0278L87.1567 31.1433L94.0357 52.0577L94.3869 51.9423ZM87.5156 31.062L86.9611 26.7475L86.5944 26.7946L87.1489 31.1092L87.5156 31.062ZM86.7778 26.9559H90.3299V26.5862H86.7778V26.9559ZM90.1568 26.8357L99.583 52.0647L99.9293 51.9353L90.5031 26.7063L90.1568 26.8357ZM99.7561 51.8152H94.2113V52.1848H99.7561V51.8152ZM93.7146 42.6084V46.6804H94.0842V42.6084H93.7146ZM93.8994 46.4956H80.5745V46.8653H93.8994V46.4956ZM80.7593 46.6804V42.6084H80.3897V46.6804H80.7593ZM80.5745 42.7933H93.8994V42.4236H80.5745V42.7933ZM113.653 33.2515V33.0667H113.488L113.469 33.231L113.653 33.2515ZM118.175 33.2515H118.36V33.0667H118.175V33.2515ZM117.032 55.7254L116.876 55.6257L116.875 55.6275L117.032 55.7254ZM113.878 58.4459L113.802 58.2775L113.801 58.278L113.878 58.4459ZM106.67 59.0697L106.627 59.2494L106.627 59.2495L106.67 59.0697ZM104.175 58.0993L104.085 58.2607L104.086 58.2612L104.175 58.0993ZM102.199 56.4359L102.051 56.3252L101.966 56.4392L102.055 56.5507L102.199 56.4359ZM104.4 53.4902L104.54 53.3695L104.39 53.1951L104.252 53.3796L104.4 53.4902ZM106.41 55.0497L106.493 54.8843L106.491 54.8833L106.41 55.0497ZM111.227 55.119L111.142 54.9549L111.14 54.9561L111.227 55.119ZM112.665 53.6808L112.502 53.5933L112.502 53.5946L112.665 53.6808ZM113.168 37.5834L112.984 37.5629L112.983 37.5731V37.5834H113.168ZM101.558 38.5884L101.381 38.5347L101.381 38.5358L101.558 38.5884ZM103.066 35.5561L102.92 35.4424L102.919 35.4436L103.066 35.5561ZM113.843 35.5734L113.687 35.6725L113.688 35.6735L113.843 35.5734ZM115.108 38.5711L114.929 38.6176L114.93 38.6197L115.108 38.5711ZM115.836 42.3312H116.021V42.3195L116.019 42.3079L115.836 42.3312ZM115.836 43.1283L116.019 43.1526L116.021 43.1405V43.1283H115.836ZM113.688 49.7128L113.84 49.8167L113.841 49.8158L113.688 49.7128ZM111.574 51.6534L111.485 51.4914L111.484 51.4919L111.574 51.6534ZM105.457 51.6361L105.373 51.8006L105.373 51.801L105.457 51.6361ZM101.558 46.6284L101.381 46.6816L101.382 46.6832L101.558 46.6284ZM106.947 46.8017L106.789 46.8968L106.791 46.901L106.947 46.8017ZM108.143 47.9973L108.046 48.1552L108.051 48.1578L108.143 47.9973ZM112.093 47.8414L112.195 47.9957L112.197 47.9942L112.093 47.8414ZM113.895 43.8734L114.08 43.883V43.8734H113.895ZM113.895 41.6034H114.08L114.08 41.5976L113.895 41.6034ZM113.601 39.6454L113.424 39.6976L113.424 39.6985L113.601 39.6454ZM108.177 37.2715L108.274 37.4294L108.275 37.4287L108.177 37.2715ZM106.982 38.4671L106.826 38.3679L106.824 38.3705L106.982 38.4671ZM106.271 40.2692L106.451 40.3119L106.451 40.3112L106.271 40.2692ZM113.653 33.4364H118.175V33.0667H113.653V33.4364ZM117.991 33.2515V51.3762H118.36V33.2515H117.991ZM117.991 51.3762C117.991 53.058 117.616 54.4714 116.876 55.6257L117.187 55.8252C117.973 54.5998 118.36 53.1137 118.36 51.3762H117.991ZM116.875 55.6275C116.144 56.7965 115.122 57.6795 113.802 58.2775L113.954 58.6142C115.337 57.9877 116.417 57.0572 117.188 55.8234L116.875 55.6275ZM113.801 58.278C112.478 58.8886 110.934 59.1967 109.165 59.1967V59.5664C110.977 59.5664 112.575 59.2507 113.956 58.6137L113.801 58.278ZM109.165 59.1967C108.396 59.1967 107.578 59.0949 106.712 58.8898L106.627 59.2495C107.517 59.4603 108.363 59.5664 109.165 59.5664V59.1967ZM106.713 58.8899C105.863 58.6859 105.047 58.3686 104.264 57.9374L104.086 58.2612C104.897 58.708 105.744 59.0375 106.627 59.2494L106.713 58.8899ZM104.265 57.938C103.499 57.5102 102.86 56.9711 102.344 56.321L102.055 56.5507C102.602 57.2406 103.279 57.8105 104.085 58.2607L104.265 57.938ZM102.347 56.5465L104.548 53.6008L104.252 53.3796L102.051 56.3252L102.347 56.5465ZM104.26 53.6109C104.853 54.2991 105.543 54.8348 106.329 55.216L106.491 54.8833C105.752 54.5252 105.102 54.0213 104.54 53.3695L104.26 53.6109ZM106.327 55.215C107.117 55.6101 107.989 55.8063 108.94 55.8063V55.4366C108.042 55.4366 107.227 55.2517 106.493 54.8843L106.327 55.215ZM108.94 55.8063C109.863 55.8063 110.657 55.6346 111.314 55.2818L111.14 54.9561C110.549 55.2733 109.818 55.4366 108.94 55.4366V55.8063ZM111.312 55.283C111.97 54.9418 112.477 54.4349 112.829 53.767L112.502 53.5946C112.184 54.1974 111.731 54.6492 111.142 54.9549L111.312 55.283ZM112.828 53.7682C113.181 53.1115 113.353 52.3232 113.353 51.4109H112.983C112.983 52.2775 112.82 53.0025 112.502 53.5933L112.828 53.7682ZM113.353 51.4109V37.5834H112.983V51.4109H113.353ZM113.351 37.604L113.837 33.2721L113.469 33.231L112.984 37.5629L113.351 37.604ZM101.223 42.851V42.4872H100.854V42.851H101.223ZM101.223 42.4872C101.223 41.0695 101.395 39.788 101.735 38.6411L101.381 38.5358C101.029 39.7223 100.854 41.04 100.854 42.4872H101.223ZM101.735 38.6422C102.088 37.4818 102.581 36.4917 103.212 35.6686L102.919 35.4436C102.257 36.3071 101.745 37.3385 101.381 38.5347L101.735 38.6422ZM103.211 35.6699C103.853 34.8479 104.629 34.2133 105.539 33.7638L105.375 33.4324C104.414 33.9071 103.595 34.5778 102.92 35.4424L103.211 35.6699ZM105.539 33.7638C106.446 33.3159 107.474 33.0898 108.628 33.0898V32.7202C107.425 32.7202 106.339 32.9562 105.375 33.4324L105.539 33.7638ZM108.628 33.0898C109.853 33.0898 110.866 33.3168 111.675 33.7602L111.853 33.436C110.976 32.9552 109.898 32.7202 108.628 32.7202V33.0898ZM111.675 33.7602C112.49 34.2065 113.16 34.8426 113.687 35.6725L113.999 35.4743C113.441 34.5946 112.725 33.9139 111.853 33.436L111.675 33.7602ZM113.688 35.6735C114.219 36.4975 114.633 37.4779 114.929 38.6176L115.287 38.5246C114.983 37.354 114.554 36.3359 113.999 35.4734L113.688 35.6735ZM114.93 38.6197C115.239 39.7539 115.48 40.9986 115.653 42.3545L116.019 42.3079C115.845 40.9376 115.601 39.6756 115.287 38.5225L114.93 38.6197ZM115.651 42.3312V43.1283H116.021V42.3312H115.651ZM115.653 43.104C115.481 44.4003 115.223 45.6029 114.88 46.7125L115.233 46.8217C115.583 45.6902 115.845 44.467 116.019 43.1526L115.653 43.104ZM114.88 46.7125C114.538 47.8184 114.089 48.7835 113.534 49.6097L113.841 49.8158C114.418 48.9555 114.882 47.9568 115.233 46.8217L114.88 46.7125ZM113.535 49.6088C112.984 50.4175 112.301 51.044 111.485 51.4914L111.662 51.8155C112.532 51.3388 113.259 50.6715 113.84 49.8167L113.535 49.6088ZM111.484 51.4919C110.685 51.9357 109.724 52.1617 108.593 52.1617V52.5314C109.773 52.5314 110.799 52.2953 111.663 51.815L111.484 51.4919ZM108.593 52.1617C107.464 52.1617 106.448 51.9305 105.54 51.4712L105.373 51.801C106.338 52.289 107.412 52.5314 108.593 52.5314V52.1617ZM105.541 51.4716C104.642 51.0109 103.872 50.3648 103.229 49.5307L102.937 49.7562C103.611 50.6318 104.423 51.3141 105.373 51.8006L105.541 51.4716ZM103.229 49.5307C102.586 48.6952 102.087 47.7104 101.735 46.5737L101.382 46.6832C101.745 47.8568 102.263 48.882 102.937 49.7562L103.229 49.5307ZM101.735 46.5753C101.394 45.4395 101.223 44.1984 101.223 42.851H100.854C100.854 44.2298 101.029 45.5071 101.381 46.6816L101.735 46.5753ZM105.844 42.4872V42.851H106.214V42.4872H105.844ZM105.844 42.851C105.844 43.6369 105.92 44.3726 106.074 45.0574L106.434 44.9766C106.287 44.3214 106.214 43.6131 106.214 42.851H105.844ZM106.074 45.0574C106.228 45.7442 106.465 46.358 106.789 46.8968L107.106 46.7066C106.805 46.2058 106.581 45.6298 106.434 44.9766L106.074 45.0574ZM106.791 46.901C107.128 47.431 107.547 47.8504 108.046 48.1551L108.239 47.8395C107.791 47.5667 107.413 47.189 107.103 46.7025L106.791 46.901ZM108.051 48.1578C108.569 48.4536 109.173 48.598 109.858 48.598V48.2284C109.226 48.2284 108.687 48.0955 108.234 47.8369L108.051 48.1578ZM109.858 48.598C110.796 48.598 111.579 48.4022 112.195 47.9956L111.992 47.6871C111.452 48.0429 110.746 48.2284 109.858 48.2284V48.598ZM112.197 47.9942C112.806 47.5803 113.261 47.0142 113.563 46.302L113.223 46.1578C112.947 46.8087 112.536 47.317 111.989 47.6885L112.197 47.9942ZM113.563 46.302C113.862 45.5971 114.033 44.7897 114.08 43.8829L113.711 43.8638C113.666 44.736 113.502 45.4997 113.223 46.1578L113.563 46.302ZM114.08 43.8734V41.6034H113.711V43.8734H114.08ZM114.08 41.5976C114.057 40.857 113.957 40.188 113.778 39.5923L113.424 39.6985C113.592 40.258 113.688 40.8944 113.711 41.6093L114.08 41.5976ZM113.778 39.5933C113.6 38.9867 113.348 38.4634 113.021 38.027L112.725 38.2488C113.022 38.6441 113.255 39.1259 113.424 39.6976L113.778 39.5933ZM113.021 38.027C112.69 37.5855 112.261 37.2432 111.738 37L111.582 37.3352C112.053 37.5541 112.433 37.8586 112.725 38.2488L113.021 38.027ZM111.738 37C111.212 36.7552 110.595 36.6362 109.893 36.6362V37.0059C110.554 37.0059 111.115 37.1179 111.582 37.3352L111.738 37ZM109.893 36.6362C109.205 36.6362 108.599 36.7933 108.08 37.1144L108.275 37.4287C108.726 37.1491 109.263 37.0059 109.893 37.0059V36.6362ZM108.081 37.1137C107.581 37.4185 107.163 37.8379 106.826 38.3679L107.138 38.5664C107.447 38.0798 107.826 37.7022 108.274 37.4294L108.081 37.1137ZM106.824 38.3705C106.5 38.8986 106.257 39.5184 106.091 40.2272L106.451 40.3112C106.609 39.6338 106.84 39.0523 107.139 38.5638L106.824 38.3705ZM106.091 40.2265C105.926 40.9238 105.844 41.6776 105.844 42.4872H106.214C106.214 41.7025 106.293 40.9777 106.451 40.3119L106.091 40.2265ZM127.047 37.3409H127.232L127.231 37.3276L127.047 37.3409ZM127.047 52V52.1848H127.232V52H127.047ZM122.057 52H121.872V52.1848H122.057V52ZM122.057 33.2515V33.0667H121.872V33.2515H122.057ZM126.753 33.2515L126.937 33.2383L126.925 33.0667H126.753V33.2515ZM132.696 33.1303L132.881 33.1337L132.883 33.0031L132.761 32.9572L132.696 33.1303ZM132.609 37.7567L132.583 37.9397L132.79 37.9693L132.794 37.7602L132.609 37.7567ZM131.726 37.6701L131.707 37.854L131.713 37.8545L131.726 37.6701ZM128.97 37.8953L129.03 38.0703L129.032 38.0695L128.97 37.8953ZM127.688 38.6751L127.558 38.5444L127.555 38.5466L127.688 38.6751ZM126.926 39.94L126.751 39.8791L126.75 39.8828L126.926 39.94ZM126.649 41.6381L126.594 41.8146L126.824 41.8862L126.833 41.6448L126.649 41.6381ZM125.644 41.3262H125.459V41.4624L125.589 41.5027L125.644 41.3262ZM126.007 37.982L126.187 38.0249L126.187 38.0244L126.007 37.982ZM127.064 35.2962L126.907 35.1987L126.906 35.2004L127.064 35.2962ZM128.797 33.5288L128.701 33.371L128.797 33.5288ZM131.985 32.9743L131.956 33.1569L131.963 33.1578L131.985 32.9743ZM126.862 37.3409V52H127.232V37.3409H126.862ZM127.047 51.8152H122.057V52.1848H127.047V51.8152ZM122.242 52V33.2515H121.872V52H122.242ZM122.057 33.4364H126.753V33.0667H122.057V33.4364ZM126.568 33.2648L126.863 37.3541L127.231 37.3276L126.937 33.2383L126.568 33.2648ZM132.511 33.1268L132.424 37.7533L132.794 37.7602L132.881 33.1337L132.511 33.1268ZM132.635 37.5737C132.387 37.5382 132.087 37.509 131.738 37.4857L131.713 37.8545C132.057 37.8774 132.347 37.9059 132.583 37.9397L132.635 37.5737ZM131.745 37.4862C131.405 37.4511 131.092 37.4333 130.807 37.4333V37.8029C131.077 37.8029 131.377 37.8198 131.707 37.8539L131.745 37.4862ZM130.807 37.4333C130.087 37.4333 129.453 37.5276 128.909 37.7212L129.032 38.0695C129.528 37.8934 130.118 37.8029 130.807 37.8029V37.4333ZM128.911 37.7204C128.378 37.9019 127.926 38.176 127.558 38.5444L127.819 38.8058C128.144 38.4811 128.546 38.2353 129.03 38.0703L128.911 37.7204ZM127.555 38.5466C127.2 38.9141 126.933 39.3595 126.751 39.8791L127.1 40.0009C127.266 39.5271 127.506 39.1291 127.821 38.8035L127.555 38.5466ZM126.75 39.8828C126.582 40.3989 126.487 40.9824 126.464 41.6314L126.833 41.6448C126.856 41.0231 126.946 40.4745 127.102 39.9972L126.75 39.8828ZM126.703 41.4616L125.698 41.1497L125.589 41.5027L126.594 41.8146L126.703 41.4616ZM125.828 41.3262C125.828 40.1255 125.948 39.0253 126.187 38.0249L125.828 37.9391C125.581 38.9717 125.459 40.1011 125.459 41.3262H125.828ZM126.187 38.0244C126.426 37.0118 126.772 36.1351 127.222 35.392L126.906 35.2004C126.433 35.9821 126.074 36.896 125.828 37.9395L126.187 38.0244ZM127.221 35.3937C127.682 34.6528 128.239 34.0856 128.893 33.6866L128.701 33.371C127.992 33.8037 127.394 34.4148 126.907 35.1987L127.221 35.3937ZM128.893 33.6866C129.543 33.2901 130.289 33.0898 131.136 33.0898V32.7202C130.228 32.7202 129.414 32.9357 128.701 33.371L128.893 33.6866ZM131.136 33.0898C131.403 33.0898 131.677 33.1121 131.956 33.1568L132.015 32.7918C131.717 32.7441 131.424 32.7202 131.136 32.7202V33.0898ZM131.963 33.1578C132.244 33.1915 132.465 33.241 132.631 33.3033L132.761 32.9572C132.557 32.8809 132.305 32.8265 132.007 32.7908L131.963 33.1578ZM134.325 38.6578L134.5 38.7172L134.5 38.7167L134.325 38.6578ZM136.04 35.6254L136.179 35.7474L136.04 35.6254ZM138.813 33.6328L138.886 33.8025L138.887 33.8018L138.813 33.6328ZM146.385 33.6328L146.311 33.8021L146.312 33.8027L146.385 33.6328ZM149.174 35.6254L149.036 35.7474L149.036 35.7484L149.174 35.6254ZM150.907 38.6578L150.732 38.7167L150.732 38.7172L150.907 38.6578ZM150.907 46.6111L151.082 46.6706L151.082 46.6701L150.907 46.6111ZM149.174 49.6434L149.036 49.5213L149.036 49.5215L149.174 49.6434ZM138.83 51.6361L138.757 51.8058L138.757 51.8061L138.83 51.6361ZM136.04 49.6434L135.9 49.7645L135.902 49.7665L136.04 49.6434ZM134.325 46.6111L134.15 46.6701L134.15 46.6706L134.325 46.6111ZM139.592 46.819L139.432 46.9115L139.435 46.9157L139.592 46.819ZM144.409 48.0147L144.316 47.8549L144.409 48.0147ZM145.605 46.819L145.764 46.9131L145.765 46.9115L145.605 46.819ZM146.263 45.017L146.083 44.9772L146.082 44.9801L146.263 45.017ZM146.263 40.3039L146.082 40.3407L146.083 40.3443L146.263 40.3039ZM145.588 38.5018L145.427 38.5928L145.429 38.5969L145.588 38.5018ZM140.788 37.2542L140.692 37.096L140.691 37.0971L140.788 37.2542ZM139.592 38.5018L139.433 38.4082L139.432 38.4093L139.592 38.5018ZM138.934 40.3039L139.115 40.3413L139.115 40.3407L138.934 40.3039ZM133.92 42.8164V42.4525H133.551V42.8164H133.92ZM133.92 42.4525C133.92 41.0955 134.114 39.851 134.5 38.7172L134.15 38.5983C133.75 39.7748 133.551 41.0601 133.551 42.4525H133.92ZM134.5 38.7167C134.885 37.5713 135.446 36.5824 136.179 35.7474L135.901 35.5034C135.133 36.3781 134.549 37.4108 134.15 38.5988L134.5 38.7167ZM136.179 35.7474C136.911 34.9142 137.812 34.2658 138.886 33.8024L138.739 33.4631C137.618 33.947 136.671 34.627 135.901 35.5034L136.179 35.7474ZM138.887 33.8018C139.957 33.3288 141.19 33.0898 142.59 33.0898V32.7202C141.148 32.7202 139.863 32.9664 138.738 33.4637L138.887 33.8018ZM142.59 33.0898C143.99 33.0898 145.229 33.3287 146.311 33.8021L146.459 33.4634C145.323 32.9664 144.032 32.7202 142.59 32.7202V33.0898ZM146.312 33.8027C147.397 34.2662 148.304 34.9146 149.036 35.7474L149.313 35.5034C148.543 34.6266 147.59 33.9466 146.457 33.4628L146.312 33.8027ZM149.036 35.7484C149.781 36.5833 150.347 37.5719 150.732 38.7167L151.082 38.5988C150.682 37.4102 150.093 36.3772 149.312 35.5024L149.036 35.7484ZM150.732 38.7172C151.118 39.851 151.311 41.0955 151.311 42.4525H151.681C151.681 41.0601 151.482 39.7748 151.082 38.5983L150.732 38.7172ZM151.311 42.4525V42.8164H151.681V42.4525H151.311ZM151.311 42.8164C151.311 44.1616 151.118 45.4064 150.732 46.5522L151.082 46.6701C151.482 45.4824 151.681 44.1974 151.681 42.8164H151.311ZM150.732 46.5516C150.347 47.6851 149.781 48.6743 149.036 49.5213L149.313 49.7655C150.093 48.8799 150.682 47.8475 151.082 46.6706L150.732 46.5516ZM149.036 49.5215C148.304 50.3547 147.402 51.0031 146.329 51.4664L146.475 51.8058C147.597 51.3219 148.543 50.6419 149.313 49.7654L149.036 49.5215ZM146.329 51.4664C145.258 51.9284 144.025 52.1617 142.625 52.1617V52.5314C144.066 52.5314 145.351 52.2911 146.475 51.8058L146.329 51.4664ZM142.625 52.1617C141.224 52.1617 139.985 51.9284 138.902 51.4661L138.757 51.8061C139.893 52.2911 141.183 52.5314 142.625 52.5314V52.1617ZM138.903 51.4664C137.829 51.003 136.922 50.3543 136.178 49.5204L135.902 49.7665C136.683 50.6423 137.636 51.322 138.757 51.8058L138.903 51.4664ZM136.18 49.5224C135.446 48.6752 134.885 47.6857 134.5 46.5516L134.15 46.6706C134.55 47.8469 135.133 48.8789 135.9 49.7645L136.18 49.5224ZM134.5 46.5522C134.114 45.4064 133.92 44.1616 133.92 42.8164H133.551C133.551 44.1974 133.75 45.4824 134.15 46.6701L134.5 46.5522ZM138.541 42.4525V42.8164H138.911V42.4525H138.541ZM138.541 42.8164C138.541 43.6127 138.611 44.3587 138.753 45.0538L139.115 44.9801C138.979 44.3122 138.911 43.5911 138.911 42.8164H138.541ZM138.753 45.0538C138.895 45.7519 139.12 46.3719 139.432 46.9115L139.752 46.7266C139.463 46.2265 139.25 45.6452 139.115 44.9801L138.753 45.0538ZM139.435 46.9157C139.762 47.449 140.188 47.8697 140.712 48.1744L140.898 47.8549C140.429 47.582 140.046 47.2056 139.75 46.7224L139.435 46.9157ZM140.712 48.1744C141.243 48.4832 141.884 48.6327 142.625 48.6327V48.263C141.933 48.263 141.36 48.1237 140.898 47.8549L140.712 48.1744ZM142.625 48.6327C143.344 48.6327 143.972 48.4827 144.502 48.1744L144.316 47.8549C143.853 48.1242 143.292 48.263 142.625 48.263V48.6327ZM144.502 48.1744C145.027 47.8693 145.448 47.4478 145.764 46.9131L145.446 46.725C145.161 47.2069 144.785 47.5824 144.316 47.8549L144.502 48.1744ZM145.765 46.9115C146.077 46.3719 146.303 45.7519 146.445 45.0538L146.082 44.9801C145.947 45.6452 145.734 46.2265 145.445 46.7266L145.765 46.9115ZM146.444 45.0568C146.597 44.3606 146.673 43.6136 146.673 42.8164H146.304C146.304 43.5902 146.23 44.3102 146.083 44.9772L146.444 45.0568ZM146.673 42.8164V42.4525H146.304V42.8164H146.673ZM146.673 42.4525C146.673 41.678 146.597 40.9481 146.444 40.2635L146.083 40.3443C146.23 40.9997 146.304 41.7022 146.304 42.4525H146.673ZM146.445 40.267C146.302 39.5679 146.07 38.947 145.746 38.4067L145.429 38.5969C145.729 39.0963 145.947 39.6767 146.082 40.3407L146.445 40.267ZM145.749 38.4109C145.433 37.8533 145.013 37.4137 144.488 37.0961L144.296 37.4124C144.765 37.6954 145.141 38.0875 145.427 38.5928L145.749 38.4109ZM144.488 37.0961C143.956 36.7749 143.321 36.6189 142.59 36.6189V36.9885C143.268 36.9885 143.834 37.1329 144.296 37.4124L144.488 37.0961ZM142.59 36.6189C141.859 36.6189 141.223 36.7749 140.692 37.0961L140.884 37.4124C141.346 37.1329 141.912 36.9885 142.59 36.9885V36.6189ZM140.691 37.0971C140.178 37.4145 139.759 37.8531 139.433 38.4082L139.752 38.5954C140.05 38.0878 140.428 37.6946 140.885 37.4114L140.691 37.0971ZM139.432 38.4093C139.12 38.9489 138.895 39.569 138.753 40.267L139.115 40.3407C139.25 39.6757 139.463 39.0943 139.752 38.5943L139.432 38.4093ZM138.753 40.2664C138.611 40.9501 138.541 41.6789 138.541 42.4525H138.911C138.911 41.7013 138.979 40.9977 139.115 40.3413L138.753 40.2664ZM166.155 26.771H166.34V26.5862H166.155V26.771ZM166.155 52V52.1848H166.34V52H166.155ZM160.975 52H160.79V52.1848H160.975V52ZM160.975 26.771V26.5862H160.79V26.771H160.975ZM173.918 26.771H174.103V26.5862H173.918V26.771ZM173.918 30.843V31.0278H174.103V30.843H173.918ZM153.333 30.843H153.148V31.0278H153.333V30.843ZM153.333 26.771V26.5862H153.148V26.771H153.333ZM165.971 26.771V52H166.34V26.771H165.971ZM166.155 51.8152H160.975V52.1848H166.155V51.8152ZM161.159 52V26.771H160.79V52H161.159ZM160.975 26.9559H166.155V26.5862H160.975V26.9559ZM173.733 26.771V30.843H174.103V26.771H173.733ZM173.918 30.6582H153.333V31.0278H173.918V30.6582ZM153.518 30.843V26.771H153.148V30.843H153.518ZM153.333 26.9559H173.918V26.5862H153.333V26.9559ZM180.347 37.3409H180.532L180.531 37.3276L180.347 37.3409ZM180.347 52V52.1848H180.532V52H180.347ZM175.356 52H175.172V52.1848H175.356V52ZM175.356 33.2515V33.0667H175.172V33.2515H175.356ZM180.052 33.2515L180.237 33.2383L180.224 33.0667H180.052V33.2515ZM185.996 33.1303L186.18 33.1337L186.183 33.0031L186.06 32.9572L185.996 33.1303ZM185.909 37.7567L185.883 37.9397L186.09 37.9693L186.094 37.7602L185.909 37.7567ZM185.025 37.6701L185.006 37.854L185.013 37.8545L185.025 37.6701ZM182.27 37.8953L182.33 38.0703L182.332 38.0695L182.27 37.8953ZM180.988 38.6751L180.857 38.5444L180.855 38.5466L180.988 38.6751ZM180.225 39.94L180.051 39.8791L180.05 39.8828L180.225 39.94ZM179.948 41.6381L179.893 41.8146L180.124 41.8862L180.133 41.6448L179.948 41.6381ZM178.943 41.3262H178.758V41.4624L178.888 41.5027L178.943 41.3262ZM179.307 37.982L179.487 38.0249L179.487 38.0244L179.307 37.982ZM180.364 35.2962L180.207 35.1987L180.206 35.2004L180.364 35.2962ZM182.097 33.5288L182.001 33.371L182.097 33.5288ZM185.285 32.9743L185.256 33.1569L185.263 33.1578L185.285 32.9743ZM180.162 37.3409V52H180.532V37.3409H180.162ZM180.347 51.8152H175.356V52.1848H180.347V51.8152ZM175.541 52V33.2515H175.172V52H175.541ZM175.356 33.4364H180.052V33.0667H175.356V33.4364ZM179.868 33.2648L180.162 37.3541L180.531 37.3276L180.237 33.2383L179.868 33.2648ZM185.811 33.1268L185.724 37.7533L186.094 37.7602L186.18 33.1337L185.811 33.1268ZM185.935 37.5737C185.686 37.5382 185.387 37.509 185.038 37.4857L185.013 37.8545C185.357 37.8774 185.646 37.9059 185.883 37.9397L185.935 37.5737ZM185.044 37.4862C184.704 37.4511 184.392 37.4333 184.107 37.4333V37.8029C184.377 37.8029 184.676 37.8198 185.006 37.8539L185.044 37.4862ZM184.107 37.4333C183.387 37.4333 182.753 37.5276 182.208 37.7212L182.332 38.0695C182.827 37.8934 183.418 37.8029 184.107 37.8029V37.4333ZM182.21 37.7204C181.678 37.9019 181.226 38.176 180.857 38.5444L181.119 38.8058C181.443 38.4811 181.846 38.2353 182.33 38.0703L182.21 37.7204ZM180.855 38.5466C180.5 38.9141 180.232 39.3595 180.051 39.8791L180.4 40.0009C180.565 39.5271 180.806 39.1291 181.121 38.8035L180.855 38.5466ZM180.05 39.8828C179.882 40.3989 179.787 40.9824 179.764 41.6314L180.133 41.6448C180.156 41.0231 180.246 40.4745 180.401 39.9972L180.05 39.8828ZM180.003 41.4616L178.998 41.1497L178.888 41.5027L179.893 41.8146L180.003 41.4616ZM179.128 41.3262C179.128 40.1255 179.248 39.0253 179.487 38.0249L179.127 37.9391C178.881 38.9717 178.758 40.1011 178.758 41.3262H179.128ZM179.487 38.0244C179.726 37.0118 180.072 36.1351 180.522 35.392L180.206 35.2004C179.732 35.9821 179.373 36.896 179.127 37.9395L179.487 38.0244ZM180.521 35.3937C180.981 34.6528 181.539 34.0856 182.193 33.6866L182.001 33.371C181.291 33.8037 180.694 34.4148 180.207 35.1987L180.521 35.3937ZM182.193 33.6866C182.843 33.2901 183.589 33.0898 184.436 33.0898V32.7202C183.528 32.7202 182.714 32.9357 182.001 33.371L182.193 33.6866ZM184.436 33.0898C184.703 33.0898 184.976 33.1121 185.256 33.1568L185.314 32.7918C185.016 32.7441 184.724 32.7202 184.436 32.7202V33.0898ZM185.263 33.1578C185.543 33.1915 185.765 33.241 185.931 33.3033L186.06 32.9572C185.857 32.8809 185.604 32.8265 185.307 32.7908L185.263 33.1578ZM199.442 47.5122H199.257L199.257 47.5243L199.442 47.5122ZM199.442 33.2515V33.0667H199.257V33.2515H199.442ZM204.432 33.2515H204.617V33.0667H204.432V33.2515ZM204.432 52V52.1848H204.617V52H204.432ZM199.736 52L199.552 52.0121L199.563 52.1848H199.736V52ZM199.996 43.6654L199.992 43.4807L199.811 43.4849V43.6654H199.996ZM201.469 43.6308H201.654V43.4415L201.465 43.446L201.469 43.6308ZM201.036 47.1136L201.214 47.1621L201.214 47.1616L201.036 47.1136ZM199.736 49.886L199.884 49.9966L199.885 49.9955L199.736 49.886ZM197.553 51.7054L197.634 51.8716L197.636 51.8707L197.553 51.7054ZM191.922 51.9653L191.861 52.1399L191.864 52.1409L191.922 51.9653ZM189.946 50.7351L189.813 50.8631L189.816 50.8658L189.946 50.7351ZM188.664 48.5691L188.489 48.6283L188.49 48.631L188.664 48.5691ZM188.214 33.2515V33.0667H188.029V33.2515H188.214ZM193.204 33.2515H193.389V33.0667H193.204V33.2515ZM193.394 46.8017L193.219 46.8602L193.221 46.8649L193.394 46.8017ZM194.815 48.2572L194.759 48.4332L194.761 48.4338L194.815 48.2572ZM198.35 47.7894L198.245 47.6374L198.244 47.6384L198.35 47.7894ZM199.615 46.0913L199.441 46.0304L199.44 46.032L199.615 46.0913ZM199.627 47.5122V33.2515H199.257V47.5122H199.627ZM199.442 33.4364H204.432V33.0667H199.442V33.4364ZM204.247 33.2515V52H204.617V33.2515H204.247ZM204.432 51.8152H199.736V52.1848H204.432V51.8152ZM199.921 51.9879L199.626 47.5L199.257 47.5243L199.552 52.0121L199.921 51.9879ZM200.001 43.8502L201.473 43.8155L201.465 43.446L199.992 43.4807L200.001 43.8502ZM201.284 43.6308C201.284 44.8641 201.142 46.0087 200.857 47.0656L201.214 47.1616C201.508 46.0699 201.654 44.8926 201.654 43.6308H201.284ZM200.858 47.0652C200.574 48.1088 200.15 49.0116 199.587 49.7765L199.885 49.9955C200.478 49.1894 200.92 48.244 201.214 47.1621L200.858 47.0652ZM199.588 49.7755C199.028 50.526 198.323 51.1138 197.47 51.5401L197.636 51.8707C198.539 51.4191 199.289 50.794 199.884 49.9966L199.588 49.7755ZM197.472 51.5393C196.624 51.952 195.619 52.1617 194.451 52.1617V52.5314C195.663 52.5314 196.726 52.3137 197.634 51.8716L197.472 51.5393ZM194.451 52.1617C193.556 52.1617 192.733 52.0371 191.979 51.7897L191.864 52.1409C192.659 52.4019 193.522 52.5314 194.451 52.5314V52.1617ZM191.982 51.7908C191.246 51.534 190.611 51.1386 190.077 50.6044L189.816 50.8658C190.39 51.4405 191.073 51.8653 191.861 52.1399L191.982 51.7908ZM190.08 50.6071C189.558 50.0632 189.143 49.3651 188.838 48.5073L188.49 48.631C188.809 49.529 189.249 50.2749 189.813 50.863L190.08 50.6071ZM188.839 48.51C188.547 47.6447 188.398 46.5972 188.398 45.3635H188.029C188.029 46.625 188.18 47.7146 188.489 48.6283L188.839 48.51ZM188.398 45.3635V33.2515H188.029V45.3635H188.398ZM188.214 33.4364H193.204V33.0667H188.214V33.4364ZM193.019 33.2515V45.3982H193.389V33.2515H193.019ZM193.019 45.3982C193.019 45.9656 193.084 46.4545 193.219 46.8602L193.57 46.7433C193.451 46.3866 193.389 45.9398 193.389 45.3982H193.019ZM193.221 46.8649C193.367 47.2669 193.571 47.6033 193.836 47.8681L194.097 47.6067C193.877 47.3864 193.699 47.099 193.568 46.7386L193.221 46.8649ZM193.836 47.8681C194.099 48.1312 194.407 48.3202 194.759 48.4332L194.872 48.0813C194.577 47.9864 194.319 47.8288 194.097 47.6067L193.836 47.8681ZM194.761 48.4338C195.116 48.544 195.504 48.598 195.924 48.598V48.2284C195.536 48.2284 195.185 48.1784 194.87 48.0807L194.761 48.4338ZM195.924 48.598C196.975 48.598 197.826 48.3858 198.457 47.9404L198.244 47.6384C197.696 48.0247 196.93 48.2284 195.924 48.2284V48.598ZM198.455 47.9414C199.09 47.5021 199.535 46.903 199.79 46.1506L199.44 46.032C199.21 46.712 198.812 47.245 198.245 47.6374L198.455 47.9414ZM199.79 46.1522C200.051 45.4021 200.181 44.5725 200.181 43.6654H199.811C199.811 44.5373 199.687 45.3249 199.441 46.0304L199.79 46.1522ZM217.618 48.1013L217.699 48.2674L217.703 48.2658L217.618 48.1013ZM218.727 47.0963L218.571 46.9976L218.57 46.9987L218.727 47.0963ZM219.161 45.5541V45.3693H218.979L218.976 45.5505L219.161 45.5541ZM223.856 45.5541L224.041 45.5558L224.043 45.3693H223.856V45.5541ZM222.799 49.0716L222.952 49.1758L222.953 49.175L222.799 49.0716ZM220.01 51.4802L220.092 51.6458L220.093 51.6452L220.01 51.4802ZM212.282 51.6188L212.205 51.7872L212.206 51.7875L212.282 51.6188ZM209.596 49.6088L209.453 49.7266L209.454 49.7275L209.596 49.6088ZM207.984 46.5938L207.808 46.6485L207.808 46.649L207.984 46.5938ZM207.984 38.6751L208.161 38.7303L208.161 38.7298L207.984 38.6751ZM209.596 35.6601L209.737 35.7788L209.738 35.7778L209.596 35.6601ZM220.096 33.7887L220.012 33.9534L220.013 33.9537L220.096 33.7887ZM222.834 36.3185L222.676 36.4136L222.677 36.4156L222.834 36.3185ZM223.856 40.1826V40.3674H224.043L224.041 40.1811L223.856 40.1826ZM219.161 40.1826L218.976 40.186L218.979 40.3674H219.161V40.1826ZM218.762 38.4845L218.595 38.5641L218.597 38.5671L218.762 38.4845ZM217.688 37.2715L217.584 37.4248L217.589 37.4276L217.688 37.2715ZM214.188 37.2715L214.288 37.4265L214.291 37.4247L214.188 37.2715ZM213.113 38.5191L213.279 38.6003L213.28 38.5989L213.113 38.5191ZM212.576 40.3039L212.393 40.2755L212.393 40.2782L212.576 40.3039ZM213.096 46.7671L212.93 46.8483L212.931 46.8512L213.096 46.7671ZM214.188 47.9973L214.087 48.1523L214.188 47.9973ZM215.99 48.6327C216.625 48.6327 217.197 48.5126 217.699 48.2674L217.537 47.9352C217.093 48.1521 216.578 48.263 215.99 48.263V48.6327ZM217.703 48.2658C218.204 48.0088 218.6 47.6514 218.884 47.1939L218.57 46.9987C218.323 47.396 217.98 47.7086 217.534 47.9368L217.703 48.2658ZM218.884 47.195C219.181 46.7238 219.333 46.1759 219.345 45.5578L218.976 45.5505C218.965 46.1106 218.828 46.5908 218.571 46.9976L218.884 47.195ZM219.161 45.739H223.856V45.3693H219.161V45.739ZM223.672 45.5525C223.66 46.8355 223.318 47.9722 222.646 48.9683L222.953 49.175C223.667 48.1149 224.029 46.9065 224.041 45.5558L223.672 45.5525ZM222.647 48.9675C221.972 49.9566 221.067 50.7392 219.926 51.3152L220.093 51.6452C221.286 51.0428 222.24 50.2198 222.952 49.1758L222.647 48.9675ZM219.928 51.3145C218.789 51.8782 217.512 52.1617 216.094 52.1617V52.5314C217.563 52.5314 218.897 52.2373 220.092 51.6458L219.928 51.3145ZM216.094 52.1617C214.658 52.1617 213.414 51.9225 212.357 51.45L212.206 51.7875C213.32 52.2854 214.618 52.5314 216.094 52.5314V52.1617ZM212.358 51.4503C211.307 50.9759 210.435 50.3224 209.737 49.4901L209.454 49.7275C210.189 50.6048 211.107 51.2913 212.205 51.7872L212.358 51.4503ZM209.738 49.491C209.038 48.6443 208.512 47.6609 208.161 46.5386L207.808 46.649C208.173 47.814 208.721 48.8405 209.453 49.7266L209.738 49.491ZM208.161 46.5391C207.809 45.4031 207.632 44.1857 207.632 42.8857H207.262C207.262 44.2195 207.444 45.4741 207.808 46.6485L208.161 46.5391ZM207.632 42.8857V42.3832H207.262V42.8857H207.632ZM207.632 42.3832C207.632 41.0715 207.809 39.8542 208.161 38.7303L207.808 38.6198C207.444 39.7832 207.262 41.038 207.262 42.3832H207.632ZM208.161 38.7298C208.512 37.5961 209.038 36.6133 209.737 35.7788L209.454 35.5414C208.721 36.4165 208.172 37.4437 207.808 38.6204L208.161 38.7298ZM209.738 35.7778C210.436 34.9343 211.308 34.2753 212.358 33.8012L212.205 33.4643C211.107 33.9605 210.188 34.6531 209.453 35.5423L209.738 35.7778ZM212.358 33.8012C213.403 33.329 214.635 33.0898 216.059 33.0898V32.7202C214.595 32.7202 213.308 32.9662 212.205 33.4643L212.358 33.8012ZM216.059 33.0898C217.572 33.0898 218.888 33.3797 220.012 33.9534L220.18 33.624C218.995 33.0194 217.619 32.7202 216.059 32.7202V33.0898ZM220.013 33.9537C221.149 34.5274 222.035 35.3468 222.676 36.4136L222.993 36.2234C222.316 35.0954 221.377 34.2282 220.18 33.6237L220.013 33.9537ZM222.677 36.4156C223.326 37.4682 223.66 38.7219 223.672 40.184L224.041 40.1811C224.029 38.6629 223.682 37.3406 222.991 36.2215L222.677 36.4156ZM223.856 39.9978H219.161V40.3674H223.856V39.9978ZM219.345 40.1792C219.333 39.5306 219.195 38.9371 218.927 38.4018L218.597 38.5671C218.837 39.0484 218.965 39.587 218.976 40.186L219.345 40.1792ZM218.929 38.4049C218.671 37.8654 218.29 37.4345 217.787 37.1155L217.589 37.4276C218.033 37.7093 218.368 38.087 218.595 38.5641L218.929 38.4049ZM217.791 37.1184C217.292 36.7816 216.682 36.6189 215.972 36.6189V36.9885C216.625 36.9885 217.159 37.1377 217.584 37.4247L217.791 37.1184ZM215.972 36.6189C215.219 36.6189 214.585 36.7804 214.084 37.1184L214.291 37.4247C214.714 37.1389 215.27 36.9885 215.972 36.9885V36.6189ZM214.087 37.1166C213.594 37.4367 213.214 37.8795 212.947 38.4394L213.28 38.5989C213.521 38.096 213.857 37.707 214.288 37.4265L214.087 37.1166ZM212.947 38.438C212.684 38.977 212.5 39.5903 212.393 40.2755L212.759 40.3322C212.86 39.6775 213.035 39.1009 213.279 38.6003L212.947 38.438ZM212.393 40.2782C212.299 40.9459 212.253 41.6476 212.253 42.3832H212.622C212.622 41.6632 212.668 40.9787 212.759 40.3296L212.393 40.2782ZM212.253 42.3832V42.8857H212.622V42.3832H212.253ZM212.253 42.8857C212.253 43.6213 212.299 44.3286 212.393 45.0076L212.759 44.9571C212.668 44.296 212.622 43.6056 212.622 42.8857H212.253ZM212.393 45.0076C212.488 45.6938 212.666 46.3081 212.93 46.8482L213.262 46.6859C213.018 46.1864 212.849 45.6108 212.759 44.9571L212.393 45.0076ZM212.931 46.8512C213.211 47.398 213.596 47.8333 214.087 48.1523L214.288 47.8424C213.855 47.5607 213.512 47.1758 213.261 46.6829L212.931 46.8512ZM214.087 48.1523C214.588 48.4777 215.226 48.6327 215.99 48.6327V48.263C215.274 48.263 214.712 48.1176 214.288 47.8424L214.087 48.1523ZM231.74 25.3675H231.925V25.1827H231.74V25.3675ZM231.74 52V52.1848H231.925V52H231.74ZM226.75 52H226.565V52.1848H226.75V52ZM226.75 25.3675V25.1827H226.565V25.3675H226.75ZM243.558 33.2515L243.697 33.3734L243.966 33.0667H243.558V33.2515ZM235.414 42.5391L235.546 42.6693L235.553 42.661L235.414 42.5391ZM231.047 46.9577L230.882 47.041L230.998 47.2704L231.179 47.0876L231.047 46.9577ZM229.228 43.3535L229.083 43.2392L229.01 43.3317L229.063 43.4368L229.228 43.3535ZM232.693 38.9523L232.553 38.8322L232.548 38.838L232.693 38.9523ZM237.562 33.2515V33.0667H237.477L237.422 33.1315L237.562 33.2515ZM238.377 52L238.221 52.0996L238.276 52.1848H238.377V52ZM232.832 43.3362L232.71 43.1971L232.591 43.3018L232.676 43.4358L232.832 43.3362ZM236.28 40.3212L236.434 40.2181L236.317 40.0439L236.159 40.1821L236.28 40.3212ZM244.13 52V52.1848H244.477L244.283 51.8969L244.13 52ZM231.556 25.3675V52H231.925V25.3675H231.556ZM231.74 51.8152H226.75V52.1848H231.74V51.8152ZM226.935 52V25.3675H226.565V52H226.935ZM226.75 25.5523H231.74V25.1827H226.75V25.5523ZM243.419 33.1297L235.275 42.4173L235.553 42.661L243.697 33.3734L243.419 33.1297ZM235.282 42.4092L230.916 46.8278L231.179 47.0876L235.545 42.6691L235.282 42.4092ZM231.212 46.8744L229.393 43.2702L229.063 43.4368L230.882 47.041L231.212 46.8744ZM229.373 43.4679L232.839 39.0667L232.548 38.838L229.083 43.2392L229.373 43.4679ZM232.834 39.0724L237.703 33.3716L237.422 33.1315L232.553 38.8323L232.834 39.0724ZM237.562 33.4364H243.558V33.0667H237.562V33.4364ZM238.533 51.9004L232.988 43.2366L232.676 43.4358L238.221 52.0996L238.533 51.9004ZM232.954 43.4753L236.402 40.4603L236.159 40.1821L232.71 43.1971L232.954 43.4753ZM236.127 40.4243L243.976 52.1031L244.283 51.8969L236.434 40.2181L236.127 40.4243ZM244.13 51.8152H238.377V52.1848H244.13V51.8152Z" fill="black"/>
</g>
<g filter="url(#filter1_i_49_12)">
<g clip-path="url(#clip0_49_12)">
<path fill-rule="evenodd" clip-rule="evenodd" d="M45.9611 44.5488C43.4747 44.5488 41.4682 46.5684 41.4682 49.0417C41.4682 51.528 43.4878 53.5345 45.9611 53.5345C48.4474 53.5345 50.4539 51.5149 50.4539 49.0417C50.4539 46.5553 48.4343 44.5488 45.9611 44.5488ZM27.1391 44.9501C24.8709 44.9501 23.0476 46.7909 23.0476 49.0417C23.0476 51.3099 24.8883 53.1332 27.1391 53.1332C29.4073 53.1332 31.2306 51.2925 31.2306 49.0417C31.2306 46.7734 29.3899 44.9501 27.1391 44.9501ZM27.1391 47.467C26.2711 47.467 25.5644 48.1736 25.5644 49.0417C25.5644 49.9097 26.2711 50.6163 27.1391 50.6163C28.0071 50.6163 28.7138 49.9097 28.7138 49.0417C28.7138 48.1736 28.0071 47.467 27.1391 47.467ZM10.6726 44.9501C8.40439 44.9501 6.58108 46.7909 6.58108 49.0417C6.58108 51.3099 8.42184 53.1332 10.6726 53.1332C12.9409 53.1332 14.7642 51.2925 14.7642 49.0417C14.7685 46.7734 12.9278 44.9501 10.6726 44.9501ZM10.6726 47.467C9.80459 47.467 9.09795 48.1736 9.09795 49.0417C9.09795 49.9097 9.80459 50.6163 10.6726 50.6163C11.5407 50.6163 12.2473 49.9097 12.2473 49.0417C12.2473 48.1736 11.545 47.467 10.6726 47.467ZM20.8186 50.215H16.775V48.9021H20.8186V50.215ZM4.71852 50.215H2.61168C1.93557 50.215 1.3249 49.9272 0.884336 49.4691C0.443776 49.0111 0.164609 48.3786 0.164609 47.7156V30.3811C0.164609 29.3168 0.00757771 28.4444 0.87125 27.5807C1.31617 27.1402 1.92249 26.8654 2.59859 26.8654H34.5806C35.2567 26.8654 35.8674 27.1402 36.308 27.5851C36.7485 28.0256 37.0277 28.6363 37.0277 29.3124V32.4792L41.5075 32.5098L43.0865 32.5185C43.4049 32.8631 43.6972 33.2164 43.9633 33.5741C45.1454 35.1618 45.8084 37.0375 45.9349 38.8564L53.0798 41.5914L53.7559 48.793H51.5706C50.5629 40.9284 40.6525 41.8837 40.3472 48.793H37.0277V49.552C37.0277 49.9272 36.7355 50.215 36.3647 50.215H33.4465V48.889H35.6973V29.3124C35.6973 29.0071 35.5752 28.7323 35.3658 28.5229C35.1564 28.3135 34.8816 28.1914 34.5763 28.1914H2.59859C2.29326 28.1914 2.01845 28.3179 1.80908 28.5229C1.35979 28.946 1.49501 29.6701 1.49501 30.2241V47.7156C1.49501 48.0341 1.6346 48.3394 1.83961 48.5575C2.04898 48.7669 2.3107 48.9021 2.61168 48.9021H4.71416V50.215H4.71852ZM41.3592 34.6689L38.8161 34.6297V38.8564H43.623C43.3918 37.3254 42.6808 35.9819 41.3592 34.6689ZM45.9611 47.3143C45.0058 47.3143 44.2337 48.0864 44.2337 49.0417C44.2337 49.9969 45.0058 50.769 45.9611 50.769C46.9163 50.769 47.6884 49.9969 47.6884 49.0417C47.6884 48.0864 46.9163 47.3143 45.9611 47.3143Z" fill="#459938"/>
</g>
<line x1="19.9674" y1="16.2722" x2="14.6074" y2="8.23218" stroke="black" stroke-width="0.693104"/>
<g clip-path="url(#clip1_49_12)">
<path d="M7.97656 18.1114C12.3905 23.9845 22.7657 24.9018 22.7657 24.9018C22.7657 24.9018 25.8043 14.9394 22.0142 8.6457C19.2161 3.99923 15.1682 3.2311 11.4909 4.10713C11.573 4.19189 11.6551 4.2769 11.7388 4.3634C11.9606 4.58545 12.1673 4.83314 12.3893 5.07509C12.6094 5.31933 12.835 5.56732 13.0487 5.83307C13.2658 6.09495 13.4861 6.36153 13.7095 6.63124C13.9213 6.90903 14.1359 7.19039 14.3521 7.47404C14.4593 7.61579 14.5669 7.75834 14.6751 7.90133C14.7775 8.04831 14.88 8.19587 14.9829 8.34365C15.1876 8.63908 15.393 8.93561 15.5983 9.23198C15.7909 9.53654 15.9829 9.84158 16.1746 10.1448C16.27 10.2966 16.3653 10.4478 16.4601 10.5986C16.5539 10.7499 16.6377 10.9074 16.7261 11.0604C17.0747 11.6762 17.4267 12.2748 17.7177 12.8816C17.8688 13.181 18.0174 13.4755 18.1627 13.7638C18.306 14.0524 18.4253 14.3458 18.5524 14.6249C18.7999 15.1869 19.0446 15.7112 19.2245 16.2156C19.2562 16.2987 19.2173 16.392 19.1359 16.428C19.0545 16.4638 18.9594 16.4298 18.9193 16.3504C18.9172 16.3464 18.9152 16.3425 18.9134 16.3388C18.6803 15.8555 18.3819 15.3577 18.0765 14.8244C17.9209 14.5598 17.7712 14.2811 17.5988 14.008C17.4244 13.7362 17.2461 13.4585 17.0649 13.1764C16.7127 12.6037 16.3023 12.0436 15.893 11.4677C15.7896 11.3249 15.6896 11.1779 15.5821 11.0362C15.4727 10.8962 15.3628 10.7556 15.2527 10.6147C15.0319 10.3327 14.8105 10.0502 14.589 9.767C14.3556 9.49348 14.1219 9.22025 13.8895 8.94761C13.7729 8.81145 13.6566 8.67536 13.5403 8.53995C13.4191 8.40905 13.2983 8.27856 13.178 8.14829C12.936 7.88887 12.6959 7.63179 12.4582 7.37727C12.2109 7.13259 11.9662 6.89065 11.7253 6.65291C11.4881 6.41103 11.2407 6.18779 10.9993 5.96783C10.7556 5.75021 10.5272 5.52663 10.2865 5.32815C10.0482 5.12665 9.81658 4.93088 9.59256 4.74156C9.36671 4.55328 9.13854 4.3823 8.92456 4.21234C8.81678 4.12814 8.71146 4.04558 8.60835 3.96484C8.50186 3.88773 8.39793 3.81239 8.29684 3.73854C8.09306 3.5925 7.9036 3.44982 7.71837 3.32294C7.3428 3.07223 7.02683 2.85273 6.72442 2.67509C6.57923 2.58697 6.44945 2.50847 6.33677 2.4399C6.23302 2.38213 6.14484 2.3326 6.07335 2.29271C5.92997 2.2126 5.8537 2.1698 5.8537 2.1698C5.83358 2.1587 5.80932 2.1462 5.78868 2.13604C5.13185 1.81484 4.33871 2.08711 4.01767 2.74431C3.69677 3.40142 3.96928 4.19392 4.62595 4.51531L4.63029 4.51743C4.63029 4.51743 4.70889 4.55593 4.85635 4.62766C4.92985 4.66377 5.0208 4.70804 5.12783 4.7603C5.221 4.81045 5.32784 4.86848 5.44789 4.93314C5.68134 5.05188 5.98725 5.2396 6.33264 5.44324C6.50544 5.54752 6.68518 5.66859 6.87741 5.79045C6.97306 5.85234 7.07139 5.9159 7.17196 5.98049C7.27043 6.0493 7.37139 6.11965 7.47446 6.19168C7.59778 6.27891 7.72642 6.36798 7.85669 6.45888C5.55939 9.5628 4.64806 13.683 7.97656 18.1114Z" fill="#459938"/>
<ellipse cx="12.2155" cy="6.0299" rx="2.68" ry="2.01" fill="#459938"/>
<circle cx="14.0802" cy="10.5078" r="5.1255" fill="#459938"/>
</g>
</g>
<defs>
<filter id="filter0_d_49_12" x="74.6427" y="25.3674" width="170.966" height="36.9714" filterUnits="userSpaceOnUse" color-interpolation-filters="sRGB">
<feFlood flood-opacity="0" result="BackgroundImageFix"/>
<feColorMatrix in="SourceAlpha" type="matrix" values="0 0 0 0 0 0 0 0 0 0 0 0 0 0 0 0 0 0 127 0" result="hardAlpha"/>
<feOffset dy="1.47862"/>
<feGaussianBlur stdDeviation="0.739311"/>
<feComposite in2="hardAlpha" operator="out"/>
<feColorMatrix type="matrix" values="0 0 0 0 0 0 0 0 0 0 0 0 0 0 0 0 0 0 0.25 0"/>
<feBlend mode="normal" in2="BackgroundImageFix" result="effect1_dropShadow_49_12"/>
<feBlend mode="normal" in="SourceGraphic" in2="effect1_dropShadow_49_12" result="shape"/>
</filter>
<filter id="filter1_i_49_12" x="0.155762" y="-0.00012207" width="53.6" height="68.4786" filterUnits="userSpaceOnUse" color-interpolation-filters="sRGB">
<feFlood flood-opacity="0" result="BackgroundImageFix"/>
<feBlend mode="normal" in="SourceGraphic" in2="BackgroundImageFix" result="shape"/>
<feColorMatrix in="SourceAlpha" type="matrix" values="0 0 0 0 0 0 0 0 0 0 0 0 0 0 0 0 0 0 127 0" result="hardAlpha"/>
<feOffset dy="1.47862"/>
<feGaussianBlur stdDeviation="0.739311"/>
<feComposite in2="hardAlpha" operator="arithmetic" k2="-1" k3="1"/>
<feColorMatrix type="matrix" values="0 0 0 0 0 0 0 0 0 0 0 0 0 0 0 0 0 0 0.25 0"/>
<feBlend mode="normal" in2="shape" result="effect1_innerShadow_49_12"/>
</filter>
<clipPath id="clip0_49_12">
<rect width="53.6" height="53.6" fill="white" transform="translate(0.155762 13.3999)"/>
</clipPath>
<clipPath id="clip1_49_12">
<rect width="22.78" height="22.78" fill="white" transform="translate(26.8662 4.34949) rotate(101.008)"/>
</clipPath>
</defs>
</svg>
