<svg width="241" height="472" viewBox="0 0 241 472" fill="none" xmlns="http://www.w3.org/2000/svg">
<circle cx="39.5" cy="39.5" r="39.5" fill="#008000"/>
<circle cx="39.5" cy="170.5" r="39.5" fill="#CCCCCC"/>
<circle cx="39.5" cy="301.5" r="39.5" fill="#CCCCCC"/>
<circle cx="39.5" cy="432.5" r="39.5" fill="#CCCCCC"/>
<path d="M39.2528 27.2727V52H36.2585V30.4119H36.1136L30.0767 34.4205V31.3778L36.2585 27.2727H39.2528Z" fill="white"/>
<path d="M30.5597 183V180.827L38.7216 171.892C39.6795 170.846 40.4683 169.936 41.0881 169.163C41.7079 168.383 42.1667 167.65 42.4645 166.966C42.7704 166.274 42.9233 165.549 42.9233 164.793C42.9233 163.923 42.714 163.171 42.2955 162.535C41.8849 161.899 41.3215 161.408 40.6051 161.062C39.8887 160.716 39.0838 160.543 38.1903 160.543C37.2405 160.543 36.4115 160.74 35.7031 161.134C35.0028 161.521 34.4595 162.064 34.0732 162.764C33.6948 163.464 33.5057 164.286 33.5057 165.227H30.6562C30.6562 163.778 30.9903 162.507 31.6584 161.412C32.3265 160.317 33.236 159.464 34.3871 158.852C35.5462 158.241 36.8461 157.935 38.2869 157.935C39.7358 157.935 41.0197 158.241 42.1385 158.852C43.2573 159.464 44.1347 160.289 44.7706 161.327C45.4065 162.366 45.7244 163.521 45.7244 164.793C45.7244 165.702 45.5594 166.592 45.2294 167.461C44.9074 168.322 44.344 169.284 43.5391 170.347C42.7422 171.401 41.6354 172.689 40.2188 174.21L34.6648 180.151V180.344H46.1591V183H30.5597Z" fill="black"/>
<path d="M38.9148 314.338C37.321 314.338 35.9003 314.064 34.6527 313.517C33.4131 312.97 32.4271 312.209 31.6946 311.235C30.9702 310.253 30.5758 309.114 30.5114 307.818H33.554C33.6184 308.615 33.892 309.303 34.375 309.883C34.858 310.454 35.4898 310.897 36.2706 311.211C37.0514 311.525 37.9167 311.682 38.8665 311.682C39.929 311.682 40.8707 311.497 41.6918 311.126C42.5128 310.756 43.1567 310.241 43.6236 309.581C44.0904 308.921 44.3239 308.156 44.3239 307.287C44.3239 306.377 44.0985 305.576 43.6477 304.884C43.197 304.184 42.5369 303.637 41.6676 303.242C40.7983 302.848 39.7358 302.651 38.4801 302.651H36.5V299.994H38.4801C39.4621 299.994 40.3234 299.817 41.0639 299.463C41.8125 299.109 42.3961 298.61 42.8146 297.966C43.2412 297.322 43.4545 296.565 43.4545 295.696C43.4545 294.859 43.2694 294.13 42.8991 293.511C42.5289 292.891 42.0057 292.408 41.3295 292.062C40.6615 291.716 39.8726 291.543 38.9631 291.543C38.1098 291.543 37.3049 291.7 36.5483 292.013C35.7997 292.319 35.188 292.766 34.7131 293.354C34.2382 293.933 33.9806 294.634 33.9403 295.455H31.0426C31.0909 294.159 31.4813 293.024 32.2138 292.05C32.9463 291.068 33.9041 290.303 35.0874 289.756C36.2786 289.208 37.5866 288.935 39.0114 288.935C40.5407 288.935 41.8527 289.245 42.9474 289.864C44.0421 290.476 44.8833 291.285 45.4709 292.291C46.0585 293.297 46.3523 294.384 46.3523 295.551C46.3523 296.944 45.986 298.131 45.2536 299.113C44.5291 300.095 43.5431 300.775 42.2955 301.153V301.347C43.857 301.604 45.0765 302.268 45.9538 303.339C46.8312 304.401 47.2699 305.717 47.2699 307.287C47.2699 308.631 46.9036 309.839 46.1712 310.909C45.4467 311.972 44.4567 312.809 43.201 313.42C41.9453 314.032 40.5166 314.338 38.9148 314.338Z" fill="black"/>
<path d="M29.9801 439.929V437.466L40.8466 420.273H42.6335V424.088H41.4261L33.2159 437.08V437.273H47.8494V439.929H29.9801ZM41.6193 445V439.18V438.033V420.273H44.4688V445H41.6193Z" fill="black"/>
<line x1="41" y1="71" x2="41" y2="134" stroke="url(#paint0_linear_8_14)" stroke-width="4"/>
<line x1="41" y1="204" x2="41" y2="267" stroke="#CCCCCC" stroke-width="4"/>
<line x1="41" y1="337" x2="41" y2="400" stroke="#CCCCCC" stroke-width="4"/>
<path d="M98.25 34H93.7614V19.4545H98.4489C99.8598 19.4545 101.067 19.7457 102.071 20.3281C103.075 20.9058 103.844 21.7367 104.379 22.821C104.914 23.9006 105.182 25.1932 105.182 26.6989C105.182 28.214 104.912 29.5185 104.372 30.6122C103.832 31.7012 103.046 32.5393 102.014 33.1264C100.982 33.7088 99.7273 34 98.25 34ZM95.5227 32.4375H98.1364C99.339 32.4375 100.336 32.2055 101.126 31.7415C101.917 31.2775 102.507 30.617 102.895 29.7599C103.283 28.9029 103.477 27.8826 103.477 26.6989C103.477 25.5246 103.286 24.5137 102.902 23.6662C102.518 22.8139 101.946 22.1605 101.183 21.706C100.421 21.2467 99.4716 21.017 98.3352 21.017H95.5227V32.4375ZM111.119 34.2557C110.428 34.2557 109.801 34.1255 109.237 33.8651C108.674 33.5999 108.226 33.2188 107.895 32.7216C107.563 32.2197 107.398 31.6136 107.398 30.9034C107.398 30.2784 107.521 29.7718 107.767 29.3835C108.013 28.9905 108.342 28.6828 108.754 28.4602C109.166 28.2377 109.621 28.072 110.118 27.9631C110.62 27.8494 111.124 27.7595 111.631 27.6932C112.294 27.608 112.831 27.544 113.243 27.5014C113.66 27.4541 113.963 27.3759 114.152 27.267C114.346 27.1581 114.443 26.9687 114.443 26.6989V26.642C114.443 25.9413 114.251 25.3968 113.868 25.0085C113.489 24.6203 112.914 24.4261 112.142 24.4261C111.342 24.4261 110.714 24.6013 110.26 24.9517C109.805 25.3021 109.486 25.6761 109.301 26.0739L107.71 25.5057C107.994 24.8428 108.373 24.3267 108.847 23.9574C109.325 23.5833 109.846 23.3229 110.409 23.1761C110.977 23.0246 111.536 22.9489 112.085 22.9489C112.436 22.9489 112.838 22.9915 113.293 23.0767C113.752 23.1572 114.195 23.3253 114.621 23.581C115.052 23.8366 115.409 24.2225 115.693 24.7386C115.977 25.2547 116.119 25.946 116.119 26.8125V34H114.443V32.5227H114.358C114.244 32.7595 114.055 33.0128 113.79 33.2827C113.525 33.5526 113.172 33.7822 112.732 33.9716C112.291 34.161 111.754 34.2557 111.119 34.2557ZM111.375 32.75C112.038 32.75 112.597 32.6198 113.051 32.3594C113.51 32.099 113.856 31.7628 114.088 31.3509C114.325 30.9389 114.443 30.5057 114.443 30.0511V28.517C114.372 28.6023 114.216 28.6804 113.974 28.7514C113.738 28.8177 113.463 28.8769 113.151 28.929C112.843 28.9763 112.542 29.0189 112.249 29.0568C111.96 29.09 111.725 29.1184 111.545 29.142C111.11 29.1989 110.703 29.2912 110.324 29.419C109.95 29.5421 109.647 29.7292 109.415 29.9801C109.188 30.2263 109.074 30.5625 109.074 30.9886C109.074 31.571 109.289 32.0114 109.72 32.3097C110.156 32.6032 110.707 32.75 111.375 32.75ZM123.298 34.2273C122.389 34.2273 121.586 33.9976 120.89 33.5384C120.194 33.0743 119.65 32.4209 119.257 31.5781C118.864 30.7306 118.667 29.7292 118.667 28.5739C118.667 27.428 118.864 26.4337 119.257 25.5909C119.65 24.7481 120.197 24.0971 120.897 23.6378C121.598 23.1785 122.408 22.9489 123.326 22.9489C124.037 22.9489 124.598 23.0672 125.01 23.304C125.426 23.536 125.743 23.8011 125.961 24.0994C126.184 24.393 126.357 24.6345 126.48 24.8239H126.622V19.4545H128.298V34H126.679V32.3239H126.48C126.357 32.5227 126.181 32.7737 125.954 33.0767C125.727 33.375 125.403 33.6425 124.981 33.8793C124.56 34.1113 123.999 34.2273 123.298 34.2273ZM123.525 32.7216C124.198 32.7216 124.766 32.5464 125.23 32.196C125.694 31.8409 126.047 31.3509 126.288 30.7259C126.529 30.0961 126.65 29.3693 126.65 28.5455C126.65 27.7311 126.532 27.0185 126.295 26.4077C126.058 25.7921 125.708 25.3139 125.244 24.973C124.78 24.6274 124.207 24.4545 123.525 24.4545C122.815 24.4545 122.223 24.6368 121.75 25.0014C121.281 25.3613 120.928 25.8513 120.691 26.4716C120.459 27.0871 120.343 27.7784 120.343 28.5455C120.343 29.322 120.462 30.0275 120.699 30.6619C120.94 31.2917 121.295 31.7936 121.764 32.1676C122.237 32.5369 122.824 32.7216 123.525 32.7216ZM136.032 34.2273C135.047 34.2273 134.183 33.9929 133.44 33.5241C132.701 33.0554 132.124 32.3996 131.707 31.5568C131.295 30.714 131.089 29.7292 131.089 28.6023C131.089 27.4659 131.295 26.474 131.707 25.6264C132.124 24.7789 132.701 24.1207 133.44 23.652C134.183 23.1832 135.047 22.9489 136.032 22.9489C137.017 22.9489 137.879 23.1832 138.618 23.652C139.361 24.1207 139.939 24.7789 140.35 25.6264C140.767 26.474 140.975 27.4659 140.975 28.6023C140.975 29.7292 140.767 30.714 140.35 31.5568C139.939 32.3996 139.361 33.0554 138.618 33.5241C137.879 33.9929 137.017 34.2273 136.032 34.2273ZM136.032 32.7216C136.78 32.7216 137.396 32.5298 137.879 32.1463C138.362 31.7628 138.719 31.2585 138.951 30.6335C139.183 30.0085 139.299 29.3314 139.299 28.6023C139.299 27.8731 139.183 27.1937 138.951 26.5639C138.719 25.9342 138.362 25.4252 137.879 25.0369C137.396 24.6487 136.78 24.4545 136.032 24.4545C135.284 24.4545 134.669 24.6487 134.186 25.0369C133.703 25.4252 133.345 25.9342 133.113 26.5639C132.881 27.1937 132.765 27.8731 132.765 28.6023C132.765 29.3314 132.881 30.0085 133.113 30.6335C133.345 31.2585 133.703 31.7628 134.186 32.1463C134.669 32.5298 135.284 32.7216 136.032 32.7216ZM151.261 25.5341L149.756 25.9602C149.661 25.7093 149.521 25.4654 149.337 25.2287C149.157 24.9872 148.911 24.7884 148.598 24.6321C148.286 24.4759 147.885 24.3977 147.398 24.3977C146.73 24.3977 146.174 24.5516 145.729 24.8594C145.288 25.1624 145.068 25.5483 145.068 26.017C145.068 26.4337 145.22 26.7628 145.523 27.0043C145.826 27.2457 146.299 27.447 146.943 27.608L148.562 28.0057C149.538 28.2424 150.265 28.6046 150.743 29.0923C151.221 29.5753 151.46 30.1979 151.46 30.9602C151.46 31.5852 151.28 32.1439 150.92 32.6364C150.565 33.1288 150.068 33.517 149.429 33.8011C148.79 34.0852 148.046 34.2273 147.199 34.2273C146.086 34.2273 145.165 33.9858 144.436 33.5028C143.707 33.0199 143.245 32.3144 143.051 31.3864L144.642 30.9886C144.794 31.5758 145.08 32.0161 145.501 32.3097C145.928 32.6032 146.484 32.75 147.17 32.75C147.952 32.75 148.572 32.5843 149.031 32.2528C149.495 31.9167 149.727 31.5142 149.727 31.0455C149.727 30.6667 149.595 30.3494 149.33 30.0938C149.064 29.8333 148.657 29.6392 148.108 29.5114L146.29 29.0852C145.291 28.8485 144.557 28.4815 144.088 27.9844C143.624 27.4825 143.392 26.8551 143.392 26.1023C143.392 25.4867 143.565 24.9422 143.911 24.4688C144.261 23.9953 144.737 23.6236 145.338 23.3537C145.944 23.0838 146.631 22.9489 147.398 22.9489C148.477 22.9489 149.325 23.1856 149.94 23.6591C150.561 24.1326 151.001 24.7576 151.261 25.5341ZM93.5341 62.0909V47.0909H95.1534V48.8239H95.3523C95.4754 48.6345 95.6458 48.393 95.8636 48.0994C96.0862 47.8011 96.4034 47.536 96.8153 47.304C97.232 47.0672 97.7955 46.9489 98.5057 46.9489C99.4242 46.9489 100.234 47.1785 100.935 47.6378C101.635 48.0971 102.182 48.7481 102.575 49.5909C102.968 50.4337 103.165 51.428 103.165 52.5739C103.165 53.7292 102.968 54.7306 102.575 55.5781C102.182 56.4209 101.638 57.0743 100.942 57.5384C100.246 57.9976 99.4432 58.2273 98.5341 58.2273C97.8333 58.2273 97.2723 58.1113 96.8509 57.8793C96.4295 57.6425 96.1051 57.375 95.8778 57.0767C95.6506 56.7737 95.4754 56.5227 95.3523 56.3239H95.2102V62.0909H93.5341ZM95.1818 52.5455C95.1818 53.3693 95.3026 54.0961 95.544 54.7259C95.7855 55.3509 96.1383 55.8409 96.6023 56.196C97.0663 56.5464 97.6345 56.7216 98.3068 56.7216C99.0076 56.7216 99.5923 56.5369 100.061 56.1676C100.535 55.7936 100.89 55.2917 101.126 54.6619C101.368 54.0275 101.489 53.322 101.489 52.5455C101.489 51.7784 101.37 51.0871 101.134 50.4716C100.902 49.8513 100.549 49.3613 100.075 49.0014C99.6065 48.6368 99.017 48.4545 98.3068 48.4545C97.625 48.4545 97.0521 48.6274 96.5881 48.973C96.1241 49.3139 95.7737 49.7921 95.5369 50.4077C95.3002 51.0185 95.1818 51.7311 95.1818 52.5455ZM110.295 58.2273C109.244 58.2273 108.338 57.9953 107.575 57.5312C106.818 57.0625 106.233 56.4091 105.821 55.571C105.414 54.7282 105.21 53.7481 105.21 52.6307C105.21 51.5133 105.414 50.5284 105.821 49.6761C106.233 48.8191 106.806 48.1515 107.54 47.6733C108.278 47.1903 109.14 46.9489 110.125 46.9489C110.693 46.9489 111.254 47.0436 111.808 47.233C112.362 47.4223 112.866 47.7301 113.321 48.1562C113.776 48.5777 114.138 49.1364 114.408 49.8324C114.678 50.5284 114.812 51.3854 114.812 52.4034V53.1136H106.403V51.6648H113.108C113.108 51.0492 112.985 50.5 112.739 50.017C112.497 49.5341 112.152 49.1529 111.702 48.8736C111.257 48.5942 110.731 48.4545 110.125 48.4545C109.457 48.4545 108.88 48.6203 108.392 48.9517C107.909 49.2784 107.537 49.7045 107.277 50.2301C107.017 50.7557 106.886 51.3191 106.886 51.9205V52.8864C106.886 53.7102 107.028 54.4086 107.312 54.9815C107.601 55.5497 108.001 55.983 108.513 56.2812C109.024 56.5748 109.618 56.7216 110.295 56.7216C110.736 56.7216 111.134 56.66 111.489 56.5369C111.848 56.4091 112.159 56.2197 112.419 55.9688C112.679 55.7131 112.881 55.3958 113.023 55.017L114.642 55.4716C114.472 56.0208 114.185 56.5038 113.783 56.9205C113.38 57.3324 112.883 57.6544 112.291 57.8864C111.699 58.1136 111.034 58.2273 110.295 58.2273ZM125.089 49.5341L123.584 49.9602C123.489 49.7093 123.349 49.4654 123.165 49.2287C122.985 48.9872 122.739 48.7884 122.426 48.6321C122.114 48.4759 121.714 48.3977 121.226 48.3977C120.558 48.3977 120.002 48.5516 119.557 48.8594C119.116 49.1624 118.896 49.5483 118.896 50.017C118.896 50.4337 119.048 50.7628 119.351 51.0043C119.654 51.2457 120.127 51.447 120.771 51.608L122.391 52.0057C123.366 52.2424 124.093 52.6046 124.571 53.0923C125.049 53.5753 125.288 54.1979 125.288 54.9602C125.288 55.5852 125.108 56.1439 124.749 56.6364C124.393 57.1288 123.896 57.517 123.257 57.8011C122.618 58.0852 121.875 58.2273 121.027 58.2273C119.914 58.2273 118.993 57.9858 118.264 57.5028C117.535 57.0199 117.073 56.3144 116.879 55.3864L118.47 54.9886C118.622 55.5758 118.908 56.0161 119.33 56.3097C119.756 56.6032 120.312 56.75 120.999 56.75C121.78 56.75 122.4 56.5843 122.859 56.2528C123.323 55.9167 123.555 55.5142 123.555 55.0455C123.555 54.6667 123.423 54.3494 123.158 54.0938C122.893 53.8333 122.485 53.6392 121.936 53.5114L120.118 53.0852C119.119 52.8485 118.385 52.4815 117.916 51.9844C117.452 51.4825 117.22 50.8551 117.22 50.1023C117.22 49.4867 117.393 48.9422 117.739 48.4688C118.089 47.9953 118.565 47.6236 119.166 47.3537C119.772 47.0838 120.459 46.9489 121.226 46.9489C122.305 46.9489 123.153 47.1856 123.768 47.6591C124.389 48.1326 124.829 48.7576 125.089 49.5341ZM135.539 49.5341L134.033 49.9602C133.938 49.7093 133.799 49.4654 133.614 49.2287C133.434 48.9872 133.188 48.7884 132.875 48.6321C132.563 48.4759 132.163 48.3977 131.675 48.3977C131.007 48.3977 130.451 48.5516 130.006 48.8594C129.566 49.1624 129.346 49.5483 129.346 50.017C129.346 50.4337 129.497 50.7628 129.8 51.0043C130.103 51.2457 130.577 51.447 131.221 51.608L132.84 52.0057C133.815 52.2424 134.542 52.6046 135.02 53.0923C135.498 53.5753 135.738 54.1979 135.738 54.9602C135.738 55.5852 135.558 56.1439 135.198 56.6364C134.843 57.1288 134.346 57.517 133.706 57.8011C133.067 58.0852 132.324 58.2273 131.476 58.2273C130.364 58.2273 129.443 57.9858 128.713 57.5028C127.984 57.0199 127.523 56.3144 127.328 55.3864L128.919 54.9886C129.071 55.5758 129.357 56.0161 129.779 56.3097C130.205 56.6032 130.761 56.75 131.448 56.75C132.229 56.75 132.849 56.5843 133.309 56.2528C133.773 55.9167 134.005 55.5142 134.005 55.0455C134.005 54.6667 133.872 54.3494 133.607 54.0938C133.342 53.8333 132.935 53.6392 132.385 53.5114L130.567 53.0852C129.568 52.8485 128.834 52.4815 128.365 51.9844C127.901 51.4825 127.669 50.8551 127.669 50.1023C127.669 49.4867 127.842 48.9422 128.188 48.4688C128.538 47.9953 129.014 47.6236 129.615 47.3537C130.221 47.0838 130.908 46.9489 131.675 46.9489C132.755 46.9489 133.602 47.1856 134.218 47.6591C134.838 48.1326 135.278 48.7576 135.539 49.5341ZM142.692 58.2273C141.708 58.2273 140.844 57.9929 140.1 57.5241C139.362 57.0554 138.784 56.3996 138.367 55.5568C137.955 54.714 137.749 53.7292 137.749 52.6023C137.749 51.4659 137.955 50.474 138.367 49.6264C138.784 48.7789 139.362 48.1207 140.1 47.652C140.844 47.1832 141.708 46.9489 142.692 46.9489C143.677 46.9489 144.539 47.1832 145.278 47.652C146.021 48.1207 146.599 48.7789 147.011 49.6264C147.427 50.474 147.636 51.4659 147.636 52.6023C147.636 53.7292 147.427 54.714 147.011 55.5568C146.599 56.3996 146.021 57.0554 145.278 57.5241C144.539 57.9929 143.677 58.2273 142.692 58.2273ZM142.692 56.7216C143.441 56.7216 144.056 56.5298 144.539 56.1463C145.022 55.7628 145.379 55.2585 145.612 54.6335C145.844 54.0085 145.96 53.3314 145.96 52.6023C145.96 51.8731 145.844 51.1937 145.612 50.5639C145.379 49.9342 145.022 49.4252 144.539 49.0369C144.056 48.6487 143.441 48.4545 142.692 48.4545C141.944 48.4545 141.329 48.6487 140.846 49.0369C140.363 49.4252 140.005 49.9342 139.773 50.5639C139.541 51.1937 139.425 51.8731 139.425 52.6023C139.425 53.3314 139.541 54.0085 139.773 54.6335C140.005 55.2585 140.363 55.7628 140.846 56.1463C141.329 56.5298 141.944 56.7216 142.692 56.7216ZM153.404 58.2557C152.713 58.2557 152.086 58.1255 151.522 57.8651C150.959 57.5999 150.511 57.2188 150.18 56.7216C149.849 56.2197 149.683 55.6136 149.683 54.9034C149.683 54.2784 149.806 53.7718 150.052 53.3835C150.298 52.9905 150.627 52.6828 151.039 52.4602C151.451 52.2377 151.906 52.072 152.403 51.9631C152.905 51.8494 153.409 51.7595 153.916 51.6932C154.579 51.608 155.116 51.544 155.528 51.5014C155.945 51.4541 156.248 51.3759 156.437 51.267C156.631 51.1581 156.728 50.9687 156.728 50.6989V50.642C156.728 49.9413 156.537 49.3968 156.153 49.0085C155.774 48.6203 155.199 48.4261 154.427 48.4261C153.627 48.4261 153 48.6013 152.545 48.9517C152.091 49.3021 151.771 49.6761 151.586 50.0739L149.995 49.5057C150.279 48.8428 150.658 48.3267 151.132 47.9574C151.61 47.5833 152.131 47.3229 152.694 47.1761C153.262 47.0246 153.821 46.9489 154.37 46.9489C154.721 46.9489 155.123 46.9915 155.578 47.0767C156.037 47.1572 156.48 47.3253 156.906 47.581C157.337 47.8366 157.694 48.2225 157.978 48.7386C158.262 49.2547 158.404 49.946 158.404 50.8125V58H156.728V56.5227H156.643C156.529 56.7595 156.34 57.0128 156.075 57.2827C155.81 57.5526 155.457 57.7822 155.017 57.9716C154.576 58.161 154.039 58.2557 153.404 58.2557ZM153.66 56.75C154.323 56.75 154.882 56.6198 155.336 56.3594C155.796 56.099 156.141 55.7628 156.373 55.3509C156.61 54.9389 156.728 54.5057 156.728 54.0511V52.517C156.657 52.6023 156.501 52.6804 156.26 52.7514C156.023 52.8177 155.748 52.8769 155.436 52.929C155.128 52.9763 154.827 53.0189 154.534 53.0568C154.245 53.09 154.011 53.1184 153.831 53.142C153.395 53.1989 152.988 53.2912 152.609 53.419C152.235 53.5421 151.932 53.7292 151.7 53.9801C151.473 54.2263 151.359 54.5625 151.359 54.9886C151.359 55.571 151.574 56.0114 152.005 56.3097C152.441 56.6032 152.993 56.75 153.66 56.75ZM161.464 58V47.0909H163.14V58H161.464ZM162.316 45.2727C161.989 45.2727 161.708 45.1615 161.471 44.9389C161.239 44.7164 161.123 44.4489 161.123 44.1364C161.123 43.8239 161.239 43.5563 161.471 43.3338C161.708 43.1113 161.989 43 162.316 43C162.643 43 162.922 43.1113 163.154 43.3338C163.391 43.5563 163.509 43.8239 163.509 44.1364C163.509 44.4489 163.391 44.7164 163.154 44.9389C162.922 45.1615 162.643 45.2727 162.316 45.2727ZM173.937 49.5341L172.431 49.9602C172.337 49.7093 172.197 49.4654 172.012 49.2287C171.833 48.9872 171.586 48.7884 171.274 48.6321C170.961 48.4759 170.561 48.3977 170.074 48.3977C169.406 48.3977 168.85 48.5516 168.404 48.8594C167.964 49.1624 167.744 49.5483 167.744 50.017C167.744 50.4337 167.895 50.7628 168.199 51.0043C168.502 51.2457 168.975 51.447 169.619 51.608L171.238 52.0057C172.214 52.2424 172.94 52.6046 173.419 53.0923C173.897 53.5753 174.136 54.1979 174.136 54.9602C174.136 55.5852 173.956 56.1439 173.596 56.6364C173.241 57.1288 172.744 57.517 172.105 57.8011C171.466 58.0852 170.722 58.2273 169.875 58.2273C168.762 58.2273 167.841 57.9858 167.112 57.5028C166.383 57.0199 165.921 56.3144 165.727 55.3864L167.318 54.9886C167.469 55.5758 167.756 56.0161 168.177 56.3097C168.603 56.6032 169.16 56.75 169.846 56.75C170.627 56.75 171.248 56.5843 171.707 56.2528C172.171 55.9167 172.403 55.5142 172.403 55.0455C172.403 54.6667 172.27 54.3494 172.005 54.0938C171.74 53.8333 171.333 53.6392 170.784 53.5114L168.966 53.0852C167.967 52.8485 167.233 52.4815 166.764 51.9844C166.3 51.4825 166.068 50.8551 166.068 50.1023C166.068 49.4867 166.241 48.9422 166.586 48.4688C166.937 47.9953 167.413 47.6236 168.014 47.3537C168.62 47.0838 169.306 46.9489 170.074 46.9489C171.153 46.9489 172.001 47.1856 172.616 47.6591C173.236 48.1326 173.677 48.7576 173.937 49.5341Z" fill="#008000"/>
<path d="M93.7614 165V150.455H102.483V152.017H95.5227V156.932H101.83V158.494H95.5227V165H93.7614ZM108.903 165.227C107.919 165.227 107.054 164.993 106.311 164.524C105.572 164.055 104.995 163.4 104.578 162.557C104.166 161.714 103.96 160.729 103.96 159.602C103.96 158.466 104.166 157.474 104.578 156.626C104.995 155.779 105.572 155.121 106.311 154.652C107.054 154.183 107.919 153.949 108.903 153.949C109.888 153.949 110.75 154.183 111.489 154.652C112.232 155.121 112.81 155.779 113.222 156.626C113.638 157.474 113.847 158.466 113.847 159.602C113.847 160.729 113.638 161.714 113.222 162.557C112.81 163.4 112.232 164.055 111.489 164.524C110.75 164.993 109.888 165.227 108.903 165.227ZM108.903 163.722C109.652 163.722 110.267 163.53 110.75 163.146C111.233 162.763 111.59 162.259 111.822 161.634C112.054 161.009 112.17 160.331 112.17 159.602C112.17 158.873 112.054 158.194 111.822 157.564C111.59 156.934 111.233 156.425 110.75 156.037C110.267 155.649 109.652 155.455 108.903 155.455C108.155 155.455 107.54 155.649 107.057 156.037C106.574 156.425 106.216 156.934 105.984 157.564C105.752 158.194 105.636 158.873 105.636 159.602C105.636 160.331 105.752 161.009 105.984 161.634C106.216 162.259 106.574 162.763 107.057 163.146C107.54 163.53 108.155 163.722 108.903 163.722ZM121.15 154.091V155.511H115.496V154.091H121.15ZM117.144 151.477H118.82V161.875C118.82 162.348 118.889 162.704 119.026 162.94C119.168 163.172 119.348 163.329 119.566 163.409C119.788 163.485 120.023 163.523 120.269 163.523C120.453 163.523 120.605 163.513 120.723 163.494C120.842 163.471 120.936 163.452 121.007 163.438L121.348 164.943C121.235 164.986 121.076 165.028 120.873 165.071C120.669 165.118 120.411 165.142 120.098 165.142C119.625 165.142 119.161 165.04 118.706 164.837C118.257 164.633 117.882 164.323 117.584 163.906C117.291 163.49 117.144 162.964 117.144 162.33V151.477ZM127.985 165.227C127.001 165.227 126.136 164.993 125.393 164.524C124.654 164.055 124.077 163.4 123.66 162.557C123.248 161.714 123.042 160.729 123.042 159.602C123.042 158.466 123.248 157.474 123.66 156.626C124.077 155.779 124.654 155.121 125.393 154.652C126.136 154.183 127.001 153.949 127.985 153.949C128.97 153.949 129.832 154.183 130.571 154.652C131.314 155.121 131.892 155.779 132.304 156.626C132.72 157.474 132.929 158.466 132.929 159.602C132.929 160.729 132.72 161.714 132.304 162.557C131.892 163.4 131.314 164.055 130.571 164.524C129.832 164.993 128.97 165.227 127.985 165.227ZM127.985 163.722C128.734 163.722 129.349 163.53 129.832 163.146C130.315 162.763 130.672 162.259 130.904 161.634C131.136 161.009 131.252 160.331 131.252 159.602C131.252 158.873 131.136 158.194 130.904 157.564C130.672 156.934 130.315 156.425 129.832 156.037C129.349 155.649 128.734 155.455 127.985 155.455C127.237 155.455 126.622 155.649 126.139 156.037C125.656 156.425 125.298 156.934 125.066 157.564C124.834 158.194 124.718 158.873 124.718 159.602C124.718 160.331 124.834 161.009 125.066 161.634C125.298 162.259 125.656 162.763 126.139 163.146C126.622 163.53 127.237 163.722 127.985 163.722ZM145.232 165.227C144.322 165.227 143.52 164.998 142.824 164.538C142.128 164.074 141.583 163.421 141.19 162.578C140.797 161.731 140.601 160.729 140.601 159.574C140.601 158.428 140.797 157.434 141.19 156.591C141.583 155.748 142.13 155.097 142.831 154.638C143.532 154.179 144.341 153.949 145.26 153.949C145.97 153.949 146.531 154.067 146.943 154.304C147.36 154.536 147.677 154.801 147.895 155.099C148.117 155.393 148.29 155.634 148.413 155.824H148.555V150.455H150.232V165H148.612V163.324H148.413C148.29 163.523 148.115 163.774 147.888 164.077C147.661 164.375 147.336 164.643 146.915 164.879C146.493 165.111 145.932 165.227 145.232 165.227ZM145.459 163.722C146.131 163.722 146.699 163.546 147.163 163.196C147.627 162.841 147.98 162.351 148.222 161.726C148.463 161.096 148.584 160.369 148.584 159.545C148.584 158.731 148.465 158.018 148.229 157.408C147.992 156.792 147.642 156.314 147.178 155.973C146.714 155.627 146.141 155.455 145.459 155.455C144.749 155.455 144.157 155.637 143.683 156.001C143.214 156.361 142.862 156.851 142.625 157.472C142.393 158.087 142.277 158.778 142.277 159.545C142.277 160.322 142.395 161.027 142.632 161.662C142.874 162.292 143.229 162.794 143.697 163.168C144.171 163.537 144.758 163.722 145.459 163.722ZM158.108 165.227C157.057 165.227 156.15 164.995 155.388 164.531C154.63 164.062 154.045 163.409 153.634 162.571C153.226 161.728 153.023 160.748 153.023 159.631C153.023 158.513 153.226 157.528 153.634 156.676C154.045 155.819 154.618 155.152 155.352 154.673C156.091 154.19 156.953 153.949 157.938 153.949C158.506 153.949 159.067 154.044 159.621 154.233C160.175 154.422 160.679 154.73 161.134 155.156C161.588 155.578 161.95 156.136 162.22 156.832C162.49 157.528 162.625 158.385 162.625 159.403V160.114H154.216V158.665H160.92C160.92 158.049 160.797 157.5 160.551 157.017C160.31 156.534 159.964 156.153 159.514 155.874C159.069 155.594 158.544 155.455 157.938 155.455C157.27 155.455 156.692 155.62 156.205 155.952C155.722 156.278 155.35 156.705 155.089 157.23C154.829 157.756 154.699 158.319 154.699 158.92V159.886C154.699 160.71 154.841 161.409 155.125 161.982C155.414 162.55 155.814 162.983 156.325 163.281C156.837 163.575 157.431 163.722 158.108 163.722C158.548 163.722 158.946 163.66 159.301 163.537C159.661 163.409 159.971 163.22 160.232 162.969C160.492 162.713 160.693 162.396 160.835 162.017L162.455 162.472C162.284 163.021 161.998 163.504 161.595 163.92C161.193 164.332 160.696 164.654 160.104 164.886C159.512 165.114 158.847 165.227 158.108 165.227ZM93.5341 193.091V178.091H95.1534V179.824H95.3523C95.4754 179.634 95.6458 179.393 95.8636 179.099C96.0862 178.801 96.4034 178.536 96.8153 178.304C97.232 178.067 97.7955 177.949 98.5057 177.949C99.4242 177.949 100.234 178.179 100.935 178.638C101.635 179.097 102.182 179.748 102.575 180.591C102.968 181.434 103.165 182.428 103.165 183.574C103.165 184.729 102.968 185.731 102.575 186.578C102.182 187.421 101.638 188.074 100.942 188.538C100.246 188.998 99.4432 189.227 98.5341 189.227C97.8333 189.227 97.2723 189.111 96.8509 188.879C96.4295 188.643 96.1051 188.375 95.8778 188.077C95.6506 187.774 95.4754 187.523 95.3523 187.324H95.2102V193.091H93.5341ZM95.1818 183.545C95.1818 184.369 95.3026 185.096 95.544 185.726C95.7855 186.351 96.1383 186.841 96.6023 187.196C97.0663 187.546 97.6345 187.722 98.3068 187.722C99.0076 187.722 99.5923 187.537 100.061 187.168C100.535 186.794 100.89 186.292 101.126 185.662C101.368 185.027 101.489 184.322 101.489 183.545C101.489 182.778 101.37 182.087 101.134 181.472C100.902 180.851 100.549 180.361 100.075 180.001C99.6065 179.637 99.017 179.455 98.3068 179.455C97.625 179.455 97.0521 179.627 96.5881 179.973C96.1241 180.314 95.7737 180.792 95.5369 181.408C95.3002 182.018 95.1818 182.731 95.1818 183.545ZM110.295 189.227C109.244 189.227 108.338 188.995 107.575 188.531C106.818 188.062 106.233 187.409 105.821 186.571C105.414 185.728 105.21 184.748 105.21 183.631C105.21 182.513 105.414 181.528 105.821 180.676C106.233 179.819 106.806 179.152 107.54 178.673C108.278 178.19 109.14 177.949 110.125 177.949C110.693 177.949 111.254 178.044 111.808 178.233C112.362 178.422 112.866 178.73 113.321 179.156C113.776 179.578 114.138 180.136 114.408 180.832C114.678 181.528 114.812 182.385 114.812 183.403V184.114H106.403V182.665H113.108C113.108 182.049 112.985 181.5 112.739 181.017C112.497 180.534 112.152 180.153 111.702 179.874C111.257 179.594 110.731 179.455 110.125 179.455C109.457 179.455 108.88 179.62 108.392 179.952C107.909 180.278 107.537 180.705 107.277 181.23C107.017 181.756 106.886 182.319 106.886 182.92V183.886C106.886 184.71 107.028 185.409 107.312 185.982C107.601 186.55 108.001 186.983 108.513 187.281C109.024 187.575 109.618 187.722 110.295 187.722C110.736 187.722 111.134 187.66 111.489 187.537C111.848 187.409 112.159 187.22 112.419 186.969C112.679 186.713 112.881 186.396 113.023 186.017L114.642 186.472C114.472 187.021 114.185 187.504 113.783 187.92C113.38 188.332 112.883 188.654 112.291 188.886C111.699 189.114 111.034 189.227 110.295 189.227ZM117.362 189V178.091H118.982V179.739H119.095C119.294 179.199 119.654 178.761 120.175 178.425C120.696 178.089 121.283 177.92 121.936 177.92C122.059 177.92 122.213 177.923 122.398 177.928C122.582 177.932 122.722 177.939 122.817 177.949V179.653C122.76 179.639 122.63 179.618 122.426 179.589C122.227 179.556 122.017 179.54 121.794 179.54C121.264 179.54 120.79 179.651 120.374 179.874C119.962 180.091 119.635 180.394 119.393 180.783C119.157 181.166 119.038 181.604 119.038 182.097V189H117.362ZM124.804 189V178.091H126.48V189H124.804ZM125.656 176.273C125.329 176.273 125.047 176.161 124.811 175.939C124.579 175.716 124.463 175.449 124.463 175.136C124.463 174.824 124.579 174.556 124.811 174.334C125.047 174.111 125.329 174 125.656 174C125.983 174 126.262 174.111 126.494 174.334C126.731 174.556 126.849 174.824 126.849 175.136C126.849 175.449 126.731 175.716 126.494 175.939C126.262 176.161 125.983 176.273 125.656 176.273ZM131.226 174.455V189H129.55V174.455H131.226Z" fill="#008000"/>
<path d="M93.7614 297V282.455H102.54V284.017H95.5227V288.932H102.085V290.494H95.5227V295.438H102.653V297H93.7614ZM107.163 290.438V297H105.487V286.091H107.107V287.795H107.249C107.504 287.241 107.893 286.796 108.413 286.46C108.934 286.119 109.607 285.949 110.43 285.949C111.169 285.949 111.815 286.1 112.369 286.403C112.923 286.702 113.354 287.156 113.662 287.767C113.97 288.373 114.124 289.14 114.124 290.068V297H112.447V290.182C112.447 289.325 112.225 288.657 111.78 288.179C111.335 287.696 110.724 287.455 109.947 287.455C109.412 287.455 108.934 287.571 108.513 287.803C108.096 288.035 107.767 288.373 107.526 288.818C107.284 289.263 107.163 289.803 107.163 290.438ZM121.306 297.227C120.397 297.227 119.594 296.998 118.898 296.538C118.202 296.074 117.658 295.421 117.265 294.578C116.872 293.731 116.675 292.729 116.675 291.574C116.675 290.428 116.872 289.434 117.265 288.591C117.658 287.748 118.204 287.097 118.905 286.638C119.606 286.179 120.416 285.949 121.334 285.949C122.044 285.949 122.605 286.067 123.017 286.304C123.434 286.536 123.751 286.801 123.969 287.099C124.192 287.393 124.364 287.634 124.488 287.824H124.63V282.455H126.306V297H124.686V295.324H124.488C124.364 295.523 124.189 295.774 123.962 296.077C123.735 296.375 123.41 296.643 122.989 296.879C122.568 297.111 122.007 297.227 121.306 297.227ZM121.533 295.722C122.205 295.722 122.774 295.546 123.238 295.196C123.702 294.841 124.054 294.351 124.296 293.726C124.537 293.096 124.658 292.369 124.658 291.545C124.658 290.731 124.54 290.018 124.303 289.408C124.066 288.792 123.716 288.314 123.252 287.973C122.788 287.627 122.215 287.455 121.533 287.455C120.823 287.455 120.231 287.637 119.757 288.001C119.289 288.361 118.936 288.851 118.699 289.472C118.467 290.087 118.351 290.778 118.351 291.545C118.351 292.322 118.47 293.027 118.706 293.662C118.948 294.292 119.303 294.794 119.772 295.168C120.245 295.537 120.832 295.722 121.533 295.722ZM134.182 297.227C133.131 297.227 132.224 296.995 131.462 296.531C130.704 296.062 130.12 295.409 129.708 294.571C129.301 293.728 129.097 292.748 129.097 291.631C129.097 290.513 129.301 289.528 129.708 288.676C130.12 287.819 130.693 287.152 131.426 286.673C132.165 286.19 133.027 285.949 134.012 285.949C134.58 285.949 135.141 286.044 135.695 286.233C136.249 286.422 136.753 286.73 137.208 287.156C137.662 287.578 138.025 288.136 138.294 288.832C138.564 289.528 138.699 290.385 138.699 291.403V292.114H130.29V290.665H136.995C136.995 290.049 136.872 289.5 136.625 289.017C136.384 288.534 136.038 288.153 135.588 287.874C135.143 287.594 134.618 287.455 134.012 287.455C133.344 287.455 132.766 287.62 132.279 287.952C131.796 288.278 131.424 288.705 131.164 289.23C130.903 289.756 130.773 290.319 130.773 290.92V291.886C130.773 292.71 130.915 293.409 131.199 293.982C131.488 294.55 131.888 294.983 132.4 295.281C132.911 295.575 133.505 295.722 134.182 295.722C134.623 295.722 135.02 295.66 135.375 295.537C135.735 295.409 136.045 295.22 136.306 294.969C136.566 294.713 136.767 294.396 136.909 294.017L138.529 294.472C138.358 295.021 138.072 295.504 137.669 295.92C137.267 296.332 136.77 296.654 136.178 296.886C135.586 297.114 134.921 297.227 134.182 297.227ZM141.249 297V286.091H142.868V287.739H142.982C143.181 287.199 143.541 286.761 144.061 286.425C144.582 286.089 145.169 285.92 145.823 285.92C145.946 285.92 146.1 285.923 146.284 285.928C146.469 285.932 146.609 285.939 146.703 285.949V287.653C146.647 287.639 146.516 287.618 146.313 287.589C146.114 287.556 145.903 287.54 145.681 287.54C145.15 287.54 144.677 287.651 144.26 287.874C143.848 288.091 143.522 288.394 143.28 288.783C143.043 289.166 142.925 289.604 142.925 290.097V297H141.249ZM152.932 297.227C151.881 297.227 150.974 296.995 150.212 296.531C149.454 296.062 148.87 295.409 148.458 294.571C148.051 293.728 147.847 292.748 147.847 291.631C147.847 290.513 148.051 289.528 148.458 288.676C148.87 287.819 149.443 287.152 150.176 286.673C150.915 286.19 151.777 285.949 152.762 285.949C153.33 285.949 153.891 286.044 154.445 286.233C154.999 286.422 155.503 286.73 155.958 287.156C156.412 287.578 156.775 288.136 157.044 288.832C157.314 289.528 157.449 290.385 157.449 291.403V292.114H149.04V290.665H155.745C155.745 290.049 155.622 289.5 155.375 289.017C155.134 288.534 154.788 288.153 154.338 287.874C153.893 287.594 153.368 287.455 152.762 287.455C152.094 287.455 151.516 287.62 151.029 287.952C150.546 288.278 150.174 288.705 149.914 289.23C149.653 289.756 149.523 290.319 149.523 290.92V291.886C149.523 292.71 149.665 293.409 149.949 293.982C150.238 294.55 150.638 294.983 151.15 295.281C151.661 295.575 152.255 295.722 152.932 295.722C153.373 295.722 153.77 295.66 154.125 295.537C154.485 295.409 154.795 295.22 155.056 294.969C155.316 294.713 155.517 294.396 155.659 294.017L157.279 294.472C157.108 295.021 156.822 295.504 156.419 295.92C156.017 296.332 155.52 296.654 154.928 296.886C154.336 297.114 153.671 297.227 152.932 297.227ZM164.431 297.227C163.408 297.227 162.527 296.986 161.789 296.503C161.05 296.02 160.482 295.355 160.084 294.507C159.686 293.66 159.488 292.691 159.488 291.602C159.488 290.494 159.691 289.517 160.098 288.669C160.51 287.817 161.083 287.152 161.817 286.673C162.556 286.19 163.417 285.949 164.402 285.949C165.169 285.949 165.861 286.091 166.476 286.375C167.092 286.659 167.596 287.057 167.989 287.568C168.382 288.08 168.626 288.676 168.721 289.358H167.044C166.917 288.861 166.632 288.42 166.192 288.037C165.757 287.649 165.169 287.455 164.431 287.455C163.777 287.455 163.204 287.625 162.712 287.966C162.224 288.302 161.843 288.778 161.569 289.393C161.299 290.004 161.164 290.722 161.164 291.545C161.164 292.388 161.296 293.122 161.561 293.747C161.831 294.372 162.21 294.857 162.698 295.203C163.19 295.549 163.768 295.722 164.431 295.722C164.866 295.722 165.262 295.646 165.617 295.494C165.972 295.343 166.273 295.125 166.519 294.841C166.765 294.557 166.94 294.216 167.044 293.818H168.721C168.626 294.462 168.391 295.042 168.017 295.558C167.648 296.07 167.158 296.477 166.547 296.78C165.941 297.078 165.236 297.227 164.431 297.227ZM163.635 296.943H165.027L164.914 297.511C165.283 297.568 165.622 297.722 165.929 297.973C166.237 298.229 166.391 298.634 166.391 299.188C166.391 299.798 166.138 300.295 165.631 300.679C165.129 301.067 164.388 301.261 163.408 301.261L163.351 300.153C163.792 300.153 164.156 300.082 164.445 299.94C164.739 299.803 164.885 299.571 164.885 299.244C164.885 298.918 164.765 298.695 164.523 298.577C164.282 298.458 163.891 298.378 163.351 298.335L163.635 296.943ZM175.603 297.227C174.618 297.227 173.754 296.993 173.01 296.524C172.272 296.055 171.694 295.4 171.277 294.557C170.865 293.714 170.659 292.729 170.659 291.602C170.659 290.466 170.865 289.474 171.277 288.626C171.694 287.779 172.272 287.121 173.01 286.652C173.754 286.183 174.618 285.949 175.603 285.949C176.587 285.949 177.449 286.183 178.188 286.652C178.931 287.121 179.509 287.779 179.921 288.626C180.337 289.474 180.546 290.466 180.546 291.602C180.546 292.729 180.337 293.714 179.921 294.557C179.509 295.4 178.931 296.055 178.188 296.524C177.449 296.993 176.587 297.227 175.603 297.227ZM175.603 295.722C176.351 295.722 176.966 295.53 177.449 295.146C177.932 294.763 178.29 294.259 178.522 293.634C178.754 293.009 178.87 292.331 178.87 291.602C178.87 290.873 178.754 290.194 178.522 289.564C178.29 288.934 177.932 288.425 177.449 288.037C176.966 287.649 176.351 287.455 175.603 287.455C174.855 287.455 174.239 287.649 173.756 288.037C173.273 288.425 172.916 288.934 172.684 289.564C172.452 290.194 172.336 290.873 172.336 291.602C172.336 292.331 172.452 293.009 172.684 293.634C172.916 294.259 173.273 294.763 173.756 295.146C174.239 295.53 174.855 295.722 175.603 295.722ZM192.849 297.227C191.94 297.227 191.137 296.998 190.441 296.538C189.745 296.074 189.201 295.421 188.808 294.578C188.415 293.731 188.218 292.729 188.218 291.574C188.218 290.428 188.415 289.434 188.808 288.591C189.201 287.748 189.747 287.097 190.448 286.638C191.149 286.179 191.959 285.949 192.877 285.949C193.587 285.949 194.148 286.067 194.56 286.304C194.977 286.536 195.294 286.801 195.512 287.099C195.735 287.393 195.907 287.634 196.031 287.824H196.173V282.455H197.849V297H196.229V295.324H196.031C195.907 295.523 195.732 295.774 195.505 296.077C195.278 296.375 194.953 296.643 194.532 296.879C194.111 297.111 193.549 297.227 192.849 297.227ZM193.076 295.722C193.748 295.722 194.317 295.546 194.781 295.196C195.245 294.841 195.597 294.351 195.839 293.726C196.08 293.096 196.201 292.369 196.201 291.545C196.201 290.731 196.083 290.018 195.846 289.408C195.609 288.792 195.259 288.314 194.795 287.973C194.331 287.627 193.758 287.455 193.076 287.455C192.366 287.455 191.774 287.637 191.3 288.001C190.832 288.361 190.479 288.851 190.242 289.472C190.01 290.087 189.894 290.778 189.894 291.545C189.894 292.322 190.013 293.027 190.249 293.662C190.491 294.292 190.846 294.794 191.315 295.168C191.788 295.537 192.375 295.722 193.076 295.722ZM205.725 297.227C204.674 297.227 203.767 296.995 203.005 296.531C202.247 296.062 201.663 295.409 201.251 294.571C200.844 293.728 200.64 292.748 200.64 291.631C200.64 290.513 200.844 289.528 201.251 288.676C201.663 287.819 202.236 287.152 202.969 286.673C203.708 286.19 204.57 285.949 205.555 285.949C206.123 285.949 206.684 286.044 207.238 286.233C207.792 286.422 208.296 286.73 208.751 287.156C209.205 287.578 209.567 288.136 209.837 288.832C210.107 289.528 210.242 290.385 210.242 291.403V292.114H201.833V290.665H208.538C208.538 290.049 208.415 289.5 208.168 289.017C207.927 288.534 207.581 288.153 207.131 287.874C206.686 287.594 206.161 287.455 205.555 287.455C204.887 287.455 204.309 287.62 203.822 287.952C203.339 288.278 202.967 288.705 202.707 289.23C202.446 289.756 202.316 290.319 202.316 290.92V291.886C202.316 292.71 202.458 293.409 202.742 293.982C203.031 294.55 203.431 294.983 203.942 295.281C204.454 295.575 205.048 295.722 205.725 295.722C206.165 295.722 206.563 295.66 206.918 295.537C207.278 295.409 207.588 295.22 207.849 294.969C208.109 294.713 208.31 294.396 208.452 294.017L210.072 294.472C209.901 295.021 209.615 295.504 209.212 295.92C208.81 296.332 208.313 296.654 207.721 296.886C207.129 297.114 206.464 297.227 205.725 297.227ZM106.034 313.727C106.034 315.261 105.757 316.587 105.203 317.705C104.649 318.822 103.889 319.684 102.923 320.29C101.957 320.896 100.854 321.199 99.6136 321.199C98.3731 321.199 97.2699 320.896 96.304 320.29C95.3381 319.684 94.5781 318.822 94.0241 317.705C93.4702 316.587 93.1932 315.261 93.1932 313.727C93.1932 312.193 93.4702 310.867 94.0241 309.75C94.5781 308.633 95.3381 307.771 96.304 307.165C97.2699 306.559 98.3731 306.256 99.6136 306.256C100.854 306.256 101.957 306.559 102.923 307.165C103.889 307.771 104.649 308.633 105.203 309.75C105.757 310.867 106.034 312.193 106.034 313.727ZM104.33 313.727C104.33 312.468 104.119 311.405 103.697 310.538C103.281 309.672 102.715 309.016 102 308.571C101.29 308.126 100.494 307.903 99.6136 307.903C98.733 307.903 97.9351 308.126 97.2202 308.571C96.5099 309.016 95.9441 309.672 95.5227 310.538C95.1061 311.405 94.8977 312.468 94.8977 313.727C94.8977 314.987 95.1061 316.05 95.5227 316.916C95.9441 317.783 96.5099 318.438 97.2202 318.884C97.9351 319.329 98.733 319.551 99.6136 319.551C100.494 319.551 101.29 319.329 102 318.884C102.715 318.438 103.281 317.783 103.697 316.916C104.119 316.05 104.33 314.987 104.33 313.727ZM108.768 321V310.091H110.388V311.739H110.501C110.7 311.199 111.06 310.761 111.581 310.425C112.102 310.089 112.689 309.92 113.342 309.92C113.465 309.92 113.619 309.923 113.804 309.928C113.989 309.932 114.128 309.939 114.223 309.949V311.653C114.166 311.639 114.036 311.618 113.832 311.589C113.634 311.556 113.423 311.54 113.2 311.54C112.67 311.54 112.196 311.651 111.78 311.874C111.368 312.091 111.041 312.394 110.8 312.783C110.563 313.166 110.445 313.604 110.445 314.097V321H108.768ZM116.21 321V310.091H117.886V321H116.21ZM117.062 308.273C116.735 308.273 116.454 308.161 116.217 307.939C115.985 307.716 115.869 307.449 115.869 307.136C115.869 306.824 115.985 306.556 116.217 306.334C116.454 306.111 116.735 306 117.062 306C117.389 306 117.668 306.111 117.9 306.334C118.137 306.556 118.255 306.824 118.255 307.136C118.255 307.449 118.137 307.716 117.9 307.939C117.668 308.161 117.389 308.273 117.062 308.273ZM125.359 325.318C124.55 325.318 123.854 325.214 123.271 325.006C122.689 324.802 122.204 324.532 121.815 324.196C121.432 323.865 121.126 323.509 120.899 323.131L122.234 322.193C122.386 322.392 122.578 322.619 122.81 322.875C123.042 323.135 123.359 323.36 123.761 323.55C124.169 323.744 124.701 323.841 125.359 323.841C126.24 323.841 126.967 323.628 127.54 323.202C128.113 322.776 128.399 322.108 128.399 321.199V318.983H128.257C128.134 319.182 127.959 319.428 127.732 319.722C127.509 320.01 127.187 320.268 126.766 320.496C126.349 320.718 125.786 320.83 125.075 320.83C124.195 320.83 123.404 320.621 122.703 320.205C122.007 319.788 121.455 319.182 121.048 318.386C120.646 317.591 120.445 316.625 120.445 315.489C120.445 314.371 120.641 313.398 121.034 312.57C121.427 311.736 121.974 311.092 122.675 310.638C123.375 310.179 124.185 309.949 125.104 309.949C125.814 309.949 126.377 310.067 126.794 310.304C127.215 310.536 127.537 310.801 127.76 311.099C127.987 311.393 128.162 311.634 128.286 311.824H128.456V310.091H130.075V321.312C130.075 322.25 129.862 323.012 129.436 323.599C129.015 324.191 128.446 324.625 127.732 324.899C127.021 325.179 126.231 325.318 125.359 325.318ZM125.303 319.324C125.975 319.324 126.543 319.17 127.007 318.862C127.471 318.554 127.824 318.112 128.065 317.534C128.307 316.956 128.428 316.265 128.428 315.46C128.428 314.674 128.309 313.981 128.072 313.379C127.836 312.778 127.485 312.307 127.021 311.966C126.557 311.625 125.984 311.455 125.303 311.455C124.592 311.455 124 311.634 123.527 311.994C123.058 312.354 122.705 312.837 122.469 313.443C122.237 314.049 122.121 314.722 122.121 315.46C122.121 316.218 122.239 316.888 122.476 317.47C122.717 318.048 123.072 318.502 123.541 318.834C124.015 319.161 124.602 319.324 125.303 319.324ZM137.717 321.227C136.666 321.227 135.759 320.995 134.997 320.531C134.24 320.062 133.655 319.409 133.243 318.571C132.836 317.728 132.632 316.748 132.632 315.631C132.632 314.513 132.836 313.528 133.243 312.676C133.655 311.819 134.228 311.152 134.962 310.673C135.7 310.19 136.562 309.949 137.547 309.949C138.115 309.949 138.676 310.044 139.23 310.233C139.784 310.422 140.288 310.73 140.743 311.156C141.197 311.578 141.56 312.136 141.83 312.832C142.099 313.528 142.234 314.385 142.234 315.403V316.114H133.825V314.665H140.53C140.53 314.049 140.407 313.5 140.161 313.017C139.919 312.534 139.573 312.153 139.124 311.874C138.679 311.594 138.153 311.455 137.547 311.455C136.879 311.455 136.302 311.62 135.814 311.952C135.331 312.278 134.959 312.705 134.699 313.23C134.438 313.756 134.308 314.319 134.308 314.92V315.886C134.308 316.71 134.45 317.409 134.734 317.982C135.023 318.55 135.423 318.983 135.935 319.281C136.446 319.575 137.04 319.722 137.717 319.722C138.158 319.722 138.555 319.66 138.911 319.537C139.27 319.409 139.58 319.22 139.841 318.969C140.101 318.713 140.303 318.396 140.445 318.017L142.064 318.472C141.893 319.021 141.607 319.504 141.205 319.92C140.802 320.332 140.305 320.654 139.713 320.886C139.121 321.114 138.456 321.227 137.717 321.227ZM144.784 321V310.091H146.403V311.795H146.545C146.773 311.213 147.14 310.761 147.646 310.439C148.153 310.112 148.761 309.949 149.472 309.949C150.191 309.949 150.79 310.112 151.268 310.439C151.751 310.761 152.128 311.213 152.398 311.795H152.511C152.791 311.232 153.21 310.785 153.768 310.453C154.327 310.117 154.997 309.949 155.778 309.949C156.754 309.949 157.552 310.254 158.172 310.865C158.792 311.471 159.102 312.416 159.102 313.699V321H157.426V313.699C157.426 312.894 157.206 312.319 156.766 311.973C156.325 311.627 155.807 311.455 155.21 311.455C154.443 311.455 153.849 311.687 153.428 312.151C153.006 312.61 152.795 313.192 152.795 313.898V321H151.091V313.528C151.091 312.908 150.89 312.409 150.487 312.03C150.085 311.646 149.566 311.455 148.932 311.455C148.496 311.455 148.089 311.571 147.71 311.803C147.336 312.035 147.033 312.357 146.801 312.768C146.574 313.176 146.46 313.647 146.46 314.182V321H144.784Z" fill="white"/>
<path d="M93.7614 420V405.455H102.483V407.017H95.5227V411.932H101.83V413.494H95.5227V420H93.7614ZM105.272 420V409.091H106.949V420H105.272ZM106.125 407.273C105.798 407.273 105.516 407.161 105.279 406.939C105.047 406.716 104.931 406.449 104.931 406.136C104.931 405.824 105.047 405.556 105.279 405.334C105.516 405.111 105.798 405 106.125 405C106.451 405 106.731 405.111 106.963 405.334C107.199 405.556 107.318 405.824 107.318 406.136C107.318 406.449 107.199 406.716 106.963 406.939C106.731 407.161 106.451 407.273 106.125 407.273ZM111.695 413.438V420H110.018V409.091H111.638V410.795H111.78C112.036 410.241 112.424 409.796 112.945 409.46C113.465 409.119 114.138 408.949 114.962 408.949C115.7 408.949 116.347 409.1 116.901 409.403C117.455 409.702 117.885 410.156 118.193 410.767C118.501 411.373 118.655 412.14 118.655 413.068V420H116.979V413.182C116.979 412.325 116.756 411.657 116.311 411.179C115.866 410.696 115.255 410.455 114.479 410.455C113.944 410.455 113.465 410.571 113.044 410.803C112.627 411.035 112.298 411.373 112.057 411.818C111.815 412.263 111.695 412.803 111.695 413.438ZM124.928 420.256C124.237 420.256 123.609 420.125 123.046 419.865C122.482 419.6 122.035 419.219 121.703 418.722C121.372 418.22 121.206 417.614 121.206 416.903C121.206 416.278 121.329 415.772 121.576 415.384C121.822 414.991 122.151 414.683 122.563 414.46C122.975 414.238 123.429 414.072 123.926 413.963C124.428 413.849 124.933 413.759 125.439 413.693C126.102 413.608 126.64 413.544 127.051 413.501C127.468 413.454 127.771 413.376 127.961 413.267C128.155 413.158 128.252 412.969 128.252 412.699V412.642C128.252 411.941 128.06 411.397 127.676 411.009C127.298 410.62 126.722 410.426 125.951 410.426C125.15 410.426 124.523 410.601 124.069 410.952C123.614 411.302 123.294 411.676 123.11 412.074L121.519 411.506C121.803 410.843 122.182 410.327 122.655 409.957C123.133 409.583 123.654 409.323 124.218 409.176C124.786 409.025 125.345 408.949 125.894 408.949C126.244 408.949 126.647 408.991 127.101 409.077C127.56 409.157 128.003 409.325 128.429 409.581C128.86 409.837 129.218 410.223 129.502 410.739C129.786 411.255 129.928 411.946 129.928 412.812V420H128.252V418.523H128.167C128.053 418.759 127.864 419.013 127.598 419.283C127.333 419.553 126.98 419.782 126.54 419.972C126.1 420.161 125.562 420.256 124.928 420.256ZM125.184 418.75C125.846 418.75 126.405 418.62 126.86 418.359C127.319 418.099 127.665 417.763 127.897 417.351C128.133 416.939 128.252 416.506 128.252 416.051V414.517C128.181 414.602 128.025 414.68 127.783 414.751C127.546 414.818 127.272 414.877 126.959 414.929C126.651 414.976 126.351 415.019 126.057 415.057C125.768 415.09 125.534 415.118 125.354 415.142C124.918 415.199 124.511 415.291 124.132 415.419C123.758 415.542 123.455 415.729 123.223 415.98C122.996 416.226 122.882 416.562 122.882 416.989C122.882 417.571 123.098 418.011 123.529 418.31C123.964 418.603 124.516 418.75 125.184 418.75ZM134.663 405.455V420H132.987V405.455H134.663ZM137.733 420V409.091H139.409V420H137.733ZM138.586 407.273C138.259 407.273 137.977 407.161 137.74 406.939C137.508 406.716 137.392 406.449 137.392 406.136C137.392 405.824 137.508 405.556 137.74 405.334C137.977 405.111 138.259 405 138.586 405C138.912 405 139.192 405.111 139.424 405.334C139.66 405.556 139.779 405.824 139.779 406.136C139.779 406.449 139.66 406.716 139.424 406.939C139.192 407.161 138.912 407.273 138.586 407.273ZM142.167 420V418.722L148.36 410.767V410.653H142.366V409.091H150.519V410.426L144.496 418.324V418.438H150.718V420H142.167ZM156.51 420.256C155.819 420.256 155.191 420.125 154.628 419.865C154.064 419.6 153.617 419.219 153.286 418.722C152.954 418.22 152.788 417.614 152.788 416.903C152.788 416.278 152.911 415.772 153.158 415.384C153.404 414.991 153.733 414.683 154.145 414.46C154.557 414.238 155.011 414.072 155.509 413.963C156.01 413.849 156.515 413.759 157.021 413.693C157.684 413.608 158.222 413.544 158.634 413.501C159.05 413.454 159.353 413.376 159.543 413.267C159.737 413.158 159.834 412.969 159.834 412.699V412.642C159.834 411.941 159.642 411.397 159.259 411.009C158.88 410.62 158.304 410.426 157.533 410.426C156.732 410.426 156.105 410.601 155.651 410.952C155.196 411.302 154.876 411.676 154.692 412.074L153.101 411.506C153.385 410.843 153.764 410.327 154.237 409.957C154.715 409.583 155.236 409.323 155.8 409.176C156.368 409.025 156.927 408.949 157.476 408.949C157.826 408.949 158.229 408.991 158.683 409.077C159.143 409.157 159.585 409.325 160.011 409.581C160.442 409.837 160.8 410.223 161.084 410.739C161.368 411.255 161.51 411.946 161.51 412.812V420H159.834V418.523H159.749C159.635 418.759 159.446 419.013 159.18 419.283C158.915 419.553 158.563 419.782 158.122 419.972C157.682 420.161 157.144 420.256 156.51 420.256ZM156.766 418.75C157.429 418.75 157.987 418.62 158.442 418.359C158.901 418.099 159.247 417.763 159.479 417.351C159.715 416.939 159.834 416.506 159.834 416.051V414.517C159.763 414.602 159.607 414.68 159.365 414.751C159.128 414.818 158.854 414.877 158.541 414.929C158.233 414.976 157.933 415.019 157.639 415.057C157.35 415.09 157.116 415.118 156.936 415.142C156.5 415.199 156.093 415.291 155.714 415.419C155.34 415.542 155.037 415.729 154.805 415.98C154.578 416.226 154.464 416.562 154.464 416.989C154.464 417.571 154.68 418.011 155.111 418.31C155.546 418.603 156.098 418.75 156.766 418.75ZM164.569 420V409.091H166.189V410.739H166.302C166.501 410.199 166.861 409.761 167.382 409.425C167.903 409.089 168.49 408.92 169.143 408.92C169.266 408.92 169.42 408.923 169.605 408.928C169.789 408.932 169.929 408.939 170.024 408.949V410.653C169.967 410.639 169.837 410.618 169.633 410.589C169.434 410.556 169.224 410.54 169.001 410.54C168.471 410.54 167.997 410.651 167.581 410.874C167.169 411.091 166.842 411.394 166.6 411.783C166.364 412.166 166.245 412.604 166.245 413.097V420H164.569ZM105.466 434H103.705C103.6 433.493 103.418 433.048 103.158 432.665C102.902 432.281 102.589 431.959 102.22 431.699C101.856 431.434 101.451 431.235 101.006 431.102C100.561 430.97 100.097 430.903 99.6136 430.903C98.733 430.903 97.9351 431.126 97.2202 431.571C96.5099 432.016 95.9441 432.672 95.5227 433.538C95.1061 434.405 94.8977 435.468 94.8977 436.727C94.8977 437.987 95.1061 439.05 95.5227 439.916C95.9441 440.783 96.5099 441.438 97.2202 441.884C97.9351 442.329 98.733 442.551 99.6136 442.551C100.097 442.551 100.561 442.485 101.006 442.352C101.451 442.22 101.856 442.023 102.22 441.763C102.589 441.498 102.902 441.173 103.158 440.79C103.418 440.402 103.6 439.956 103.705 439.455H105.466C105.333 440.198 105.092 440.863 104.741 441.45C104.391 442.037 103.955 442.537 103.435 442.949C102.914 443.356 102.329 443.666 101.68 443.879C101.036 444.092 100.348 444.199 99.6136 444.199C98.3731 444.199 97.2699 443.896 96.304 443.29C95.3381 442.684 94.5781 441.822 94.0241 440.705C93.4702 439.587 93.1932 438.261 93.1932 436.727C93.1932 435.193 93.4702 433.867 94.0241 432.75C94.5781 431.633 95.3381 430.771 96.304 430.165C97.2699 429.559 98.3731 429.256 99.6136 429.256C100.348 429.256 101.036 429.362 101.68 429.575C102.329 429.788 102.914 430.101 103.435 430.513C103.955 430.92 104.391 431.417 104.741 432.004C105.092 432.587 105.333 433.252 105.466 434ZM111.295 444.256C110.604 444.256 109.976 444.125 109.413 443.865C108.85 443.6 108.402 443.219 108.071 442.722C107.739 442.22 107.574 441.614 107.574 440.903C107.574 440.278 107.697 439.772 107.943 439.384C108.189 438.991 108.518 438.683 108.93 438.46C109.342 438.238 109.797 438.072 110.294 437.963C110.796 437.849 111.3 437.759 111.806 437.693C112.469 437.608 113.007 437.544 113.419 437.501C113.835 437.454 114.138 437.376 114.328 437.267C114.522 437.158 114.619 436.969 114.619 436.699V436.642C114.619 435.941 114.427 435.397 114.044 435.009C113.665 434.62 113.09 434.426 112.318 434.426C111.518 434.426 110.89 434.601 110.436 434.952C109.981 435.302 109.662 435.676 109.477 436.074L107.886 435.506C108.17 434.843 108.549 434.327 109.022 433.957C109.501 433.583 110.021 433.323 110.585 433.176C111.153 433.025 111.712 432.949 112.261 432.949C112.611 432.949 113.014 432.991 113.468 433.077C113.928 433.157 114.37 433.325 114.797 433.581C115.227 433.837 115.585 434.223 115.869 434.739C116.153 435.255 116.295 435.946 116.295 436.812V444H114.619V442.523H114.534C114.42 442.759 114.231 443.013 113.966 443.283C113.7 443.553 113.348 443.782 112.907 443.972C112.467 444.161 111.93 444.256 111.295 444.256ZM111.551 442.75C112.214 442.75 112.772 442.62 113.227 442.359C113.686 442.099 114.032 441.763 114.264 441.351C114.501 440.939 114.619 440.506 114.619 440.051V438.517C114.548 438.602 114.392 438.68 114.15 438.751C113.913 438.818 113.639 438.877 113.326 438.929C113.019 438.976 112.718 439.019 112.424 439.057C112.136 439.09 111.901 439.118 111.721 439.142C111.286 439.199 110.878 439.291 110.5 439.419C110.126 439.542 109.823 439.729 109.591 439.98C109.363 440.226 109.25 440.562 109.25 440.989C109.25 441.571 109.465 442.011 109.896 442.31C110.332 442.603 110.883 442.75 111.551 442.75ZM123.474 444.227C122.565 444.227 121.762 443.998 121.066 443.538C120.37 443.074 119.826 442.421 119.433 441.578C119.04 440.731 118.843 439.729 118.843 438.574C118.843 437.428 119.04 436.434 119.433 435.591C119.826 434.748 120.372 434.097 121.073 433.638C121.774 433.179 122.584 432.949 123.502 432.949C124.212 432.949 124.773 433.067 125.185 433.304C125.602 433.536 125.919 433.801 126.137 434.099C126.36 434.393 126.532 434.634 126.656 434.824H126.798V429.455H128.474V444H126.854V442.324H126.656C126.532 442.523 126.357 442.774 126.13 443.077C125.903 443.375 125.578 443.643 125.157 443.879C124.736 444.111 124.174 444.227 123.474 444.227ZM123.701 442.722C124.373 442.722 124.942 442.546 125.406 442.196C125.87 441.841 126.222 441.351 126.464 440.726C126.705 440.096 126.826 439.369 126.826 438.545C126.826 437.731 126.708 437.018 126.471 436.408C126.234 435.792 125.884 435.314 125.42 434.973C124.956 434.627 124.383 434.455 123.701 434.455C122.991 434.455 122.399 434.637 121.925 435.001C121.457 435.361 121.104 435.851 120.867 436.472C120.635 437.087 120.519 437.778 120.519 438.545C120.519 439.322 120.638 440.027 120.874 440.662C121.116 441.292 121.471 441.794 121.94 442.168C122.413 442.537 123 442.722 123.701 442.722ZM134.987 444.256C134.295 444.256 133.668 444.125 133.104 443.865C132.541 443.6 132.094 443.219 131.762 442.722C131.431 442.22 131.265 441.614 131.265 440.903C131.265 440.278 131.388 439.772 131.634 439.384C131.88 438.991 132.21 438.683 132.621 438.46C133.033 438.238 133.488 438.072 133.985 437.963C134.487 437.849 134.991 437.759 135.498 437.693C136.161 437.608 136.698 437.544 137.11 437.501C137.527 437.454 137.83 437.376 138.019 437.267C138.213 437.158 138.31 436.969 138.31 436.699V436.642C138.31 435.941 138.119 435.397 137.735 435.009C137.356 434.62 136.781 434.426 136.009 434.426C135.209 434.426 134.582 434.601 134.127 434.952C133.673 435.302 133.353 435.676 133.168 436.074L131.577 435.506C131.862 434.843 132.24 434.327 132.714 433.957C133.192 433.583 133.713 433.323 134.276 433.176C134.844 433.025 135.403 432.949 135.952 432.949C136.303 432.949 136.705 432.991 137.16 433.077C137.619 433.157 138.062 433.325 138.488 433.581C138.919 433.837 139.276 434.223 139.56 434.739C139.844 435.255 139.987 435.946 139.987 436.812V444H138.31V442.523H138.225C138.112 442.759 137.922 443.013 137.657 443.283C137.392 443.553 137.039 443.782 136.599 443.972C136.158 444.161 135.621 444.256 134.987 444.256ZM135.242 442.75C135.905 442.75 136.464 442.62 136.918 442.359C137.378 442.099 137.723 441.763 137.955 441.351C138.192 440.939 138.31 440.506 138.31 440.051V438.517C138.239 438.602 138.083 438.68 137.842 438.751C137.605 438.818 137.33 438.877 137.018 438.929C136.71 438.976 136.409 439.019 136.116 439.057C135.827 439.09 135.593 439.118 135.413 439.142C134.977 439.199 134.57 439.291 134.191 439.419C133.817 439.542 133.514 439.729 133.282 439.98C133.055 440.226 132.941 440.562 132.941 440.989C132.941 441.571 133.156 442.011 133.587 442.31C134.023 442.603 134.575 442.75 135.242 442.75ZM150.773 435.534L149.267 435.96C149.173 435.709 149.033 435.465 148.848 435.229C148.668 434.987 148.422 434.788 148.11 434.632C147.797 434.476 147.397 434.398 146.909 434.398C146.242 434.398 145.685 434.552 145.24 434.859C144.8 435.162 144.58 435.548 144.58 436.017C144.58 436.434 144.731 436.763 145.034 437.004C145.337 437.246 145.811 437.447 146.455 437.608L148.074 438.006C149.05 438.242 149.776 438.605 150.255 439.092C150.733 439.575 150.972 440.198 150.972 440.96C150.972 441.585 150.792 442.144 150.432 442.636C150.077 443.129 149.58 443.517 148.941 443.801C148.301 444.085 147.558 444.227 146.711 444.227C145.598 444.227 144.677 443.986 143.948 443.503C143.219 443.02 142.757 442.314 142.563 441.386L144.154 440.989C144.305 441.576 144.592 442.016 145.013 442.31C145.439 442.603 145.996 442.75 146.682 442.75C147.463 442.75 148.084 442.584 148.543 442.253C149.007 441.917 149.239 441.514 149.239 441.045C149.239 440.667 149.106 440.349 148.841 440.094C148.576 439.833 148.169 439.639 147.62 439.511L145.801 439.085C144.802 438.848 144.069 438.482 143.6 437.984C143.136 437.482 142.904 436.855 142.904 436.102C142.904 435.487 143.077 434.942 143.422 434.469C143.773 433.995 144.248 433.624 144.85 433.354C145.456 433.084 146.142 432.949 146.909 432.949C147.989 432.949 148.837 433.186 149.452 433.659C150.072 434.133 150.513 434.758 150.773 435.534ZM158.239 433.091V434.511H152.586V433.091H158.239ZM154.234 430.477H155.91V440.875C155.91 441.348 155.978 441.704 156.116 441.94C156.258 442.172 156.438 442.329 156.656 442.409C156.878 442.485 157.112 442.523 157.359 442.523C157.543 442.523 157.695 442.513 157.813 442.494C157.932 442.471 158.026 442.452 158.097 442.438L158.438 443.943C158.325 443.986 158.166 444.028 157.962 444.071C157.759 444.118 157.501 444.142 157.188 444.142C156.715 444.142 156.251 444.04 155.796 443.837C155.346 443.633 154.972 443.323 154.674 442.906C154.38 442.49 154.234 441.964 154.234 441.33V430.477ZM160.761 444V433.091H162.38V434.739H162.494C162.692 434.199 163.052 433.761 163.573 433.425C164.094 433.089 164.681 432.92 165.335 432.92C165.458 432.92 165.612 432.923 165.796 432.928C165.981 432.932 166.121 432.939 166.215 432.949V434.653C166.158 434.639 166.028 434.618 165.825 434.589C165.626 434.556 165.415 434.54 165.192 434.54C164.662 434.54 164.189 434.651 163.772 434.874C163.36 435.091 163.033 435.394 162.792 435.783C162.555 436.166 162.437 436.604 162.437 437.097V444H160.761ZM172.302 444.227C171.317 444.227 170.453 443.993 169.71 443.524C168.971 443.055 168.393 442.4 167.977 441.557C167.565 440.714 167.359 439.729 167.359 438.602C167.359 437.466 167.565 436.474 167.977 435.626C168.393 434.779 168.971 434.121 169.71 433.652C170.453 433.183 171.317 432.949 172.302 432.949C173.287 432.949 174.148 433.183 174.887 433.652C175.63 434.121 176.208 434.779 176.62 435.626C177.037 436.474 177.245 437.466 177.245 438.602C177.245 439.729 177.037 440.714 176.62 441.557C176.208 442.4 175.63 443.055 174.887 443.524C174.148 443.993 173.287 444.227 172.302 444.227ZM172.302 442.722C173.05 442.722 173.665 442.53 174.148 442.146C174.631 441.763 174.989 441.259 175.221 440.634C175.453 440.009 175.569 439.331 175.569 438.602C175.569 437.873 175.453 437.194 175.221 436.564C174.989 435.934 174.631 435.425 174.148 435.037C173.665 434.649 173.05 434.455 172.302 434.455C171.554 434.455 170.938 434.649 170.455 435.037C169.972 435.425 169.615 435.934 169.383 436.564C169.151 437.194 169.035 437.873 169.035 438.602C169.035 439.331 169.151 440.009 169.383 440.634C169.615 441.259 169.972 441.763 170.455 442.146C170.938 442.53 171.554 442.722 172.302 442.722Z" fill="white"/>
<defs>
<linearGradient id="paint0_linear_8_14" x1="42.4999" y1="80" x2="41.9999" y2="131.5" gradientUnits="userSpaceOnUse">
<stop stop-color="#008000"/>
<stop offset="1" stop-color="#CCCCCC"/>
</linearGradient>
</defs>
</svg>
