<svg width="186" height="107" viewBox="0 0 186 107" fill="none" xmlns="http://www.w3.org/2000/svg">
<path d="M88.5008 101.093C88.5523 104.13 91.0561 106.551 94.0932 106.499C97.1303 106.448 99.5507 103.944 99.4992 100.907L88.5008 101.093ZM96.8226 38.0456C94.6386 35.9344 91.1567 35.9934 89.0456 38.1774L54.642 73.7673C52.5308 75.9513 52.5898 79.4332 54.7738 81.5444C56.9578 83.6555 60.4397 83.5965 62.5508 81.4125L93.1318 49.7771L124.767 80.358C126.951 82.4692 130.433 82.4102 132.544 80.2262C134.656 78.0422 134.597 74.5603 132.413 72.4492L96.8226 38.0456ZM99.4992 100.907L98.4992 41.9068L87.5008 42.0932L88.5008 101.093L99.4992 100.907Z" fill="#008000"/>
<rect width="186" height="22" rx="11" fill="#008000"/>
</svg>
